solid OpenSCAD_Model
  facet normal 0 0 -1
    outer loop
      vertex -27.5 0 -7
      vertex -27.1722 3.11867 -7
      vertex -27.1722 -3.11867 -7
    endloop
  endfacet
  facet normal 0 0 -1
    outer loop
      vertex -27.1722 -3.11867 -7
      vertex -27.1722 3.11867 -7
      vertex -26.2032 6.10105 -7
    endloop
  endfacet
  facet normal 0 0 -1
    outer loop
      vertex -27.1722 -3.11867 -7
      vertex -26.2032 6.10105 -7
      vertex -24.6353 8.81678 -7
    endloop
  endfacet
  facet normal 0 0 -1
    outer loop
      vertex -27.1722 -3.11867 -7
      vertex -24.6353 8.81678 -7
      vertex -22.537 11.1472 -7
    endloop
  endfacet
  facet normal 0 0 -1
    outer loop
      vertex -27.1722 -3.11867 -7
      vertex -22.537 11.1472 -7
      vertex -20 12.9904 -7
    endloop
  endfacet
  facet normal 0 0 -1
    outer loop
      vertex -27.1722 -3.11867 -7
      vertex -20 12.9904 -7
      vertex -17.1353 14.2658 -7
    endloop
  endfacet
  facet normal 0 0 -1
    outer loop
      vertex -27.1722 -3.11867 -7
      vertex -17.1353 14.2658 -7
      vertex -14.0679 14.9178 -7
    endloop
  endfacet
  facet normal 0 0 -1
    outer loop
      vertex -27.1722 -3.11867 -7
      vertex -14.0679 14.9178 -7
      vertex -12.5 14.9178 -7
    endloop
  endfacet
  facet normal 0 0 -1
    outer loop
      vertex -12.5 14.9178 -7
      vertex -12.5 37 -7
      vertex 12.5 37 -7
    endloop
  endfacet
  facet normal 0 0 -1
    outer loop
      vertex -12.5 14.9178 -7
      vertex 12.5 37 -7
      vertex -27.1722 -3.11867 -7
    endloop
  endfacet
  facet normal 0 0 -1
    outer loop
      vertex -27.1722 -3.11867 -7
      vertex 12.5 37 -7
      vertex 12.5 14.9178 -7
    endloop
  endfacet
  facet normal 0 0 -1
    outer loop
      vertex -27.1722 -3.11867 -7
      vertex 12.5 14.9178 -7
      vertex 14.0679 14.9178 -7
    endloop
  endfacet
  facet normal 0 0 -1
    outer loop
      vertex -27.1722 -3.11867 -7
      vertex 14.0679 14.9178 -7
      vertex 17.1353 14.2658 -7
    endloop
  endfacet
  facet normal 0 0 -1
    outer loop
      vertex -27.1722 -3.11867 -7
      vertex 17.1353 14.2658 -7
      vertex 20 12.9904 -7
    endloop
  endfacet
  facet normal 0 0 -1
    outer loop
      vertex -27.1722 -3.11867 -7
      vertex 20 12.9904 -7
      vertex 22.537 11.1472 -7
    endloop
  endfacet
  facet normal 0 0 -1
    outer loop
      vertex -27.1722 -3.11867 -7
      vertex 22.537 11.1472 -7
      vertex 24.6353 8.81678 -7
    endloop
  endfacet
  facet normal 0 0 -1
    outer loop
      vertex -27.1722 -3.11867 -7
      vertex 24.6353 8.81678 -7
      vertex 26.2032 6.10105 -7
    endloop
  endfacet
  facet normal 0 0 -1
    outer loop
      vertex -27.1722 -3.11867 -7
      vertex 26.2032 6.10105 -7
      vertex 27.1722 3.11867 -7
    endloop
  endfacet
  facet normal 0 0 -1
    outer loop
      vertex -27.1722 -3.11867 -7
      vertex 27.1722 3.11867 -7
      vertex 27.5 0 -7
    endloop
  endfacet
  facet normal 0 0 -1
    outer loop
      vertex -27.1722 -3.11867 -7
      vertex 27.5 0 -7
      vertex 27.1722 -3.11867 -7
    endloop
  endfacet
  facet normal 0 0 -1
    outer loop
      vertex -27.1722 -3.11867 -7
      vertex 27.1722 -3.11867 -7
      vertex 26.2032 -6.10105 -7
    endloop
  endfacet
  facet normal 0 0 -1
    outer loop
      vertex -27.1722 -3.11867 -7
      vertex 26.2032 -6.10105 -7
      vertex 24.6353 -8.81678 -7
    endloop
  endfacet
  facet normal 0 0 -1
    outer loop
      vertex -27.1722 -3.11867 -7
      vertex 24.6353 -8.81678 -7
      vertex 22.537 -11.1472 -7
    endloop
  endfacet
  facet normal 0 0 -1
    outer loop
      vertex -27.1722 -3.11867 -7
      vertex 22.537 -11.1472 -7
      vertex 20 -12.9904 -7
    endloop
  endfacet
  facet normal 0 0 -1
    outer loop
      vertex -27.1722 -3.11867 -7
      vertex 20 -12.9904 -7
      vertex 17.1353 -14.2658 -7
    endloop
  endfacet
  facet normal 0 0 -1
    outer loop
      vertex -27.1722 -3.11867 -7
      vertex 17.1353 -14.2658 -7
      vertex 14.0679 -14.9178 -7
    endloop
  endfacet
  facet normal 0 0 -1
    outer loop
      vertex -27.1722 -3.11867 -7
      vertex 14.0679 -14.9178 -7
      vertex 12.5 -14.9178 -7
    endloop
  endfacet
  facet normal 0 0 -1
    outer loop
      vertex -27.1722 -3.11867 -7
      vertex 12.5 -14.9178 -7
      vertex 12.5 -15 -7
    endloop
  endfacet
  facet normal 0 0 -1
    outer loop
      vertex -12.5 -14.9178 -7
      vertex 12.5 -15 -7
      vertex -12.5 -15 -7
    endloop
  endfacet
  facet normal 0 0 -1
    outer loop
      vertex -27.1722 -3.11867 -7
      vertex 12.5 -15 -7
      vertex -12.5 -14.9178 -7
    endloop
  endfacet
  facet normal 0 0 -1
    outer loop
      vertex -27.1722 -3.11867 -7
      vertex -14.0679 -14.9178 -7
      vertex -17.1353 -14.2658 -7
    endloop
  endfacet
  facet normal 0 0 -1
    outer loop
      vertex -27.1722 -3.11867 -7
      vertex -17.1353 -14.2658 -7
      vertex -20 -12.9904 -7
    endloop
  endfacet
  facet normal 0 0 -1
    outer loop
      vertex -27.1722 -3.11867 -7
      vertex -20 -12.9904 -7
      vertex -22.537 -11.1472 -7
    endloop
  endfacet
  facet normal 0 0 -1
    outer loop
      vertex -27.1722 -3.11867 -7
      vertex -22.537 -11.1472 -7
      vertex -24.6353 -8.81678 -7
    endloop
  endfacet
  facet normal 0 0 -1
    outer loop
      vertex -27.1722 -3.11867 -7
      vertex -24.6353 -8.81678 -7
      vertex -26.2032 -6.10105 -7
    endloop
  endfacet
  facet normal 0 0 -1
    outer loop
      vertex -14.0679 -14.9178 -7
      vertex -27.1722 -3.11867 -7
      vertex -12.5 -14.9178 -7
    endloop
  endfacet
  facet normal -0.994522 0.104528 0
    outer loop
      vertex -27.5 0 -7
      vertex -27.5 0 7
      vertex -27.1722 3.11867 -7
    endloop
  endfacet
  facet normal -0.994522 0.104528 0
    outer loop
      vertex -27.1722 3.11867 -7
      vertex -27.5 0 7
      vertex -27.1722 3.11867 7
    endloop
  endfacet
  facet normal -0.994522 -0.104528 0
    outer loop
      vertex -27.5 0 -7
      vertex -27.1722 -3.11867 -7
      vertex -27.5 0 7
    endloop
  endfacet
  facet normal -0.994522 -0.104528 0
    outer loop
      vertex -27.5 0 7
      vertex -27.1722 -3.11867 -7
      vertex -27.1722 -3.11867 7
    endloop
  endfacet
  facet normal -0.951057 -0.309017 0
    outer loop
      vertex -27.1722 -3.11867 -7
      vertex -26.2032 -6.10105 -7
      vertex -27.1722 -3.11867 7
    endloop
  endfacet
  facet normal -0.951057 -0.309017 0
    outer loop
      vertex -27.1722 -3.11867 7
      vertex -26.2032 -6.10105 -7
      vertex -26.2032 -6.10105 7
    endloop
  endfacet
  facet normal -0.866025 -0.5 0
    outer loop
      vertex -26.2032 -6.10105 -7
      vertex -24.6353 -8.81678 -7
      vertex -26.2032 -6.10105 7
    endloop
  endfacet
  facet normal -0.866025 -0.5 0
    outer loop
      vertex -26.2032 -6.10105 7
      vertex -24.6353 -8.81678 -7
      vertex -24.6353 -8.81678 7
    endloop
  endfacet
  facet normal -0.743145 -0.669131 0
    outer loop
      vertex -24.6353 -8.81678 -7
      vertex -22.537 -11.1472 -7
      vertex -24.6353 -8.81678 7
    endloop
  endfacet
  facet normal -0.743145 -0.669131 0
    outer loop
      vertex -24.6353 -8.81678 7
      vertex -22.537 -11.1472 -7
      vertex -22.537 -11.1472 7
    endloop
  endfacet
  facet normal -0.587785 -0.809017 0
    outer loop
      vertex -22.537 -11.1472 7
      vertex -22.537 -11.1472 -7
      vertex -20 -12.9904 -7
    endloop
  endfacet
  facet normal -0.587785 -0.809017 0
    outer loop
      vertex -20 -12.9904 7
      vertex -22.537 -11.1472 7
      vertex -20 -12.9904 -7
    endloop
  endfacet
  facet normal -0.406737 -0.913545 0
    outer loop
      vertex -20 -12.9904 7
      vertex -20 -12.9904 -7
      vertex -17.1353 -14.2658 -7
    endloop
  endfacet
  facet normal -0.406737 -0.913545 0
    outer loop
      vertex -17.1353 -14.2658 7
      vertex -20 -12.9904 7
      vertex -17.1353 -14.2658 -7
    endloop
  endfacet
  facet normal -0.207911 -0.978148 0
    outer loop
      vertex -17.1353 -14.2658 7
      vertex -17.1353 -14.2658 -7
      vertex -14.0679 -14.9178 -7
    endloop
  endfacet
  facet normal -0.207911 -0.978148 0
    outer loop
      vertex -14.0679 -14.9178 7
      vertex -17.1353 -14.2658 7
      vertex -14.0679 -14.9178 -7
    endloop
  endfacet
  facet normal 0 -1 0
    outer loop
      vertex -14.0679 -14.9178 7
      vertex -14.0679 -14.9178 -7
      vertex -12.5 -14.9178 -7
    endloop
  endfacet
  facet normal 0 -1 0
    outer loop
      vertex -12.5 -14.9178 7
      vertex -14.0679 -14.9178 7
      vertex -12.5 -14.9178 -7
    endloop
  endfacet
  facet normal -1 0 0
    outer loop
      vertex -12.5 -15 -7
      vertex -12.5 -15 7
      vertex -12.5 -14.9178 -7
    endloop
  endfacet
  facet normal -1 0 0
    outer loop
      vertex -12.5 -14.9178 -7
      vertex -12.5 -15 7
      vertex -12.5 -14.9178 7
    endloop
  endfacet
  facet normal 0 -1 0
    outer loop
      vertex -12.5 -15 7
      vertex -12.5 -15 -7
      vertex 12.5 -15 -7
    endloop
  endfacet
  facet normal 0 -1 0
    outer loop
      vertex 12.5 -15 7
      vertex -12.5 -15 7
      vertex 12.5 -15 -7
    endloop
  endfacet
  facet normal 1 0 0
    outer loop
      vertex 12.5 -15 7
      vertex 12.5 -15 -7
      vertex 12.5 -14.9178 -7
    endloop
  endfacet
  facet normal 1 0 0
    outer loop
      vertex 12.5 -14.9178 7
      vertex 12.5 -15 7
      vertex 12.5 -14.9178 -7
    endloop
  endfacet
  facet normal 0 -1 0
    outer loop
      vertex 12.5 -14.9178 7
      vertex 12.5 -14.9178 -7
      vertex 14.0679 -14.9178 -7
    endloop
  endfacet
  facet normal 0 -1 0
    outer loop
      vertex 14.0679 -14.9178 7
      vertex 12.5 -14.9178 7
      vertex 14.0679 -14.9178 -7
    endloop
  endfacet
  facet normal 0.207911 -0.978148 0
    outer loop
      vertex 14.0679 -14.9178 7
      vertex 14.0679 -14.9178 -7
      vertex 17.1353 -14.2658 -7
    endloop
  endfacet
  facet normal 0.207911 -0.978148 0
    outer loop
      vertex 17.1353 -14.2658 7
      vertex 14.0679 -14.9178 7
      vertex 17.1353 -14.2658 -7
    endloop
  endfacet
  facet normal 0.406737 -0.913545 0
    outer loop
      vertex 17.1353 -14.2658 7
      vertex 17.1353 -14.2658 -7
      vertex 20 -12.9904 -7
    endloop
  endfacet
  facet normal 0.406737 -0.913545 0
    outer loop
      vertex 20 -12.9904 7
      vertex 17.1353 -14.2658 7
      vertex 20 -12.9904 -7
    endloop
  endfacet
  facet normal 0.587785 -0.809017 0
    outer loop
      vertex 20 -12.9904 7
      vertex 20 -12.9904 -7
      vertex 22.537 -11.1472 -7
    endloop
  endfacet
  facet normal 0.587785 -0.809017 0
    outer loop
      vertex 22.537 -11.1472 7
      vertex 20 -12.9904 7
      vertex 22.537 -11.1472 -7
    endloop
  endfacet
  facet normal 0.743145 -0.669131 0
    outer loop
      vertex 22.537 -11.1472 7
      vertex 22.537 -11.1472 -7
      vertex 24.6353 -8.81678 -7
    endloop
  endfacet
  facet normal 0.743145 -0.669131 0
    outer loop
      vertex 24.6353 -8.81678 7
      vertex 22.537 -11.1472 7
      vertex 24.6353 -8.81678 -7
    endloop
  endfacet
  facet normal 0.866025 -0.5 0
    outer loop
      vertex 24.6353 -8.81678 7
      vertex 24.6353 -8.81678 -7
      vertex 26.2032 -6.10105 -7
    endloop
  endfacet
  facet normal 0.866025 -0.5 0
    outer loop
      vertex 26.2032 -6.10105 7
      vertex 24.6353 -8.81678 7
      vertex 26.2032 -6.10105 -7
    endloop
  endfacet
  facet normal 0.951057 -0.309017 0
    outer loop
      vertex 26.2032 -6.10105 7
      vertex 26.2032 -6.10105 -7
      vertex 27.1722 -3.11867 -7
    endloop
  endfacet
  facet normal 0.951057 -0.309017 0
    outer loop
      vertex 27.1722 -3.11867 7
      vertex 26.2032 -6.10105 7
      vertex 27.1722 -3.11867 -7
    endloop
  endfacet
  facet normal 0.994522 -0.104528 0
    outer loop
      vertex 27.1722 -3.11867 7
      vertex 27.1722 -3.11867 -7
      vertex 27.5 0 -7
    endloop
  endfacet
  facet normal 0.994522 -0.104528 0
    outer loop
      vertex 27.5 0 7
      vertex 27.1722 -3.11867 7
      vertex 27.5 0 -7
    endloop
  endfacet
  facet normal 0.994522 0.104528 0
    outer loop
      vertex 27.5 0 -7
      vertex 27.1722 3.11867 -7
      vertex 27.1722 3.11867 7
    endloop
  endfacet
  facet normal 0.994522 0.104528 0
    outer loop
      vertex 27.5 0 7
      vertex 27.5 0 -7
      vertex 27.1722 3.11867 7
    endloop
  endfacet
  facet normal 0.951057 0.309017 0
    outer loop
      vertex 27.1722 3.11867 -7
      vertex 26.2032 6.10105 -7
      vertex 26.2032 6.10105 7
    endloop
  endfacet
  facet normal 0.951057 0.309017 0
    outer loop
      vertex 27.1722 3.11867 7
      vertex 27.1722 3.11867 -7
      vertex 26.2032 6.10105 7
    endloop
  endfacet
  facet normal 0.866025 0.5 0
    outer loop
      vertex 26.2032 6.10105 -7
      vertex 24.6353 8.81678 -7
      vertex 24.6353 8.81678 7
    endloop
  endfacet
  facet normal 0.866025 0.5 0
    outer loop
      vertex 26.2032 6.10105 7
      vertex 26.2032 6.10105 -7
      vertex 24.6353 8.81678 7
    endloop
  endfacet
  facet normal 0.743145 0.669131 0
    outer loop
      vertex 24.6353 8.81678 -7
      vertex 22.537 11.1472 -7
      vertex 22.537 11.1472 7
    endloop
  endfacet
  facet normal 0.743145 0.669131 0
    outer loop
      vertex 24.6353 8.81678 7
      vertex 24.6353 8.81678 -7
      vertex 22.537 11.1472 7
    endloop
  endfacet
  facet normal 0.587785 0.809017 0
    outer loop
      vertex 20 12.9904 -7
      vertex 20 12.9904 7
      vertex 22.537 11.1472 -7
    endloop
  endfacet
  facet normal 0.587785 0.809017 0
    outer loop
      vertex 22.537 11.1472 -7
      vertex 20 12.9904 7
      vertex 22.537 11.1472 7
    endloop
  endfacet
  facet normal 0.406737 0.913545 0
    outer loop
      vertex 17.1353 14.2658 -7
      vertex 17.1353 14.2658 7
      vertex 20 12.9904 -7
    endloop
  endfacet
  facet normal 0.406737 0.913545 0
    outer loop
      vertex 20 12.9904 -7
      vertex 17.1353 14.2658 7
      vertex 20 12.9904 7
    endloop
  endfacet
  facet normal 0.207911 0.978148 0
    outer loop
      vertex 14.0679 14.9178 -7
      vertex 14.0679 14.9178 7
      vertex 17.1353 14.2658 -7
    endloop
  endfacet
  facet normal 0.207911 0.978148 0
    outer loop
      vertex 17.1353 14.2658 -7
      vertex 14.0679 14.9178 7
      vertex 17.1353 14.2658 7
    endloop
  endfacet
  facet normal 0 1 0
    outer loop
      vertex 12.5 14.9178 -7
      vertex 12.5 14.9178 7
      vertex 14.0679 14.9178 -7
    endloop
  endfacet
  facet normal 0 1 0
    outer loop
      vertex 14.0679 14.9178 -7
      vertex 12.5 14.9178 7
      vertex 14.0679 14.9178 7
    endloop
  endfacet
  facet normal 1 0 0
    outer loop
      vertex 12.5 15 -4
      vertex 12.5 14.9178 -7
      vertex 12.5 37 -7
    endloop
  endfacet
  facet normal 1 0 0
    outer loop
      vertex 12.5 14.9178 7
      vertex 12.5 14.9178 -7
      vertex 12.5 15 -4
    endloop
  endfacet
  facet normal 1 0 0
    outer loop
      vertex 12.5 15 4
      vertex 12.5 37 4
      vertex 12.5 14.9178 7
    endloop
  endfacet
  facet normal 1 0 0
    outer loop
      vertex 12.5 14.9178 7
      vertex 12.5 15 -4
      vertex 12.5 15 4
    endloop
  endfacet
  facet normal 1 0 0
    outer loop
      vertex 12.5 37 7
      vertex 12.5 14.9178 7
      vertex 12.5 37 4
    endloop
  endfacet
  facet normal 1 0 0
    outer loop
      vertex 12.5 37 -4
      vertex 12.5 15 -4
      vertex 12.5 37 -7
    endloop
  endfacet
  facet normal 0 1 0
    outer loop
      vertex -12.5 37 -7
      vertex -12.5 37 -4
      vertex 12.5 37 -7
    endloop
  endfacet
  facet normal 0 1 0
    outer loop
      vertex 12.5 37 -7
      vertex -12.5 37 -4
      vertex 12.5 37 -4
    endloop
  endfacet
  facet normal -1 0 0
    outer loop
      vertex -12.5 37 -4
      vertex -12.5 37 -7
      vertex -12.5 15 -4
    endloop
  endfacet
  facet normal -1 0 0
    outer loop
      vertex -12.5 37 4
      vertex -12.5 14.9178 7
      vertex -12.5 37 7
    endloop
  endfacet
  facet normal -1 0 0
    outer loop
      vertex -12.5 14.9178 -7
      vertex -12.5 14.9178 7
      vertex -12.5 15 4
    endloop
  endfacet
  facet normal -1 0 0
    outer loop
      vertex -12.5 14.9178 -7
      vertex -12.5 15 4
      vertex -12.5 15 -4
    endloop
  endfacet
  facet normal -1 0 0
    outer loop
      vertex -12.5 14.9178 -7
      vertex -12.5 15 -4
      vertex -12.5 37 -7
    endloop
  endfacet
  facet normal -1 0 0
    outer loop
      vertex -12.5 15 4
      vertex -12.5 14.9178 7
      vertex -12.5 37 4
    endloop
  endfacet
  facet normal 0 1 0
    outer loop
      vertex -14.0679 14.9178 -7
      vertex -14.0679 14.9178 7
      vertex -12.5 14.9178 -7
    endloop
  endfacet
  facet normal 0 1 0
    outer loop
      vertex -12.5 14.9178 -7
      vertex -14.0679 14.9178 7
      vertex -12.5 14.9178 7
    endloop
  endfacet
  facet normal -0.207911 0.978148 0
    outer loop
      vertex -17.1353 14.2658 -7
      vertex -17.1353 14.2658 7
      vertex -14.0679 14.9178 -7
    endloop
  endfacet
  facet normal -0.207911 0.978148 0
    outer loop
      vertex -14.0679 14.9178 -7
      vertex -17.1353 14.2658 7
      vertex -14.0679 14.9178 7
    endloop
  endfacet
  facet normal -0.406737 0.913545 0
    outer loop
      vertex -20 12.9904 -7
      vertex -20 12.9904 7
      vertex -17.1353 14.2658 -7
    endloop
  endfacet
  facet normal -0.406737 0.913545 0
    outer loop
      vertex -17.1353 14.2658 -7
      vertex -20 12.9904 7
      vertex -17.1353 14.2658 7
    endloop
  endfacet
  facet normal -0.587785 0.809017 0
    outer loop
      vertex -22.537 11.1472 -7
      vertex -22.537 11.1472 7
      vertex -20 12.9904 -7
    endloop
  endfacet
  facet normal -0.587785 0.809017 0
    outer loop
      vertex -20 12.9904 -7
      vertex -22.537 11.1472 7
      vertex -20 12.9904 7
    endloop
  endfacet
  facet normal -0.743145 0.669131 0
    outer loop
      vertex -24.6353 8.81678 -7
      vertex -24.6353 8.81678 7
      vertex -22.537 11.1472 -7
    endloop
  endfacet
  facet normal -0.743145 0.669131 0
    outer loop
      vertex -22.537 11.1472 -7
      vertex -24.6353 8.81678 7
      vertex -22.537 11.1472 7
    endloop
  endfacet
  facet normal -0.866025 0.5 0
    outer loop
      vertex -26.2032 6.10105 -7
      vertex -26.2032 6.10105 7
      vertex -24.6353 8.81678 -7
    endloop
  endfacet
  facet normal -0.866025 0.5 0
    outer loop
      vertex -24.6353 8.81678 -7
      vertex -26.2032 6.10105 7
      vertex -24.6353 8.81678 7
    endloop
  endfacet
  facet normal -0.951057 0.309017 0
    outer loop
      vertex -27.1722 3.11867 -7
      vertex -27.1722 3.11867 7
      vertex -26.2032 6.10105 -7
    endloop
  endfacet
  facet normal -0.951057 0.309017 0
    outer loop
      vertex -26.2032 6.10105 -7
      vertex -27.1722 3.11867 7
      vertex -26.2032 6.10105 7
    endloop
  endfacet
  facet normal 0 0 1
    outer loop
      vertex -27.1722 3.11867 7
      vertex -27.5 0 7
      vertex -27.1722 -3.11867 7
    endloop
  endfacet
  facet normal 0 0 1
    outer loop
      vertex -24.6353 -8.81678 7
      vertex -27.1722 3.11867 7
      vertex -26.2032 -6.10105 7
    endloop
  endfacet
  facet normal 0 0 1
    outer loop
      vertex -26.2032 -6.10105 7
      vertex -27.1722 3.11867 7
      vertex -27.1722 -3.11867 7
    endloop
  endfacet
  facet normal 0 0 1
    outer loop
      vertex -22.537 -11.1472 7
      vertex -27.1722 3.11867 7
      vertex -24.6353 -8.81678 7
    endloop
  endfacet
  facet normal 0 0 1
    outer loop
      vertex -20 -12.9904 7
      vertex -27.1722 3.11867 7
      vertex -22.537 -11.1472 7
    endloop
  endfacet
  facet normal 0 0 1
    outer loop
      vertex -17.1353 -14.2658 7
      vertex -27.1722 3.11867 7
      vertex -20 -12.9904 7
    endloop
  endfacet
  facet normal 0 0 1
    outer loop
      vertex -14.0679 -14.9178 7
      vertex -27.1722 3.11867 7
      vertex -17.1353 -14.2658 7
    endloop
  endfacet
  facet normal 0 0 1
    outer loop
      vertex -12.5 -14.9178 7
      vertex -27.1722 3.11867 7
      vertex -14.0679 -14.9178 7
    endloop
  endfacet
  facet normal 0 0 1
    outer loop
      vertex 12.5 -15 7
      vertex -27.1722 3.11867 7
      vertex -12.5 -14.9178 7
    endloop
  endfacet
  facet normal 0 0 1
    outer loop
      vertex 12.5 -15 7
      vertex -12.5 -14.9178 7
      vertex -12.5 -15 7
    endloop
  endfacet
  facet normal 0 0 1
    outer loop
      vertex 12.5 -14.9178 7
      vertex -27.1722 3.11867 7
      vertex 12.5 -15 7
    endloop
  endfacet
  facet normal 0 0 1
    outer loop
      vertex 14.0679 -14.9178 7
      vertex -27.1722 3.11867 7
      vertex 12.5 -14.9178 7
    endloop
  endfacet
  facet normal 0 0 1
    outer loop
      vertex 17.1353 -14.2658 7
      vertex -27.1722 3.11867 7
      vertex 14.0679 -14.9178 7
    endloop
  endfacet
  facet normal 0 0 1
    outer loop
      vertex 20 -12.9904 7
      vertex -27.1722 3.11867 7
      vertex 17.1353 -14.2658 7
    endloop
  endfacet
  facet normal 0 0 1
    outer loop
      vertex 22.537 -11.1472 7
      vertex -27.1722 3.11867 7
      vertex 20 -12.9904 7
    endloop
  endfacet
  facet normal 0 0 1
    outer loop
      vertex 24.6353 -8.81678 7
      vertex -27.1722 3.11867 7
      vertex 22.537 -11.1472 7
    endloop
  endfacet
  facet normal 0 0 1
    outer loop
      vertex 26.2032 -6.10105 7
      vertex -27.1722 3.11867 7
      vertex 24.6353 -8.81678 7
    endloop
  endfacet
  facet normal 0 0 1
    outer loop
      vertex 27.1722 -3.11867 7
      vertex -27.1722 3.11867 7
      vertex 26.2032 -6.10105 7
    endloop
  endfacet
  facet normal 0 0 1
    outer loop
      vertex 27.5 0 7
      vertex -27.1722 3.11867 7
      vertex 27.1722 -3.11867 7
    endloop
  endfacet
  facet normal 0 0 1
    outer loop
      vertex 27.1722 3.11867 7
      vertex -27.1722 3.11867 7
      vertex 27.5 0 7
    endloop
  endfacet
  facet normal 0 0 1
    outer loop
      vertex 26.2032 6.10105 7
      vertex -27.1722 3.11867 7
      vertex 27.1722 3.11867 7
    endloop
  endfacet
  facet normal 0 0 1
    outer loop
      vertex 24.6353 8.81678 7
      vertex -27.1722 3.11867 7
      vertex 26.2032 6.10105 7
    endloop
  endfacet
  facet normal 0 0 1
    outer loop
      vertex 22.537 11.1472 7
      vertex -27.1722 3.11867 7
      vertex 24.6353 8.81678 7
    endloop
  endfacet
  facet normal 0 0 1
    outer loop
      vertex 20 12.9904 7
      vertex -27.1722 3.11867 7
      vertex 22.537 11.1472 7
    endloop
  endfacet
  facet normal 0 0 1
    outer loop
      vertex 17.1353 14.2658 7
      vertex -27.1722 3.11867 7
      vertex 20 12.9904 7
    endloop
  endfacet
  facet normal 0 0 1
    outer loop
      vertex 14.0679 14.9178 7
      vertex -27.1722 3.11867 7
      vertex 17.1353 14.2658 7
    endloop
  endfacet
  facet normal 0 0 1
    outer loop
      vertex 12.5 14.9178 7
      vertex -27.1722 3.11867 7
      vertex 14.0679 14.9178 7
    endloop
  endfacet
  facet normal 0 0 1
    outer loop
      vertex -12.5 14.9178 7
      vertex -27.1722 3.11867 7
      vertex 12.5 14.9178 7
    endloop
  endfacet
  facet normal 0 0 1
    outer loop
      vertex -24.6353 8.81678 7
      vertex -26.2032 6.10105 7
      vertex -27.1722 3.11867 7
    endloop
  endfacet
  facet normal 0 0 1
    outer loop
      vertex 12.5 37 7
      vertex -12.5 14.9178 7
      vertex 12.5 14.9178 7
    endloop
  endfacet
  facet normal 0 0 1
    outer loop
      vertex -17.1353 14.2658 7
      vertex -27.1722 3.11867 7
      vertex -14.0679 14.9178 7
    endloop
  endfacet
  facet normal 0 0 1
    outer loop
      vertex -20 12.9904 7
      vertex -27.1722 3.11867 7
      vertex -17.1353 14.2658 7
    endloop
  endfacet
  facet normal 0 0 1
    outer loop
      vertex -22.537 11.1472 7
      vertex -27.1722 3.11867 7
      vertex -20 12.9904 7
    endloop
  endfacet
  facet normal 0 0 1
    outer loop
      vertex -24.6353 8.81678 7
      vertex -27.1722 3.11867 7
      vertex -22.537 11.1472 7
    endloop
  endfacet
  facet normal 0 0 1
    outer loop
      vertex -12.5 14.9178 7
      vertex -14.0679 14.9178 7
      vertex -27.1722 3.11867 7
    endloop
  endfacet
  facet normal 0 0 1
    outer loop
      vertex -12.5 37 7
      vertex -12.5 14.9178 7
      vertex 12.5 37 7
    endloop
  endfacet
  facet normal 0 1 0
    outer loop
      vertex -12.5 37 4
      vertex -12.5 37 7
      vertex 12.5 37 4
    endloop
  endfacet
  facet normal 0 1 0
    outer loop
      vertex 12.5 37 4
      vertex -12.5 37 7
      vertex 12.5 37 7
    endloop
  endfacet
  facet normal 0 0 -1
    outer loop
      vertex 12.5 37 4
      vertex 12.5 15 4
      vertex -12.5 37 4
    endloop
  endfacet
  facet normal 0 0 -1
    outer loop
      vertex -12.5 37 4
      vertex 12.5 15 4
      vertex -12.5 15 4
    endloop
  endfacet
  facet normal 0 1 0
    outer loop
      vertex 12.5 15 4
      vertex 12.5 15 -4
      vertex -12.5 15 4
    endloop
  endfacet
  facet normal 0 1 0
    outer loop
      vertex -12.5 15 4
      vertex 12.5 15 -4
      vertex -12.5 15 -4
    endloop
  endfacet
  facet normal 0 0 1
    outer loop
      vertex 12.5 15 -4
      vertex 12.5 37 -4
      vertex -12.5 37 -4
    endloop
  endfacet
  facet normal 0 0 1
    outer loop
      vertex -12.5 15 -4
      vertex 12.5 15 -4
      vertex -12.5 37 -4
    endloop
  endfacet
endsolid OpenSCAD_Model
