solid OpenSCAD_Model
  facet normal 0 -1 0
    outer loop
      vertex -14.445 11.3626 -1.5
      vertex -9.85516 11.3626 1.5
      vertex -14.445 11.3626 1.5
    endloop
  endfacet
  facet normal 0 -1 -0
    outer loop
      vertex -9.85516 11.3626 1.5
      vertex -14.445 11.3626 -1.5
      vertex -9.85516 11.3626 -1.5
    endloop
  endfacet
  facet normal 0.5547 -0.83205 0
    outer loop
      vertex -19.2497 8.1595 -1.5
      vertex -14.445 11.3626 1.5
      vertex -19.2497 8.1595 1.5
    endloop
  endfacet
  facet normal 0.5547 -0.83205 0
    outer loop
      vertex -14.445 11.3626 1.5
      vertex -19.2497 8.1595 -1.5
      vertex -14.445 11.3626 -1.5
    endloop
  endfacet
  facet normal 0.791691 0.610922 0
    outer loop
      vertex -16.7282 4.89193 1.5
      vertex -19.2497 8.1595 -1.5
      vertex -19.2497 8.1595 1.5
    endloop
  endfacet
  facet normal 0.791691 0.610922 0
    outer loop
      vertex -19.2497 8.1595 -1.5
      vertex -16.7282 4.89193 1.5
      vertex -16.7282 4.89193 -1.5
    endloop
  endfacet
  facet normal -0.581776 0.813349 0
    outer loop
      vertex -14.4919 6.49154 -1.5
      vertex -16.7282 4.89193 1.5
      vertex -14.4919 6.49154 1.5
    endloop
  endfacet
  facet normal -0.581776 0.813349 0
    outer loop
      vertex -16.7282 4.89193 1.5
      vertex -14.4919 6.49154 -1.5
      vertex -16.7282 4.89193 -1.5
    endloop
  endfacet
  facet normal 0.999996 0.00273192 0
    outer loop
      vertex -14.445 -10.6667 1.5
      vertex -14.4919 6.49154 -1.5
      vertex -14.4919 6.49154 1.5
    endloop
  endfacet
  facet normal 0.999996 0.00273192 0
    outer loop
      vertex -14.4919 6.49154 -1.5
      vertex -14.445 -10.6667 1.5
      vertex -14.445 -10.6667 -1.5
    endloop
  endfacet
  facet normal 0 1 -0
    outer loop
      vertex -9.85516 -10.6667 -1.5
      vertex -14.445 -10.6667 1.5
      vertex -9.85516 -10.6667 1.5
    endloop
  endfacet
  facet normal 0 1 0
    outer loop
      vertex -14.445 -10.6667 1.5
      vertex -9.85516 -10.6667 -1.5
      vertex -14.445 -10.6667 -1.5
    endloop
  endfacet
  facet normal -1 0 0
    outer loop
      vertex -9.85516 -10.6667 -1.5
      vertex -9.85516 11.3626 1.5
      vertex -9.85516 11.3626 -1.5
    endloop
  endfacet
  facet normal -1 -0 0
    outer loop
      vertex -9.85516 11.3626 1.5
      vertex -9.85516 -10.6667 -1.5
      vertex -9.85516 -10.6667 1.5
    endloop
  endfacet
  facet normal -0.996371 0.0851171 0
    outer loop
      vertex -1.73133 6.3724 -1.5
      vertex -1.63172 7.53841 1.5
      vertex -1.63172 7.53841 -1.5
    endloop
  endfacet
  facet normal -0.996371 0.0851171 0
    outer loop
      vertex -1.63172 7.53841 1.5
      vertex -1.73133 6.3724 -1.5
      vertex -1.73133 6.3724 1.5
    endloop
  endfacet
  facet normal -0.938258 0.345936 0
    outer loop
      vertex -1.63172 7.53841 -1.5
      vertex -1.36023 8.27474 1.5
      vertex -1.36023 8.27474 -1.5
    endloop
  endfacet
  facet normal -0.938258 0.345936 0
    outer loop
      vertex -1.36023 8.27474 1.5
      vertex -1.63172 7.53841 -1.5
      vertex -1.63172 7.53841 1.5
    endloop
  endfacet
  facet normal -0.597405 0.80194 0
    outer loop
      vertex -0.586797 8.85091 -1.5
      vertex -1.36023 8.27474 1.5
      vertex -0.586797 8.85091 1.5
    endloop
  endfacet
  facet normal -0.597405 0.80194 0
    outer loop
      vertex -1.36023 8.27474 1.5
      vertex -0.586797 8.85091 -1.5
      vertex -1.36023 8.27474 -1.5
    endloop
  endfacet
  facet normal -1 0 0
    outer loop
      vertex -0.586797 8.85091 -1.5
      vertex -0.586797 11.3021 1.5
      vertex -0.586797 11.3021 -1.5
    endloop
  endfacet
  facet normal -1 -0 0
    outer loop
      vertex -0.586797 11.3021 1.5
      vertex -0.586797 8.85091 -1.5
      vertex -0.586797 8.85091 1.5
    endloop
  endfacet
  facet normal 0.10881 -0.994063 0
    outer loop
      vertex -2.03211 11.1439 -1.5
      vertex -0.586797 11.3021 1.5
      vertex -2.03211 11.1439 1.5
    endloop
  endfacet
  facet normal 0.10881 -0.994063 0
    outer loop
      vertex -0.586797 11.3021 1.5
      vertex -2.03211 11.1439 -1.5
      vertex -0.586797 11.3021 -1.5
    endloop
  endfacet
  facet normal 0.313146 -0.949705 0
    outer loop
      vertex -3.47742 10.6673 -1.5
      vertex -2.03211 11.1439 1.5
      vertex -3.47742 10.6673 1.5
    endloop
  endfacet
  facet normal 0.313146 -0.949705 0
    outer loop
      vertex -2.03211 11.1439 1.5
      vertex -3.47742 10.6673 -1.5
      vertex -2.03211 11.1439 -1.5
    endloop
  endfacet
  facet normal 0.658561 -0.752527 0
    outer loop
      vertex -5.32312 9.05208 -1.5
      vertex -3.47742 10.6673 1.5
      vertex -5.32312 9.05208 1.5
    endloop
  endfacet
  facet normal 0.658561 -0.752527 0
    outer loop
      vertex -3.47742 10.6673 1.5
      vertex -5.32312 9.05208 -1.5
      vertex -3.47742 10.6673 -1.5
    endloop
  endfacet
  facet normal 0.991885 -0.127136 0
    outer loop
      vertex -5.76648 5.5931 1.5
      vertex -5.32312 9.05208 -1.5
      vertex -5.32312 9.05208 1.5
    endloop
  endfacet
  facet normal 0.991885 -0.127136 0
    outer loop
      vertex -5.32312 9.05208 -1.5
      vertex -5.76648 5.5931 1.5
      vertex -5.76648 5.5931 -1.5
    endloop
  endfacet
  facet normal 1 -0 0
    outer loop
      vertex -5.76648 5.38997 1.5
      vertex -5.76648 5.5931 -1.5
      vertex -5.76648 5.5931 1.5
    endloop
  endfacet
  facet normal 1 0 0
    outer loop
      vertex -5.76648 5.5931 -1.5
      vertex -5.76648 5.38997 1.5
      vertex -5.76648 5.38997 -1.5
    endloop
  endfacet
  facet normal 0 1 -0
    outer loop
      vertex -1.73133 5.38997 -1.5
      vertex -5.76648 5.38997 1.5
      vertex -1.73133 5.38997 1.5
    endloop
  endfacet
  facet normal 0 1 0
    outer loop
      vertex -5.76648 5.38997 1.5
      vertex -1.73133 5.38997 -1.5
      vertex -5.76648 5.38997 -1.5
    endloop
  endfacet
  facet normal -1 0 0
    outer loop
      vertex -1.73133 5.38997 -1.5
      vertex -1.73133 6.3724 1.5
      vertex -1.73133 6.3724 -1.5
    endloop
  endfacet
  facet normal -1 -0 0
    outer loop
      vertex -1.73133 6.3724 1.5
      vertex -1.73133 5.38997 -1.5
      vertex -1.73133 5.38997 1.5
    endloop
  endfacet
  facet normal -0.451509 -0.892267 0
    outer loop
      vertex -1.15906 -6.85807 -1.5
      vertex -0.672735 -7.10417 1.5
      vertex -1.15906 -6.85807 1.5
    endloop
  endfacet
  facet normal -0.451509 -0.892267 -0
    outer loop
      vertex -0.672735 -7.10417 1.5
      vertex -1.15906 -6.85807 -1.5
      vertex -0.672735 -7.10417 -1.5
    endloop
  endfacet
  facet normal -0.782015 -0.62326 0
    outer loop
      vertex -1.15906 -6.85807 -1.5
      vertex -1.57313 -6.33854 1.5
      vertex -1.57313 -6.33854 -1.5
    endloop
  endfacet
  facet normal -0.782015 -0.62326 0
    outer loop
      vertex -1.57313 -6.33854 1.5
      vertex -1.15906 -6.85807 -1.5
      vertex -1.15906 -6.85807 1.5
    endloop
  endfacet
  facet normal -0.912103 -0.409961 0
    outer loop
      vertex -1.57313 -6.33854 -1.5
      vertex -1.9032 -5.60417 1.5
      vertex -1.9032 -5.60417 -1.5
    endloop
  endfacet
  facet normal -0.912103 -0.409961 0
    outer loop
      vertex -1.9032 -5.60417 1.5
      vertex -1.57313 -6.33854 -1.5
      vertex -1.57313 -6.33854 1.5
    endloop
  endfacet
  facet normal -0.993551 -0.113384 0
    outer loop
      vertex -1.9032 -5.60417 -1.5
      vertex -2.01844 -4.5944 1.5
      vertex -2.01844 -4.5944 -1.5
    endloop
  endfacet
  facet normal -0.993551 -0.113384 0
    outer loop
      vertex -2.01844 -4.5944 1.5
      vertex -1.9032 -5.60417 -1.5
      vertex -1.9032 -5.60417 1.5
    endloop
  endfacet
  facet normal -0.941262 0.337677 0
    outer loop
      vertex -2.01844 -4.5944 -1.5
      vertex -1.30164 -2.59635 1.5
      vertex -1.30164 -2.59635 -1.5
    endloop
  endfacet
  facet normal -0.941262 0.337677 0
    outer loop
      vertex -1.30164 -2.59635 1.5
      vertex -2.01844 -4.5944 -1.5
      vertex -2.01844 -4.5944 1.5
    endloop
  endfacet
  facet normal -0.600257 0.799807 0
    outer loop
      vertex 1.61828 -0.404948 -1.5
      vertex -1.30164 -2.59635 1.5
      vertex 1.61828 -0.404948 1.5
    endloop
  endfacet
  facet normal -0.600257 0.799807 0
    outer loop
      vertex -1.30164 -2.59635 1.5
      vertex 1.61828 -0.404948 -1.5
      vertex -1.30164 -2.59635 -1.5
    endloop
  endfacet
  facet normal -0.569453 0.822024 0
    outer loop
      vertex 2.99133 0.546224 -1.5
      vertex 1.61828 -0.404948 1.5
      vertex 2.99133 0.546224 1.5
    endloop
  endfacet
  facet normal -0.569453 0.822024 0
    outer loop
      vertex 1.61828 -0.404948 1.5
      vertex 2.99133 0.546224 -1.5
      vertex 1.61828 -0.404948 -1.5
    endloop
  endfacet
  facet normal -0.619429 0.785052 0
    outer loop
      vertex 4.38 1.64193 -1.5
      vertex 2.99133 0.546224 1.5
      vertex 4.38 1.64193 1.5
    endloop
  endfacet
  facet normal -0.619429 0.785052 0
    outer loop
      vertex 2.99133 0.546224 1.5
      vertex 4.38 1.64193 -1.5
      vertex 2.99133 0.546224 -1.5
    endloop
  endfacet
  facet normal -0.833228 0.55293 0
    outer loop
      vertex 4.38 1.64193 -1.5
      vertex 5.36633 3.12826 1.5
      vertex 5.36633 3.12826 -1.5
    endloop
  endfacet
  facet normal -0.833228 0.55293 0
    outer loop
      vertex 5.36633 3.12826 1.5
      vertex 4.38 1.64193 -1.5
      vertex 4.38 1.64193 1.5
    endloop
  endfacet
  facet normal -0.987626 0.156827 0
    outer loop
      vertex 5.36633 3.12826 -1.5
      vertex 5.76672 5.64974 1.5
      vertex 5.76672 5.64974 -1.5
    endloop
  endfacet
  facet normal -0.987626 0.156827 0
    outer loop
      vertex 5.76672 5.64974 1.5
      vertex 5.36633 3.12826 -1.5
      vertex 5.36633 3.12826 1.5
    endloop
  endfacet
  facet normal -0.998495 -0.0548416 0
    outer loop
      vertex 5.76672 5.64974 -1.5
      vertex 5.65344 7.71224 1.5
      vertex 5.65344 7.71224 -1.5
    endloop
  endfacet
  facet normal -0.998495 -0.0548416 0
    outer loop
      vertex 5.65344 7.71224 1.5
      vertex 5.76672 5.64974 -1.5
      vertex 5.76672 5.64974 1.5
    endloop
  endfacet
  facet normal -0.948141 -0.31785 0
    outer loop
      vertex 5.65344 7.71224 -1.5
      vertex 5.19445 9.08138 1.5
      vertex 5.19445 9.08138 -1.5
    endloop
  endfacet
  facet normal -0.948141 -0.31785 0
    outer loop
      vertex 5.19445 9.08138 1.5
      vertex 5.65344 7.71224 -1.5
      vertex 5.65344 7.71224 1.5
    endloop
  endfacet
  facet normal -0.667955 -0.744202 0
    outer loop
      vertex 3.36437 10.724 -1.5
      vertex 5.19445 9.08138 1.5
      vertex 3.36437 10.724 1.5
    endloop
  endfacet
  facet normal -0.667955 -0.744202 -0
    outer loop
      vertex 5.19445 9.08138 1.5
      vertex 3.36437 10.724 -1.5
      vertex 5.19445 9.08138 -1.5
    endloop
  endfacet
  facet normal -0.29208 -0.956394 0
    outer loop
      vertex 1.98937 11.1439 -1.5
      vertex 3.36437 10.724 1.5
      vertex 1.98937 11.1439 1.5
    endloop
  endfacet
  facet normal -0.29208 -0.956394 -0
    outer loop
      vertex 3.36437 10.724 1.5
      vertex 1.98937 11.1439 -1.5
      vertex 3.36437 10.724 -1.5
    endloop
  endfacet
  facet normal -0.0999926 -0.994988 0
    outer loop
      vertex 0.415156 11.3021 -1.5
      vertex 1.98937 11.1439 1.5
      vertex 0.415156 11.3021 1.5
    endloop
  endfacet
  facet normal -0.0999926 -0.994988 -0
    outer loop
      vertex 1.98937 11.1439 1.5
      vertex 0.415156 11.3021 -1.5
      vertex 1.98937 11.1439 -1.5
    endloop
  endfacet
  facet normal 1 -0 0
    outer loop
      vertex 0.415156 8.85091 1.5
      vertex 0.415156 11.3021 -1.5
      vertex 0.415156 11.3021 1.5
    endloop
  endfacet
  facet normal 1 0 0
    outer loop
      vertex 0.415156 11.3021 -1.5
      vertex 0.415156 8.85091 1.5
      vertex 0.415156 8.85091 -1.5
    endloop
  endfacet
  facet normal 0.630721 0.776009 -0
    outer loop
      vertex 1.30187 8.13021 -1.5
      vertex 0.415156 8.85091 1.5
      vertex 1.30187 8.13021 1.5
    endloop
  endfacet
  facet normal 0.630721 0.776009 0
    outer loop
      vertex 0.415156 8.85091 1.5
      vertex 1.30187 8.13021 -1.5
      vertex 0.415156 8.85091 -1.5
    endloop
  endfacet
  facet normal 0.920194 0.391464 0
    outer loop
      vertex 1.60266 7.42318 1.5
      vertex 1.30187 8.13021 -1.5
      vertex 1.30187 8.13021 1.5
    endloop
  endfacet
  facet normal 0.920194 0.391464 0
    outer loop
      vertex 1.30187 8.13021 -1.5
      vertex 1.60266 7.42318 1.5
      vertex 1.60266 7.42318 -1.5
    endloop
  endfacet
  facet normal 0.994505 0.104685 0
    outer loop
      vertex 1.70422 6.45833 1.5
      vertex 1.60266 7.42318 -1.5
      vertex 1.60266 7.42318 1.5
    endloop
  endfacet
  facet normal 0.994505 0.104685 0
    outer loop
      vertex 1.60266 7.42318 -1.5
      vertex 1.70422 6.45833 1.5
      vertex 1.70422 6.45833 -1.5
    endloop
  endfacet
  facet normal 0.982381 -0.186887 0
    outer loop
      vertex 1.33117 4.4974 1.5
      vertex 1.70422 6.45833 -1.5
      vertex 1.70422 6.45833 1.5
    endloop
  endfacet
  facet normal 0.982381 -0.186887 0
    outer loop
      vertex 1.70422 6.45833 -1.5
      vertex 1.33117 4.4974 1.5
      vertex 1.33117 4.4974 -1.5
    endloop
  endfacet
  facet normal 0.717835 -0.696213 0
    outer loop
      vertex 0.702265 3.84896 1.5
      vertex 1.33117 4.4974 -1.5
      vertex 1.33117 4.4974 1.5
    endloop
  endfacet
  facet normal 0.717835 -0.696213 0
    outer loop
      vertex 1.33117 4.4974 -1.5
      vertex 0.702265 3.84896 1.5
      vertex 0.702265 3.84896 -1.5
    endloop
  endfacet
  facet normal 0.543148 -0.839637 0
    outer loop
      vertex -0.614141 2.9974 -1.5
      vertex 0.702265 3.84896 1.5
      vertex -0.614141 2.9974 1.5
    endloop
  endfacet
  facet normal 0.543148 -0.839637 0
    outer loop
      vertex 0.702265 3.84896 1.5
      vertex -0.614141 2.9974 -1.5
      vertex 0.702265 3.84896 -1.5
    endloop
  endfacet
  facet normal 0.663954 -0.747774 0
    outer loop
      vertex -4.15125 -0.143229 -1.5
      vertex -0.614141 2.9974 1.5
      vertex -4.15125 -0.143229 1.5
    endloop
  endfacet
  facet normal 0.663954 -0.747774 0
    outer loop
      vertex -0.614141 2.9974 1.5
      vertex -4.15125 -0.143229 -1.5
      vertex -0.614141 2.9974 -1.5
    endloop
  endfacet
  facet normal 0.951945 -0.30627 0
    outer loop
      vertex -5.55945 -4.52018 1.5
      vertex -4.15125 -0.143229 -1.5
      vertex -4.15125 -0.143229 1.5
    endloop
  endfacet
  facet normal 0.951945 -0.30627 0
    outer loop
      vertex -4.15125 -0.143229 -1.5
      vertex -5.55945 -4.52018 1.5
      vertex -5.55945 -4.52018 -1.5
    endloop
  endfacet
  facet normal 0.989232 -0.146354 0
    outer loop
      vertex -5.9325 -7.04167 1.5
      vertex -5.55945 -4.52018 -1.5
      vertex -5.55945 -4.52018 1.5
    endloop
  endfacet
  facet normal 0.989232 -0.146354 0
    outer loop
      vertex -5.55945 -4.52018 -1.5
      vertex -5.9325 -7.04167 1.5
      vertex -5.9325 -7.04167 -1.5
    endloop
  endfacet
  facet normal 0.999821 -0.018898 0
    outer loop
      vertex -5.995 -10.3483 1.5
      vertex -5.9325 -7.04167 -1.5
      vertex -5.9325 -7.04167 1.5
    endloop
  endfacet
  facet normal 0.999821 -0.018898 0
    outer loop
      vertex -5.9325 -7.04167 -1.5
      vertex -5.995 -10.3483 1.5
      vertex -5.995 -10.3483 -1.5
    endloop
  endfacet
  facet normal 0 1 -0
    outer loop
      vertex -0.672735 -10.3483 -1.5
      vertex -5.995 -10.3483 1.5
      vertex -0.672735 -10.3483 1.5
    endloop
  endfacet
  facet normal 0 1 0
    outer loop
      vertex -5.995 -10.3483 1.5
      vertex -0.672735 -10.3483 -1.5
      vertex -5.995 -10.3483 -1.5
    endloop
  endfacet
  facet normal -1 0 0
    outer loop
      vertex -0.672735 -10.3483 -1.5
      vertex -0.672735 -7.10417 1.5
      vertex -0.672735 -7.10417 -1.5
    endloop
  endfacet
  facet normal -1 -0 0
    outer loop
      vertex -0.672735 -7.10417 1.5
      vertex -0.672735 -10.3483 -1.5
      vertex -0.672735 -10.3483 1.5
    endloop
  endfacet
  facet normal 0 -1 0
    outer loop
      vertex 0.43664 -7.05534 -1.5
      vertex 5.6632 -7.05534 1.5
      vertex 0.43664 -7.05534 1.5
    endloop
  endfacet
  facet normal 0 -1 -0
    outer loop
      vertex 5.6632 -7.05534 1.5
      vertex 0.43664 -7.05534 -1.5
      vertex 5.6632 -7.05534 -1.5
    endloop
  endfacet
  facet normal 1 -0 0
    outer loop
      vertex 0.43664 -10.3483 1.5
      vertex 0.43664 -7.05534 -1.5
      vertex 0.43664 -7.05534 1.5
    endloop
  endfacet
  facet normal 1 0 0
    outer loop
      vertex 0.43664 -7.05534 -1.5
      vertex 0.43664 -10.3483 1.5
      vertex 0.43664 -10.3483 -1.5
    endloop
  endfacet
  facet normal 0 1 -0
    outer loop
      vertex 5.67883 -10.3483 -1.5
      vertex 0.43664 -10.3483 1.5
      vertex 5.67883 -10.3483 1.5
    endloop
  endfacet
  facet normal 0 1 0
    outer loop
      vertex 0.43664 -10.3483 1.5
      vertex 5.67883 -10.3483 -1.5
      vertex 0.43664 -10.3483 -1.5
    endloop
  endfacet
  facet normal -0.999989 -0.0047449 0
    outer loop
      vertex 5.67883 -10.3483 -1.5
      vertex 5.6632 -7.05534 1.5
      vertex 5.6632 -7.05534 -1.5
    endloop
  endfacet
  facet normal -0.999989 -0.0047449 0
    outer loop
      vertex 5.6632 -7.05534 1.5
      vertex 5.67883 -10.3483 -1.5
      vertex 5.67883 -10.3483 1.5
    endloop
  endfacet
  facet normal -0.668922 0.743333 0
    outer loop
      vertex 18.3945 -8.30534 -1.5
      vertex 16.5214 -9.99089 1.5
      vertex 18.3945 -8.30534 1.5
    endloop
  endfacet
  facet normal -0.668922 0.743333 0
    outer loop
      vertex 16.5214 -9.99089 1.5
      vertex 18.3945 -8.30534 -1.5
      vertex 16.5214 -9.99089 -1.5
    endloop
  endfacet
  facet normal -0.956806 0.290727 0
    outer loop
      vertex 18.3945 -8.30534 -1.5
      vertex 18.8105 -6.9362 1.5
      vertex 18.8105 -6.9362 -1.5
    endloop
  endfacet
  facet normal -0.956806 0.290727 0
    outer loop
      vertex 18.8105 -6.9362 1.5
      vertex 18.3945 -8.30534 -1.5
      vertex 18.3945 -8.30534 1.5
    endloop
  endfacet
  facet normal -0.996383 0.0849793 0
    outer loop
      vertex 18.8105 -6.9362 -1.5
      vertex 18.9667 -5.10417 1.5
      vertex 18.9667 -5.10417 -1.5
    endloop
  endfacet
  facet normal -0.996383 0.0849793 0
    outer loop
      vertex 18.9667 -5.10417 1.5
      vertex 18.8105 -6.9362 -1.5
      vertex 18.8105 -6.9362 1.5
    endloop
  endfacet
  facet normal -0.979179 -0.203 0
    outer loop
      vertex 18.9667 -5.10417 -1.5
      vertex 18.037 -0.619792 1.5
      vertex 18.037 -0.619792 -1.5
    endloop
  endfacet
  facet normal -0.979179 -0.203 0
    outer loop
      vertex 18.037 -0.619792 1.5
      vertex 18.9667 -5.10417 -1.5
      vertex 18.9667 -5.10417 1.5
    endloop
  endfacet
  facet normal -0.613963 -0.789334 0
    outer loop
      vertex 13.3866 2.9974 -1.5
      vertex 18.037 -0.619792 1.5
      vertex 13.3866 2.9974 1.5
    endloop
  endfacet
  facet normal -0.613963 -0.789334 -0
    outer loop
      vertex 18.037 -0.619792 1.5
      vertex 13.3866 2.9974 -1.5
      vertex 18.037 -0.619792 -1.5
    endloop
  endfacet
  facet normal -0.543148 -0.839637 0
    outer loop
      vertex 12.0702 3.84896 -1.5
      vertex 13.3866 2.9974 1.5
      vertex 12.0702 3.84896 1.5
    endloop
  endfacet
  facet normal -0.543148 -0.839637 -0
    outer loop
      vertex 13.3866 2.9974 1.5
      vertex 12.0702 3.84896 -1.5
      vertex 13.3866 2.9974 -1.5
    endloop
  endfacet
  facet normal -0.548584 -0.836095 0
    outer loop
      vertex 11.082 4.4974 -1.5
      vertex 12.0702 3.84896 1.5
      vertex 11.082 4.4974 1.5
    endloop
  endfacet
  facet normal -0.548584 -0.836095 -0
    outer loop
      vertex 12.0702 3.84896 1.5
      vertex 11.082 4.4974 -1.5
      vertex 12.0702 3.84896 -1.5
    endloop
  endfacet
  facet normal -0.999197 -0.0400765 0
    outer loop
      vertex 11.082 4.4974 -1.5
      vertex 10.9667 7.37044 1.5
      vertex 10.9667 7.37044 -1.5
    endloop
  endfacet
  facet normal -0.999197 -0.0400765 0
    outer loop
      vertex 10.9667 7.37044 1.5
      vertex 11.082 4.4974 -1.5
      vertex 11.082 4.4974 1.5
    endloop
  endfacet
  facet normal 0 1 -0
    outer loop
      vertex 12.4316 7.37044 -1.5
      vertex 10.9667 7.37044 1.5
      vertex 12.4316 7.37044 1.5
    endloop
  endfacet
  facet normal 0 1 0
    outer loop
      vertex 10.9667 7.37044 1.5
      vertex 12.4316 7.37044 -1.5
      vertex 10.9667 7.37044 -1.5
    endloop
  endfacet
  facet normal -1 0 0
    outer loop
      vertex 12.4316 7.37044 -1.5
      vertex 12.4316 11.3568 1.5
      vertex 12.4316 11.3568 -1.5
    endloop
  endfacet
  facet normal -1 -0 0
    outer loop
      vertex 12.4316 11.3568 1.5
      vertex 12.4316 7.37044 -1.5
      vertex 12.4316 7.37044 1.5
    endloop
  endfacet
  facet normal 0 -1 0
    outer loop
      vertex 7.01555 11.3568 -1.5
      vertex 12.4316 11.3568 1.5
      vertex 7.01555 11.3568 1.5
    endloop
  endfacet
  facet normal 0 -1 -0
    outer loop
      vertex 12.4316 11.3568 1.5
      vertex 7.01555 11.3568 -1.5
      vertex 12.4316 11.3568 -1.5
    endloop
  endfacet
  facet normal 1 -0 0
    outer loop
      vertex 7.01555 7.37044 1.5
      vertex 7.01555 11.3568 -1.5
      vertex 7.01555 11.3568 1.5
    endloop
  endfacet
  facet normal 1 0 0
    outer loop
      vertex 7.01555 11.3568 -1.5
      vertex 7.01555 7.37044 1.5
      vertex 7.01555 7.37044 -1.5
    endloop
  endfacet
  facet normal 0.999977 -0.00681028 0
    outer loop
      vertex 7.00383 5.64974 1.5
      vertex 7.01555 7.37044 -1.5
      vertex 7.01555 7.37044 1.5
    endloop
  endfacet
  facet normal 0.999977 -0.00681028 0
    outer loop
      vertex 7.01555 7.37044 -1.5
      vertex 7.00383 5.64974 1.5
      vertex 7.00383 5.64974 -1.5
    endloop
  endfacet
  facet normal 0.999989 0.00464751 0
    outer loop
      vertex 7.01555 3.12826 1.5
      vertex 7.00383 5.64974 -1.5
      vertex 7.00383 5.64974 1.5
    endloop
  endfacet
  facet normal 0.999989 0.00464751 0
    outer loop
      vertex 7.00383 5.64974 -1.5
      vertex 7.01555 3.12826 1.5
      vertex 7.01555 3.12826 -1.5
    endloop
  endfacet
  facet normal 0.733583 0.6796 0
    outer loop
      vertex 8.3925 1.64193 1.5
      vertex 7.01555 3.12826 -1.5
      vertex 7.01555 3.12826 1.5
    endloop
  endfacet
  facet normal 0.733583 0.6796 0
    outer loop
      vertex 7.01555 3.12826 -1.5
      vertex 8.3925 1.64193 1.5
      vertex 8.3925 1.64193 -1.5
    endloop
  endfacet
  facet normal 0.619967 0.784628 -0
    outer loop
      vertex 9.77922 0.546224 -1.5
      vertex 8.3925 1.64193 1.5
      vertex 9.77922 0.546224 1.5
    endloop
  endfacet
  facet normal 0.619967 0.784628 0
    outer loop
      vertex 8.3925 1.64193 1.5
      vertex 9.77922 0.546224 -1.5
      vertex 8.3925 1.64193 -1.5
    endloop
  endfacet
  facet normal 0.568906 0.822402 -0
    outer loop
      vertex 11.1542 -0.404948 -1.5
      vertex 9.77922 0.546224 1.5
      vertex 11.1542 -0.404948 1.5
    endloop
  endfacet
  facet normal 0.568906 0.822402 0
    outer loop
      vertex 9.77922 0.546224 1.5
      vertex 11.1542 -0.404948 -1.5
      vertex 9.77922 0.546224 -1.5
    endloop
  endfacet
  facet normal 0.600257 0.799807 -0
    outer loop
      vertex 14.0741 -2.59635 -1.5
      vertex 11.1542 -0.404948 1.5
      vertex 14.0741 -2.59635 1.5
    endloop
  endfacet
  facet normal 0.600257 0.799807 0
    outer loop
      vertex 11.1542 -0.404948 1.5
      vertex 14.0741 -2.59635 -1.5
      vertex 11.1542 -0.404948 -1.5
    endloop
  endfacet
  facet normal 0.974638 0.223788 0
    outer loop
      vertex 14.789 -5.70964 1.5
      vertex 14.0741 -2.59635 -1.5
      vertex 14.0741 -2.59635 1.5
    endloop
  endfacet
  facet normal 0.974638 0.223788 0
    outer loop
      vertex 14.0741 -2.59635 -1.5
      vertex 14.789 -5.70964 1.5
      vertex 14.789 -5.70964 -1.5
    endloop
  endfacet
  facet normal 0.993551 -0.113384 0
    outer loop
      vertex 14.6737 -6.7194 1.5
      vertex 14.789 -5.70964 -1.5
      vertex 14.789 -5.70964 1.5
    endloop
  endfacet
  facet normal 0.993551 -0.113384 0
    outer loop
      vertex 14.789 -5.70964 -1.5
      vertex 14.6737 -6.7194 1.5
      vertex 14.6737 -6.7194 -1.5
    endloop
  endfacet
  facet normal 0.913009 -0.40794 0
    outer loop
      vertex 14.3456 -7.45378 1.5
      vertex 14.6737 -6.7194 -1.5
      vertex 14.6737 -6.7194 1.5
    endloop
  endfacet
  facet normal 0.913009 -0.40794 0
    outer loop
      vertex 14.6737 -6.7194 -1.5
      vertex 14.3456 -7.45378 1.5
      vertex 14.3456 -7.45378 -1.5
    endloop
  endfacet
  facet normal 0.780582 -0.625053 0
    outer loop
      vertex 13.9296 -7.97331 1.5
      vertex 14.3456 -7.45378 -1.5
      vertex 14.3456 -7.45378 1.5
    endloop
  endfacet
  facet normal 0.780582 -0.625053 0
    outer loop
      vertex 14.3456 -7.45378 -1.5
      vertex 13.9296 -7.97331 1.5
      vertex 13.9296 -7.97331 -1.5
    endloop
  endfacet
  facet normal 0.448649 -0.893708 0
    outer loop
      vertex 13.4433 -8.21745 -1.5
      vertex 13.9296 -7.97331 1.5
      vertex 13.4433 -8.21745 1.5
    endloop
  endfacet
  facet normal 0.448649 -0.893708 0
    outer loop
      vertex 13.9296 -7.97331 1.5
      vertex 13.4433 -8.21745 -1.5
      vertex 13.9296 -7.97331 -1.5
    endloop
  endfacet
  facet normal 1 -0 0
    outer loop
      vertex 13.4433 -10.6686 1.5
      vertex 13.4433 -8.21745 -1.5
      vertex 13.4433 -8.21745 1.5
    endloop
  endfacet
  facet normal 1 0 0
    outer loop
      vertex 13.4433 -8.21745 -1.5
      vertex 13.4433 -10.6686 1.5
      vertex 13.4433 -10.6686 -1.5
    endloop
  endfacet
  facet normal -0.215027 0.976608 0
    outer loop
      vertex 16.5214 -9.99089 -1.5
      vertex 13.4433 -10.6686 1.5
      vertex 16.5214 -9.99089 1.5
    endloop
  endfacet
  facet normal -0.215027 0.976608 0
    outer loop
      vertex 13.4433 -10.6686 1.5
      vertex 16.5214 -9.99089 -1.5
      vertex 13.4433 -10.6686 -1.5
    endloop
  endfacet
  facet normal 0 -1 0
    outer loop
      vertex 13.6054 11.3568 -1.5
      vertex 18.6386 11.3568 1.5
      vertex 13.6054 11.3568 1.5
    endloop
  endfacet
  facet normal 0 -1 -0
    outer loop
      vertex 18.6386 11.3568 1.5
      vertex 13.6054 11.3568 -1.5
      vertex 18.6386 11.3568 -1.5
    endloop
  endfacet
  facet normal 1 -0 0
    outer loop
      vertex 13.6054 7.37044 1.5
      vertex 13.6054 11.3568 -1.5
      vertex 13.6054 11.3568 1.5
    endloop
  endfacet
  facet normal 1 0 0
    outer loop
      vertex 13.6054 11.3568 -1.5
      vertex 13.6054 7.37044 1.5
      vertex 13.6054 7.37044 -1.5
    endloop
  endfacet
  facet normal 0 1 -0
    outer loop
      vertex 18.6386 7.37044 -1.5
      vertex 13.6054 7.37044 1.5
      vertex 18.6386 7.37044 1.5
    endloop
  endfacet
  facet normal 0 1 0
    outer loop
      vertex 13.6054 7.37044 1.5
      vertex 18.6386 7.37044 -1.5
      vertex 13.6054 7.37044 -1.5
    endloop
  endfacet
  facet normal -1 0 0
    outer loop
      vertex 18.6386 7.37044 -1.5
      vertex 18.6386 11.3568 1.5
      vertex 18.6386 11.3568 -1.5
    endloop
  endfacet
  facet normal -1 -0 0
    outer loop
      vertex 18.6386 11.3568 1.5
      vertex 18.6386 7.37044 -1.5
      vertex 18.6386 7.37044 1.5
    endloop
  endfacet
  facet normal -0.363346 -0.931654 0
    outer loop
      vertex 11.8554 -7.98893 -1.5
      vertex 12.4413 -8.21745 1.5
      vertex 11.8554 -7.98893 1.5
    endloop
  endfacet
  facet normal -0.363346 -0.931654 -0
    outer loop
      vertex 12.4413 -8.21745 1.5
      vertex 11.8554 -7.98893 -1.5
      vertex 12.4413 -8.21745 -1.5
    endloop
  endfacet
  facet normal -0.767946 -0.640514 0
    outer loop
      vertex 11.8554 -7.98893 -1.5
      vertex 11.4823 -7.54167 1.5
      vertex 11.4823 -7.54167 -1.5
    endloop
  endfacet
  facet normal -0.767946 -0.640514 0
    outer loop
      vertex 11.4823 -7.54167 1.5
      vertex 11.8554 -7.98893 -1.5
      vertex 11.8554 -7.98893 1.5
    endloop
  endfacet
  facet normal -0.953214 -0.302298 0
    outer loop
      vertex 11.4823 -7.54167 -1.5
      vertex 11.2402 -6.77799 1.5
      vertex 11.2402 -6.77799 -1.5
    endloop
  endfacet
  facet normal -0.953214 -0.302298 0
    outer loop
      vertex 11.2402 -6.77799 1.5
      vertex 11.4823 -7.54167 -1.5
      vertex 11.4823 -7.54167 1.5
    endloop
  endfacet
  facet normal -0.997615 -0.0690174 0
    outer loop
      vertex 11.2402 -6.77799 -1.5
      vertex 11.1542 -5.53581 1.5
      vertex 11.1542 -5.53581 -1.5
    endloop
  endfacet
  facet normal -0.997615 -0.0690174 0
    outer loop
      vertex 11.1542 -5.53581 1.5
      vertex 11.2402 -6.77799 -1.5
      vertex 11.2402 -6.77799 1.5
    endloop
  endfacet
  facet normal -1 0 0
    outer loop
      vertex 11.1542 -5.53581 -1.5
      vertex 11.1542 -3.48893 1.5
      vertex 11.1542 -3.48893 -1.5
    endloop
  endfacet
  facet normal -1 -0 0
    outer loop
      vertex 11.1542 -3.48893 1.5
      vertex 11.1542 -5.53581 -1.5
      vertex 11.1542 -5.53581 1.5
    endloop
  endfacet
  facet normal 0 -1 0
    outer loop
      vertex 7.11711 -3.48893 -1.5
      vertex 11.1542 -3.48893 1.5
      vertex 7.11711 -3.48893 1.5
    endloop
  endfacet
  facet normal 0 -1 -0
    outer loop
      vertex 11.1542 -3.48893 1.5
      vertex 7.11711 -3.48893 -1.5
      vertex 11.1542 -3.48893 -1.5
    endloop
  endfacet
  facet normal 1 -0 0
    outer loop
      vertex 7.11711 -4.26823 1.5
      vertex 7.11711 -3.48893 -1.5
      vertex 7.11711 -3.48893 1.5
    endloop
  endfacet
  facet normal 1 0 0
    outer loop
      vertex 7.11711 -3.48893 -1.5
      vertex 7.11711 -4.26823 1.5
      vertex 7.11711 -4.26823 -1.5
    endloop
  endfacet
  facet normal 0.992358 0.123388 0
    outer loop
      vertex 7.57609 -7.95964 1.5
      vertex 7.11711 -4.26823 -1.5
      vertex 7.11711 -4.26823 1.5
    endloop
  endfacet
  facet normal 0.992358 0.123388 0
    outer loop
      vertex 7.11711 -4.26823 -1.5
      vertex 7.57609 -7.95964 1.5
      vertex 7.57609 -7.95964 -1.5
    endloop
  endfacet
  facet normal 0.71477 0.699359 0
    outer loop
      vertex 9.43742 -9.86198 1.5
      vertex 7.57609 -7.95964 -1.5
      vertex 7.57609 -7.95964 1.5
    endloop
  endfacet
  facet normal 0.71477 0.699359 0
    outer loop
      vertex 7.57609 -7.95964 -1.5
      vertex 9.43742 -9.86198 1.5
      vertex 9.43742 -9.86198 -1.5
    endloop
  endfacet
  facet normal 0.372875 0.927881 -0
    outer loop
      vertex 10.9101 -10.4538 -1.5
      vertex 9.43742 -9.86198 1.5
      vertex 10.9101 -10.4538 1.5
    endloop
  endfacet
  facet normal 0.372875 0.927881 0
    outer loop
      vertex 9.43742 -9.86198 1.5
      vertex 10.9101 -10.4538 -1.5
      vertex 9.43742 -9.86198 -1.5
    endloop
  endfacet
  facet normal 0.138945 0.9903 -0
    outer loop
      vertex 12.4413 -10.6686 -1.5
      vertex 10.9101 -10.4538 1.5
      vertex 12.4413 -10.6686 1.5
    endloop
  endfacet
  facet normal 0.138945 0.9903 0
    outer loop
      vertex 10.9101 -10.4538 1.5
      vertex 12.4413 -10.6686 -1.5
      vertex 10.9101 -10.4538 -1.5
    endloop
  endfacet
  facet normal -1 0 0
    outer loop
      vertex 12.4413 -10.6686 -1.5
      vertex 12.4413 -8.21745 1.5
      vertex 12.4413 -8.21745 -1.5
    endloop
  endfacet
  facet normal -1 -0 0
    outer loop
      vertex 12.4413 -8.21745 1.5
      vertex 12.4413 -10.6686 -1.5
      vertex 12.4413 -10.6686 1.5
    endloop
  endfacet
  facet normal 0.829396 0.558661 0
    outer loop
      vertex 31.9741 12.2021 1.5
      vertex 28.3156 17.6336 -1.5
      vertex 28.3156 17.6336 1.5
    endloop
  endfacet
  facet normal 0.829396 0.558661 0
    outer loop
      vertex 28.3156 17.6336 -1.5
      vertex 31.9741 12.2021 1.5
      vertex 31.9741 12.2021 -1.5
    endloop
  endfacet
  facet normal 0.689493 0.724292 -0
    outer loop
      vertex 28.3156 17.6336 -1.5
      vertex 23.4196 22.2943 1.5
      vertex 28.3156 17.6336 1.5
    endloop
  endfacet
  facet normal 0.689493 0.724292 0
    outer loop
      vertex 23.4196 22.2943 1.5
      vertex 28.3156 17.6336 -1.5
      vertex 23.4196 22.2943 -1.5
    endloop
  endfacet
  facet normal -0.356544 0.934279 0
    outer loop
      vertex -10.8156 28.5317 -1.5
      vertex -17.5 25.9808 1.5
      vertex -10.8156 28.5317 1.5
    endloop
  endfacet
  facet normal -0.356544 0.934279 0
    outer loop
      vertex -17.5 25.9808 1.5
      vertex -10.8156 28.5317 -1.5
      vertex -17.5 25.9808 -1.5
    endloop
  endfacet
  facet normal -0.935071 0.35446 0
    outer loop
      vertex -33.7565 7.5 -1.5
      vertex -31.9741 12.2021 1.5
      vertex -31.9741 12.2021 -1.5
    endloop
  endfacet
  facet normal -0.935071 0.35446 0
    outer loop
      vertex -31.9741 12.2021 1.5
      vertex -33.7565 7.5 -1.5
      vertex -33.7565 7.5 1.5
    endloop
  endfacet
  facet normal 0.992566 -0.12171 0
    outer loop
      vertex 34.2352 -6.23735 1.5
      vertex 35 0 -1.5
      vertex 35 0 1.5
    endloop
  endfacet
  facet normal 0.992566 -0.12171 0
    outer loop
      vertex 35 0 -1.5
      vertex 34.2352 -6.23735 1.5
      vertex 34.2352 -6.23735 -1.5
    endloop
  endfacet
  facet normal 0.935071 0.35446 0
    outer loop
      vertex 34.2352 6.23735 1.5
      vertex 31.9741 12.2021 -1.5
      vertex 31.9741 12.2021 1.5
    endloop
  endfacet
  facet normal 0.935071 0.35446 0
    outer loop
      vertex 31.9741 12.2021 -1.5
      vertex 34.2352 6.23735 1.5
      vertex 34.2352 6.23735 -1.5
    endloop
  endfacet
  facet normal 0.528625 0.848855 -0
    outer loop
      vertex 23.4196 22.2943 -1.5
      vertex 17.5 25.9808 1.5
      vertex 23.4196 22.2943 1.5
    endloop
  endfacet
  facet normal 0.528625 0.848855 0
    outer loop
      vertex 17.5 25.9808 1.5
      vertex 23.4196 22.2943 -1.5
      vertex 17.5 25.9808 -1.5
    endloop
  endfacet
  facet normal 0 1 -0
    outer loop
      vertex 3.6585 29.8357 -1.5
      vertex -3.6585 29.8357 1.5
      vertex 3.6585 29.8357 1.5
    endloop
  endfacet
  facet normal 0 1 0
    outer loop
      vertex -3.6585 29.8357 1.5
      vertex 3.6585 29.8357 -1.5
      vertex -3.6585 29.8357 -1.5
    endloop
  endfacet
  facet normal 0.356544 0.934279 -0
    outer loop
      vertex 17.5 25.9808 -1.5
      vertex 10.8156 28.5317 1.5
      vertex 17.5 25.9808 1.5
    endloop
  endfacet
  facet normal 0.356544 0.934279 0
    outer loop
      vertex 10.8156 28.5317 1.5
      vertex 17.5 25.9808 -1.5
      vertex 10.8156 28.5317 -1.5
    endloop
  endfacet
  facet normal 0 0 1
    outer loop
      vertex 7.57609 -7.95964 1.5
      vertex 5.6632 -7.05534 1.5
      vertex 5.67883 -10.3483 1.5
    endloop
  endfacet
  facet normal 0 0 1
    outer loop
      vertex 8.3925 1.64193 1.5
      vertex 4.38 1.64193 1.5
      vertex 7.11711 -3.48893 1.5
    endloop
  endfacet
  facet normal -0 0 1
    outer loop
      vertex 2.99133 0.546224 1.5
      vertex 7.11711 -3.48893 1.5
      vertex 4.38 1.64193 1.5
    endloop
  endfacet
  facet normal -0 0 1
    outer loop
      vertex 1.61828 -0.404948 1.5
      vertex 7.11711 -3.48893 1.5
      vertex 2.99133 0.546224 1.5
    endloop
  endfacet
  facet normal 0 0 1
    outer loop
      vertex 7.11711 -3.48893 1.5
      vertex 1.61828 -0.404948 1.5
      vertex 5.6632 -7.05534 1.5
    endloop
  endfacet
  facet normal 0 0 1
    outer loop
      vertex 1.61828 -0.404948 1.5
      vertex 0.43664 -7.05534 1.5
      vertex 5.6632 -7.05534 1.5
    endloop
  endfacet
  facet normal 0 0 1
    outer loop
      vertex 0.43664 -7.05534 1.5
      vertex -0.672735 -7.10417 1.5
      vertex 0.43664 -10.3483 1.5
    endloop
  endfacet
  facet normal -0 0 1
    outer loop
      vertex -1.30164 -2.59635 1.5
      vertex 0.43664 -7.05534 1.5
      vertex 1.61828 -0.404948 1.5
    endloop
  endfacet
  facet normal -0 0 1
    outer loop
      vertex -2.01844 -4.5944 1.5
      vertex 0.43664 -7.05534 1.5
      vertex -1.30164 -2.59635 1.5
    endloop
  endfacet
  facet normal -0 -0 1
    outer loop
      vertex -1.9032 -5.60417 1.5
      vertex 0.43664 -7.05534 1.5
      vertex -2.01844 -4.5944 1.5
    endloop
  endfacet
  facet normal -0 -0 1
    outer loop
      vertex -1.57313 -6.33854 1.5
      vertex 0.43664 -7.05534 1.5
      vertex -1.9032 -5.60417 1.5
    endloop
  endfacet
  facet normal 0 0 1
    outer loop
      vertex -0.672735 -7.10417 1.5
      vertex -1.57313 -6.33854 1.5
      vertex -1.15906 -6.85807 1.5
    endloop
  endfacet
  facet normal 0 0 1
    outer loop
      vertex 0.43664 -7.05534 1.5
      vertex -1.57313 -6.33854 1.5
      vertex -0.672735 -7.10417 1.5
    endloop
  endfacet
  facet normal 0 0 1
    outer loop
      vertex -1.73133 6.3724 1.5
      vertex 1.70422 6.45833 1.5
      vertex 1.60266 7.42318 1.5
    endloop
  endfacet
  facet normal -0 0 1
    outer loop
      vertex -1.63172 7.53841 1.5
      vertex 1.60266 7.42318 1.5
      vertex 1.30187 8.13021 1.5
    endloop
  endfacet
  facet normal 0 0 1
    outer loop
      vertex -1.73133 5.38997 1.5
      vertex 1.70422 6.45833 1.5
      vertex -1.73133 6.3724 1.5
    endloop
  endfacet
  facet normal 0 0 1
    outer loop
      vertex -1.63172 7.53841 1.5
      vertex 1.30187 8.13021 1.5
      vertex 0.415156 8.85091 1.5
    endloop
  endfacet
  facet normal 0 0 1
    outer loop
      vertex -0.586797 8.85091 1.5
      vertex 0.415156 8.85091 1.5
      vertex -0.586797 11.3021 1.5
    endloop
  endfacet
  facet normal 0 0 1
    outer loop
      vertex -1.63172 7.53841 1.5
      vertex 0.415156 8.85091 1.5
      vertex -0.586797 8.85091 1.5
    endloop
  endfacet
  facet normal 0 0 1
    outer loop
      vertex 1.70422 6.45833 1.5
      vertex -1.73133 5.38997 1.5
      vertex 1.33117 4.4974 1.5
    endloop
  endfacet
  facet normal 0 0 1
    outer loop
      vertex -1.63172 7.53841 1.5
      vertex -0.586797 8.85091 1.5
      vertex -1.36023 8.27474 1.5
    endloop
  endfacet
  facet normal 0 0 1
    outer loop
      vertex 1.60266 7.42318 1.5
      vertex -1.63172 7.53841 1.5
      vertex -1.73133 6.3724 1.5
    endloop
  endfacet
  facet normal 0 0 1
    outer loop
      vertex 1.33117 4.4974 1.5
      vertex -1.73133 5.38997 1.5
      vertex 0.702265 3.84896 1.5
    endloop
  endfacet
  facet normal 0 0 1
    outer loop
      vertex 0.702265 3.84896 1.5
      vertex -1.73133 5.38997 1.5
      vertex -0.614141 2.9974 1.5
    endloop
  endfacet
  facet normal 0 0 1
    outer loop
      vertex -1.73133 5.38997 1.5
      vertex -4.15125 -0.143229 1.5
      vertex -0.614141 2.9974 1.5
    endloop
  endfacet
  facet normal -0 0 1
    outer loop
      vertex -5.76648 5.38997 1.5
      vertex -4.15125 -0.143229 1.5
      vertex -1.73133 5.38997 1.5
    endloop
  endfacet
  facet normal 0 0 1
    outer loop
      vertex -5.76648 5.38997 1.5
      vertex -5.55945 -4.52018 1.5
      vertex -4.15125 -0.143229 1.5
    endloop
  endfacet
  facet normal 0 0 1
    outer loop
      vertex -9.85516 -10.6667 1.5
      vertex -5.55945 -4.52018 1.5
      vertex -5.76648 5.38997 1.5
    endloop
  endfacet
  facet normal 0 0 1
    outer loop
      vertex 7.11711 -3.48893 1.5
      vertex 11.1542 -0.404948 1.5
      vertex 9.77922 0.546224 1.5
    endloop
  endfacet
  facet normal 0 0 1
    outer loop
      vertex 7.11711 -3.48893 1.5
      vertex 9.77922 0.546224 1.5
      vertex 8.3925 1.64193 1.5
    endloop
  endfacet
  facet normal 0 0 1
    outer loop
      vertex 11.1542 -0.404948 1.5
      vertex 7.11711 -3.48893 1.5
      vertex 11.1542 -3.48893 1.5
    endloop
  endfacet
  facet normal 0 0 1
    outer loop
      vertex 5.36633 3.12826 1.5
      vertex 7.01555 3.12826 1.5
      vertex 5.76672 5.64974 1.5
    endloop
  endfacet
  facet normal 0 0 1
    outer loop
      vertex 4.38 1.64193 1.5
      vertex 7.01555 3.12826 1.5
      vertex 5.36633 3.12826 1.5
    endloop
  endfacet
  facet normal 0 0 1
    outer loop
      vertex 11.1542 -5.53581 1.5
      vertex 14.6737 -6.7194 1.5
      vertex 14.789 -5.70964 1.5
    endloop
  endfacet
  facet normal -0 0 1
    outer loop
      vertex 11.1542 -3.48893 1.5
      vertex 14.789 -5.70964 1.5
      vertex 14.0741 -2.59635 1.5
    endloop
  endfacet
  facet normal 0 0 1
    outer loop
      vertex 14.6737 -6.7194 1.5
      vertex 11.1542 -5.53581 1.5
      vertex 11.2402 -6.77799 1.5
    endloop
  endfacet
  facet normal 0 0 1
    outer loop
      vertex 14.6737 -6.7194 1.5
      vertex 11.2402 -6.77799 1.5
      vertex 14.3456 -7.45378 1.5
    endloop
  endfacet
  facet normal 0 0 1
    outer loop
      vertex 13.4433 -8.21745 1.5
      vertex 12.4413 -8.21745 1.5
      vertex 13.4433 -10.6686 1.5
    endloop
  endfacet
  facet normal 0 -0 1
    outer loop
      vertex 12.4413 -8.21745 1.5
      vertex 14.3456 -7.45378 1.5
      vertex 11.2402 -6.77799 1.5
    endloop
  endfacet
  facet normal 0 0 1
    outer loop
      vertex 14.3456 -7.45378 1.5
      vertex 13.4433 -8.21745 1.5
      vertex 13.9296 -7.97331 1.5
    endloop
  endfacet
  facet normal -0 -0 1
    outer loop
      vertex 11.4823 -7.54167 1.5
      vertex 12.4413 -8.21745 1.5
      vertex 11.2402 -6.77799 1.5
    endloop
  endfacet
  facet normal 0 0 1
    outer loop
      vertex 12.4413 -8.21745 1.5
      vertex 11.4823 -7.54167 1.5
      vertex 11.8554 -7.98893 1.5
    endloop
  endfacet
  facet normal 0 0 1
    outer loop
      vertex 11.1542 -3.48893 1.5
      vertex 14.0741 -2.59635 1.5
      vertex 11.1542 -0.404948 1.5
    endloop
  endfacet
  facet normal 0 0 1
    outer loop
      vertex 14.789 -5.70964 1.5
      vertex 11.1542 -3.48893 1.5
      vertex 11.1542 -5.53581 1.5
    endloop
  endfacet
  facet normal 0 0 1
    outer loop
      vertex 14.3456 -7.45378 1.5
      vertex 12.4413 -8.21745 1.5
      vertex 13.4433 -8.21745 1.5
    endloop
  endfacet
  facet normal 0 0 1
    outer loop
      vertex 18.037 -0.619792 1.5
      vertex 35 0 1.5
      vertex 34.2352 6.23735 1.5
    endloop
  endfacet
  facet normal -0 0 1
    outer loop
      vertex 18.6386 7.37044 1.5
      vertex 34.2352 6.23735 1.5
      vertex 31.9741 12.2021 1.5
    endloop
  endfacet
  facet normal 0 -0 1
    outer loop
      vertex 18.9667 -5.10417 1.5
      vertex 35 0 1.5
      vertex 18.037 -0.619792 1.5
    endloop
  endfacet
  facet normal 0 0 1
    outer loop
      vertex 18.6386 11.3568 1.5
      vertex 31.9741 12.2021 1.5
      vertex 28.3156 17.6336 1.5
    endloop
  endfacet
  facet normal 0 0 1
    outer loop
      vertex 34.2352 6.23735 1.5
      vertex 18.6386 7.37044 1.5
      vertex 18.037 -0.619792 1.5
    endloop
  endfacet
  facet normal 0 0 1
    outer loop
      vertex 18.6386 11.3568 1.5
      vertex 28.3156 17.6336 1.5
      vertex 23.4196 22.2943 1.5
    endloop
  endfacet
  facet normal 0 0 1
    outer loop
      vertex 35 0 1.5
      vertex 18.9667 -5.10417 1.5
      vertex 34.2352 -6.23735 1.5
    endloop
  endfacet
  facet normal -0 0 1
    outer loop
      vertex 18.3945 -8.30534 1.5
      vertex 31.9741 -12.2021 1.5
      vertex 18.8105 -6.9362 1.5
    endloop
  endfacet
  facet normal 0 0 1
    outer loop
      vertex 31.9741 12.2021 1.5
      vertex 18.6386 11.3568 1.5
      vertex 18.6386 7.37044 1.5
    endloop
  endfacet
  facet normal 0 0 1
    outer loop
      vertex 17.5 25.9808 1.5
      vertex 18.6386 11.3568 1.5
      vertex 23.4196 22.2943 1.5
    endloop
  endfacet
  facet normal 0 0 1
    outer loop
      vertex 17.5 25.9808 1.5
      vertex 13.6054 11.3568 1.5
      vertex 18.6386 11.3568 1.5
    endloop
  endfacet
  facet normal 0 0 1
    outer loop
      vertex 12.4316 7.37044 1.5
      vertex 13.6054 7.37044 1.5
      vertex 13.6054 11.3568 1.5
    endloop
  endfacet
  facet normal 0 0 1
    outer loop
      vertex 12.4316 7.37044 1.5
      vertex 13.6054 11.3568 1.5
      vertex 12.4316 11.3568 1.5
    endloop
  endfacet
  facet normal 0 0 1
    outer loop
      vertex 17.5 25.9808 1.5
      vertex 12.4316 11.3568 1.5
      vertex 13.6054 11.3568 1.5
    endloop
  endfacet
  facet normal 0 0 1
    outer loop
      vertex 10.8156 28.5317 1.5
      vertex 12.4316 11.3568 1.5
      vertex 17.5 25.9808 1.5
    endloop
  endfacet
  facet normal 0 0 1
    outer loop
      vertex 10.8156 28.5317 1.5
      vertex 7.01555 11.3568 1.5
      vertex 12.4316 11.3568 1.5
    endloop
  endfacet
  facet normal -0 0 1
    outer loop
      vertex 5.19445 9.08138 1.5
      vertex 7.01555 7.37044 1.5
      vertex 7.01555 11.3568 1.5
    endloop
  endfacet
  facet normal 0 -0 1
    outer loop
      vertex 5.76672 5.64974 1.5
      vertex 7.01555 7.37044 1.5
      vertex 5.65344 7.71224 1.5
    endloop
  endfacet
  facet normal 0 0 1
    outer loop
      vertex 7.01555 7.37044 1.5
      vertex 5.76672 5.64974 1.5
      vertex 7.00383 5.64974 1.5
    endloop
  endfacet
  facet normal 0 0 1
    outer loop
      vertex 3.6585 29.8357 1.5
      vertex 7.01555 11.3568 1.5
      vertex 10.8156 28.5317 1.5
    endloop
  endfacet
  facet normal 0 0 1
    outer loop
      vertex 7.01555 7.37044 1.5
      vertex 5.19445 9.08138 1.5
      vertex 5.65344 7.71224 1.5
    endloop
  endfacet
  facet normal 0 0 1
    outer loop
      vertex 1.98937 11.1439 1.5
      vertex 7.01555 11.3568 1.5
      vertex 3.6585 29.8357 1.5
    endloop
  endfacet
  facet normal 0 0 1
    outer loop
      vertex 7.01555 11.3568 1.5
      vertex 3.36437 10.724 1.5
      vertex 5.19445 9.08138 1.5
    endloop
  endfacet
  facet normal 0 0 1
    outer loop
      vertex 7.01555 11.3568 1.5
      vertex 1.98937 11.1439 1.5
      vertex 3.36437 10.724 1.5
    endloop
  endfacet
  facet normal 0 0 1
    outer loop
      vertex 3.6585 29.8357 1.5
      vertex 0.415156 11.3021 1.5
      vertex 1.98937 11.1439 1.5
    endloop
  endfacet
  facet normal 0 0 1
    outer loop
      vertex 0.415156 11.3021 1.5
      vertex -0.586797 11.3021 1.5
      vertex 0.415156 8.85091 1.5
    endloop
  endfacet
  facet normal 0 0 1
    outer loop
      vertex 3.6585 29.8357 1.5
      vertex -0.586797 11.3021 1.5
      vertex 0.415156 11.3021 1.5
    endloop
  endfacet
  facet normal -0 0 1
    outer loop
      vertex -3.6585 29.8357 1.5
      vertex -0.586797 11.3021 1.5
      vertex 3.6585 29.8357 1.5
    endloop
  endfacet
  facet normal 0 0 1
    outer loop
      vertex -0.586797 11.3021 1.5
      vertex -3.6585 29.8357 1.5
      vertex -2.03211 11.1439 1.5
    endloop
  endfacet
  facet normal -0 0 1
    outer loop
      vertex -9.85516 11.3626 1.5
      vertex -2.03211 11.1439 1.5
      vertex -3.6585 29.8357 1.5
    endloop
  endfacet
  facet normal 0 0 1
    outer loop
      vertex -2.03211 11.1439 1.5
      vertex -9.85516 11.3626 1.5
      vertex -3.47742 10.6673 1.5
    endloop
  endfacet
  facet normal 0 0 1
    outer loop
      vertex -3.47742 10.6673 1.5
      vertex -9.85516 11.3626 1.5
      vertex -5.32312 9.05208 1.5
    endloop
  endfacet
  facet normal 0 0 1
    outer loop
      vertex -9.85516 11.3626 1.5
      vertex -5.76648 5.38997 1.5
      vertex -5.76648 5.5931 1.5
    endloop
  endfacet
  facet normal 0 0 1
    outer loop
      vertex -5.55945 -4.52018 1.5
      vertex -9.85516 -10.6667 1.5
      vertex -5.9325 -7.04167 1.5
    endloop
  endfacet
  facet normal 0 0 1
    outer loop
      vertex -5.76648 5.38997 1.5
      vertex -9.85516 11.3626 1.5
      vertex -9.85516 -10.6667 1.5
    endloop
  endfacet
  facet normal 0 0 1
    outer loop
      vertex -5.32312 9.05208 1.5
      vertex -9.85516 11.3626 1.5
      vertex -5.76648 5.5931 1.5
    endloop
  endfacet
  facet normal -0 0 1
    outer loop
      vertex -10.8156 28.5317 1.5
      vertex -9.85516 11.3626 1.5
      vertex -3.6585 29.8357 1.5
    endloop
  endfacet
  facet normal -0 0 1
    outer loop
      vertex -17.5 25.9808 1.5
      vertex -9.85516 11.3626 1.5
      vertex -10.8156 28.5317 1.5
    endloop
  endfacet
  facet normal 0 0 1
    outer loop
      vertex -9.85516 11.3626 1.5
      vertex -17.5 25.9808 1.5
      vertex -14.445 11.3626 1.5
    endloop
  endfacet
  facet normal -0 0 1
    outer loop
      vertex -23.4196 22.2943 1.5
      vertex -14.445 11.3626 1.5
      vertex -17.5 25.9808 1.5
    endloop
  endfacet
  facet normal 0 0 1
    outer loop
      vertex -14.445 11.3626 1.5
      vertex -23.4196 22.2943 1.5
      vertex -19.2497 8.1595 1.5
    endloop
  endfacet
  facet normal 0 0 1
    outer loop
      vertex 31.9741 -12.2021 1.5
      vertex 18.3945 -8.30534 1.5
      vertex 28.3156 -17.6336 1.5
    endloop
  endfacet
  facet normal -0 0 1
    outer loop
      vertex 16.5214 -9.99089 1.5
      vertex 28.3156 -17.6336 1.5
      vertex 18.3945 -8.30534 1.5
    endloop
  endfacet
  facet normal 0 0 1
    outer loop
      vertex 28.3156 -17.6336 1.5
      vertex 16.5214 -9.99089 1.5
      vertex 23.4196 -22.2943 1.5
    endloop
  endfacet
  facet normal 0 0 1
    outer loop
      vertex 23.4196 -22.2943 1.5
      vertex 16.5214 -9.99089 1.5
      vertex 17.5 -25.9808 1.5
    endloop
  endfacet
  facet normal -0 0 1
    outer loop
      vertex 13.4433 -10.6686 1.5
      vertex 17.5 -25.9808 1.5
      vertex 16.5214 -9.99089 1.5
    endloop
  endfacet
  facet normal 0 0 1
    outer loop
      vertex 12.4413 -10.6686 1.5
      vertex 13.4433 -10.6686 1.5
      vertex 12.4413 -8.21745 1.5
    endloop
  endfacet
  facet normal 0 0 1
    outer loop
      vertex 13.4433 -10.6686 1.5
      vertex 12.4413 -10.6686 1.5
      vertex 17.5 -25.9808 1.5
    endloop
  endfacet
  facet normal 0 0 1
    outer loop
      vertex 10.8156 -28.5317 1.5
      vertex 12.4413 -10.6686 1.5
      vertex 10.9101 -10.4538 1.5
    endloop
  endfacet
  facet normal 0 0 1
    outer loop
      vertex 12.4413 -10.6686 1.5
      vertex 10.8156 -28.5317 1.5
      vertex 17.5 -25.9808 1.5
    endloop
  endfacet
  facet normal -0 0 1
    outer loop
      vertex 5.67883 -10.3483 1.5
      vertex 10.9101 -10.4538 1.5
      vertex 9.43742 -9.86198 1.5
    endloop
  endfacet
  facet normal 0 0 1
    outer loop
      vertex 5.67883 -10.3483 1.5
      vertex 9.43742 -9.86198 1.5
      vertex 7.57609 -7.95964 1.5
    endloop
  endfacet
  facet normal -0 0 1
    outer loop
      vertex 5.76672 5.64974 1.5
      vertex 7.01555 3.12826 1.5
      vertex 7.00383 5.64974 1.5
    endloop
  endfacet
  facet normal 0 0 1
    outer loop
      vertex 7.01555 3.12826 1.5
      vertex 4.38 1.64193 1.5
      vertex 8.3925 1.64193 1.5
    endloop
  endfacet
  facet normal 0 0 1
    outer loop
      vertex 5.6632 -7.05534 1.5
      vertex 7.11711 -4.26823 1.5
      vertex 7.11711 -3.48893 1.5
    endloop
  endfacet
  facet normal -0 0 1
    outer loop
      vertex 5.6632 -7.05534 1.5
      vertex 7.57609 -7.95964 1.5
      vertex 7.11711 -4.26823 1.5
    endloop
  endfacet
  facet normal 0 0 1
    outer loop
      vertex 10.9101 -10.4538 1.5
      vertex 5.67883 -10.3483 1.5
      vertex 10.8156 -28.5317 1.5
    endloop
  endfacet
  facet normal 0 0 1
    outer loop
      vertex 5.67883 -10.3483 1.5
      vertex 3.6585 -29.8357 1.5
      vertex 10.8156 -28.5317 1.5
    endloop
  endfacet
  facet normal -0 0 1
    outer loop
      vertex 0.43664 -10.3483 1.5
      vertex 3.6585 -29.8357 1.5
      vertex 5.67883 -10.3483 1.5
    endloop
  endfacet
  facet normal 0 0 1
    outer loop
      vertex -0.672735 -10.3483 1.5
      vertex 0.43664 -10.3483 1.5
      vertex -0.672735 -7.10417 1.5
    endloop
  endfacet
  facet normal 0 0 1
    outer loop
      vertex -3.6585 -29.8357 1.5
      vertex 0.43664 -10.3483 1.5
      vertex -0.672735 -10.3483 1.5
    endloop
  endfacet
  facet normal 0 0 1
    outer loop
      vertex 0.43664 -10.3483 1.5
      vertex -3.6585 -29.8357 1.5
      vertex 3.6585 -29.8357 1.5
    endloop
  endfacet
  facet normal -0 0 1
    outer loop
      vertex -5.995 -10.3483 1.5
      vertex -3.6585 -29.8357 1.5
      vertex -0.672735 -10.3483 1.5
    endloop
  endfacet
  facet normal 0 0 1
    outer loop
      vertex -5.9325 -7.04167 1.5
      vertex -9.85516 -10.6667 1.5
      vertex -5.995 -10.3483 1.5
    endloop
  endfacet
  facet normal 0 0 1
    outer loop
      vertex -10.8156 -28.5317 1.5
      vertex -5.995 -10.3483 1.5
      vertex -9.85516 -10.6667 1.5
    endloop
  endfacet
  facet normal 0 0 1
    outer loop
      vertex -5.995 -10.3483 1.5
      vertex -10.8156 -28.5317 1.5
      vertex -3.6585 -29.8357 1.5
    endloop
  endfacet
  facet normal 0 0 1
    outer loop
      vertex -17.5 -25.9808 1.5
      vertex -9.85516 -10.6667 1.5
      vertex -14.445 -10.6667 1.5
    endloop
  endfacet
  facet normal -0 0 1
    outer loop
      vertex -16.7282 4.89193 1.5
      vertex -14.445 -10.6667 1.5
      vertex -14.4919 6.49154 1.5
    endloop
  endfacet
  facet normal 0 0 1
    outer loop
      vertex -9.85516 -10.6667 1.5
      vertex -17.5 -25.9808 1.5
      vertex -10.8156 -28.5317 1.5
    endloop
  endfacet
  facet normal -0 0 1
    outer loop
      vertex -33.7565 -7.5 1.5
      vertex -14.445 -10.6667 1.5
      vertex -16.7282 4.89193 1.5
    endloop
  endfacet
  facet normal -0 0 1
    outer loop
      vertex -33.7565 7.5 1.5
      vertex -16.7282 4.89193 1.5
      vertex -19.2497 8.1595 1.5
    endloop
  endfacet
  facet normal -0 0 1
    outer loop
      vertex -28.3156 17.6336 1.5
      vertex -19.2497 8.1595 1.5
      vertex -23.4196 22.2943 1.5
    endloop
  endfacet
  facet normal 0 0 1
    outer loop
      vertex -14.445 -10.6667 1.5
      vertex -23.4196 -22.2943 1.5
      vertex -17.5 -25.9808 1.5
    endloop
  endfacet
  facet normal -0 0 1
    outer loop
      vertex -31.9741 12.2021 1.5
      vertex -19.2497 8.1595 1.5
      vertex -28.3156 17.6336 1.5
    endloop
  endfacet
  facet normal 0 0 1
    outer loop
      vertex -14.445 -10.6667 1.5
      vertex -28.3156 -17.6336 1.5
      vertex -23.4196 -22.2943 1.5
    endloop
  endfacet
  facet normal 0 0 1
    outer loop
      vertex -19.2497 8.1595 1.5
      vertex -31.9741 12.2021 1.5
      vertex -33.7565 7.5 1.5
    endloop
  endfacet
  facet normal 0 0 1
    outer loop
      vertex -16.7282 4.89193 1.5
      vertex -33.7565 7.5 1.5
      vertex -33.7565 -7.5 1.5
    endloop
  endfacet
  facet normal 0 0 1
    outer loop
      vertex -14.445 -10.6667 1.5
      vertex -33.7565 -7.5 1.5
      vertex -31.9741 -12.2021 1.5
    endloop
  endfacet
  facet normal 0 0 1
    outer loop
      vertex -14.445 -10.6667 1.5
      vertex -31.9741 -12.2021 1.5
      vertex -28.3156 -17.6336 1.5
    endloop
  endfacet
  facet normal -0 0 1
    outer loop
      vertex -51.5 7.5 1.5
      vertex -33.7565 -7.5 1.5
      vertex -33.7565 7.5 1.5
    endloop
  endfacet
  facet normal 0 0 1
    outer loop
      vertex -33.7565 -7.5 1.5
      vertex -51.5 7.5 1.5
      vertex -51.5 -7.5 1.5
    endloop
  endfacet
  facet normal -0 0 1
    outer loop
      vertex 18.8105 -6.9362 1.5
      vertex 31.9741 -12.2021 1.5
      vertex 18.9667 -5.10417 1.5
    endloop
  endfacet
  facet normal 0 0 1
    outer loop
      vertex 34.2352 -6.23735 1.5
      vertex 18.9667 -5.10417 1.5
      vertex 31.9741 -12.2021 1.5
    endloop
  endfacet
  facet normal 0 0 1
    outer loop
      vertex 13.3866 2.9974 1.5
      vertex 18.6386 7.37044 1.5
      vertex 13.6054 7.37044 1.5
    endloop
  endfacet
  facet normal 0 0 1
    outer loop
      vertex 18.6386 7.37044 1.5
      vertex 13.3866 2.9974 1.5
      vertex 18.037 -0.619792 1.5
    endloop
  endfacet
  facet normal 0 0 1
    outer loop
      vertex 12.0702 3.84896 1.5
      vertex 13.6054 7.37044 1.5
      vertex 12.4316 7.37044 1.5
    endloop
  endfacet
  facet normal 0 0 1
    outer loop
      vertex 13.6054 7.37044 1.5
      vertex 12.0702 3.84896 1.5
      vertex 13.3866 2.9974 1.5
    endloop
  endfacet
  facet normal 0 0 1
    outer loop
      vertex 12.4316 7.37044 1.5
      vertex 11.082 4.4974 1.5
      vertex 12.0702 3.84896 1.5
    endloop
  endfacet
  facet normal 0 -0 1
    outer loop
      vertex 11.082 4.4974 1.5
      vertex 12.4316 7.37044 1.5
      vertex 10.9667 7.37044 1.5
    endloop
  endfacet
  facet normal -0.829396 0.558661 0
    outer loop
      vertex -31.9741 12.2021 -1.5
      vertex -28.3156 17.6336 1.5
      vertex -28.3156 17.6336 -1.5
    endloop
  endfacet
  facet normal -0.829396 0.558661 0
    outer loop
      vertex -28.3156 17.6336 1.5
      vertex -31.9741 12.2021 -1.5
      vertex -31.9741 12.2021 1.5
    endloop
  endfacet
  facet normal -0.528625 0.848855 0
    outer loop
      vertex -17.5 25.9808 -1.5
      vertex -23.4196 22.2943 1.5
      vertex -17.5 25.9808 1.5
    endloop
  endfacet
  facet normal -0.528625 0.848855 0
    outer loop
      vertex -23.4196 22.2943 1.5
      vertex -17.5 25.9808 -1.5
      vertex -23.4196 22.2943 -1.5
    endloop
  endfacet
  facet normal -0.17924 0.983805 0
    outer loop
      vertex -3.6585 29.8357 -1.5
      vertex -10.8156 28.5317 1.5
      vertex -3.6585 29.8357 1.5
    endloop
  endfacet
  facet normal -0.17924 0.983805 0
    outer loop
      vertex -10.8156 28.5317 1.5
      vertex -3.6585 29.8357 -1.5
      vertex -10.8156 28.5317 -1.5
    endloop
  endfacet
  facet normal -0.689493 0.724292 0
    outer loop
      vertex -23.4196 22.2943 -1.5
      vertex -28.3156 17.6336 1.5
      vertex -23.4196 22.2943 1.5
    endloop
  endfacet
  facet normal -0.689493 0.724292 0
    outer loop
      vertex -28.3156 17.6336 1.5
      vertex -23.4196 22.2943 -1.5
      vertex -28.3156 17.6336 -1.5
    endloop
  endfacet
  facet normal 0.992566 0.12171 0
    outer loop
      vertex 35 0 1.5
      vertex 34.2352 6.23735 -1.5
      vertex 34.2352 6.23735 1.5
    endloop
  endfacet
  facet normal 0.992566 0.12171 0
    outer loop
      vertex 34.2352 6.23735 -1.5
      vertex 35 0 1.5
      vertex 35 0 -1.5
    endloop
  endfacet
  facet normal 0.935071 -0.35446 0
    outer loop
      vertex 31.9741 -12.2021 1.5
      vertex 34.2352 -6.23735 -1.5
      vertex 34.2352 -6.23735 1.5
    endloop
  endfacet
  facet normal 0.935071 -0.35446 0
    outer loop
      vertex 34.2352 -6.23735 -1.5
      vertex 31.9741 -12.2021 1.5
      vertex 31.9741 -12.2021 -1.5
    endloop
  endfacet
  facet normal 0.528625 -0.848855 0
    outer loop
      vertex 17.5 -25.9808 -1.5
      vertex 23.4196 -22.2943 1.5
      vertex 17.5 -25.9808 1.5
    endloop
  endfacet
  facet normal 0.528625 -0.848855 0
    outer loop
      vertex 23.4196 -22.2943 1.5
      vertex 17.5 -25.9808 -1.5
      vertex 23.4196 -22.2943 -1.5
    endloop
  endfacet
  facet normal 0.17924 0.983805 -0
    outer loop
      vertex 10.8156 28.5317 -1.5
      vertex 3.6585 29.8357 1.5
      vertex 10.8156 28.5317 1.5
    endloop
  endfacet
  facet normal 0.17924 0.983805 0
    outer loop
      vertex 3.6585 29.8357 1.5
      vertex 10.8156 28.5317 -1.5
      vertex 3.6585 29.8357 -1.5
    endloop
  endfacet
  facet normal 0.829396 -0.558661 0
    outer loop
      vertex 28.3156 -17.6336 1.5
      vertex 31.9741 -12.2021 -1.5
      vertex 31.9741 -12.2021 1.5
    endloop
  endfacet
  facet normal 0.829396 -0.558661 0
    outer loop
      vertex 31.9741 -12.2021 -1.5
      vertex 28.3156 -17.6336 1.5
      vertex 28.3156 -17.6336 -1.5
    endloop
  endfacet
  facet normal 0 -1 0
    outer loop
      vertex -3.6585 -29.8357 -1.5
      vertex 3.6585 -29.8357 1.5
      vertex -3.6585 -29.8357 1.5
    endloop
  endfacet
  facet normal 0 -1 -0
    outer loop
      vertex 3.6585 -29.8357 1.5
      vertex -3.6585 -29.8357 -1.5
      vertex 3.6585 -29.8357 -1.5
    endloop
  endfacet
  facet normal 0.17924 -0.983805 0
    outer loop
      vertex 3.6585 -29.8357 -1.5
      vertex 10.8156 -28.5317 1.5
      vertex 3.6585 -29.8357 1.5
    endloop
  endfacet
  facet normal 0.17924 -0.983805 0
    outer loop
      vertex 10.8156 -28.5317 1.5
      vertex 3.6585 -29.8357 -1.5
      vertex 10.8156 -28.5317 -1.5
    endloop
  endfacet
  facet normal 0.356544 -0.934279 0
    outer loop
      vertex 10.8156 -28.5317 -1.5
      vertex 17.5 -25.9808 1.5
      vertex 10.8156 -28.5317 1.5
    endloop
  endfacet
  facet normal 0.356544 -0.934279 0
    outer loop
      vertex 17.5 -25.9808 1.5
      vertex 10.8156 -28.5317 -1.5
      vertex 17.5 -25.9808 -1.5
    endloop
  endfacet
  facet normal -0.829396 -0.558661 0
    outer loop
      vertex -28.3156 -17.6336 -1.5
      vertex -31.9741 -12.2021 1.5
      vertex -31.9741 -12.2021 -1.5
    endloop
  endfacet
  facet normal -0.829396 -0.558661 0
    outer loop
      vertex -31.9741 -12.2021 1.5
      vertex -28.3156 -17.6336 -1.5
      vertex -28.3156 -17.6336 1.5
    endloop
  endfacet
  facet normal 0 0 -1
    outer loop
      vertex -1.73133 5.38997 -1.5
      vertex 1.70422 6.45833 -1.5
      vertex 1.33117 4.4974 -1.5
    endloop
  endfacet
  facet normal -0 0 -1
    outer loop
      vertex 1.70422 6.45833 -1.5
      vertex -1.73133 6.3724 -1.5
      vertex 1.60266 7.42318 -1.5
    endloop
  endfacet
  facet normal 0 0 -1
    outer loop
      vertex -1.73133 5.38997 -1.5
      vertex 1.33117 4.4974 -1.5
      vertex 0.702265 3.84896 -1.5
    endloop
  endfacet
  facet normal 0 -0 -1
    outer loop
      vertex -1.63172 7.53841 -1.5
      vertex 1.60266 7.42318 -1.5
      vertex -1.73133 6.3724 -1.5
    endloop
  endfacet
  facet normal 0 0 -1
    outer loop
      vertex 0.415156 8.85091 -1.5
      vertex -0.586797 8.85091 -1.5
      vertex 0.415156 11.3021 -1.5
    endloop
  endfacet
  facet normal 0 0 -1
    outer loop
      vertex 1.60266 7.42318 -1.5
      vertex -1.63172 7.53841 -1.5
      vertex 1.30187 8.13021 -1.5
    endloop
  endfacet
  facet normal 0 0 -1
    outer loop
      vertex -1.73133 5.38997 -1.5
      vertex 0.702265 3.84896 -1.5
      vertex -0.614141 2.9974 -1.5
    endloop
  endfacet
  facet normal -0 0 -1
    outer loop
      vertex 1.30187 8.13021 -1.5
      vertex -1.63172 7.53841 -1.5
      vertex 0.415156 8.85091 -1.5
    endloop
  endfacet
  facet normal -0 0 -1
    outer loop
      vertex 0.415156 8.85091 -1.5
      vertex -1.63172 7.53841 -1.5
      vertex -0.586797 8.85091 -1.5
    endloop
  endfacet
  facet normal 0 0 -1
    outer loop
      vertex 1.70422 6.45833 -1.5
      vertex -1.73133 5.38997 -1.5
      vertex -1.73133 6.3724 -1.5
    endloop
  endfacet
  facet normal 0 0 -1
    outer loop
      vertex -4.15125 -0.143229 -1.5
      vertex -1.73133 5.38997 -1.5
      vertex -0.614141 2.9974 -1.5
    endloop
  endfacet
  facet normal 0 0 -1
    outer loop
      vertex -4.15125 -0.143229 -1.5
      vertex -5.76648 5.38997 -1.5
      vertex -1.73133 5.38997 -1.5
    endloop
  endfacet
  facet normal 0 0 -1
    outer loop
      vertex -5.55945 -4.52018 -1.5
      vertex -5.76648 5.38997 -1.5
      vertex -4.15125 -0.143229 -1.5
    endloop
  endfacet
  facet normal -0 0 -1
    outer loop
      vertex -5.55945 -4.52018 -1.5
      vertex -9.85516 -10.6667 -1.5
      vertex -5.76648 5.38997 -1.5
    endloop
  endfacet
  facet normal 0 0 -1
    outer loop
      vertex -9.85516 -10.6667 -1.5
      vertex -5.55945 -4.52018 -1.5
      vertex -5.9325 -7.04167 -1.5
    endloop
  endfacet
  facet normal 0 0 -1
    outer loop
      vertex 5.76672 5.64974 -1.5
      vertex 7.01555 7.37044 -1.5
      vertex 7.00383 5.64974 -1.5
    endloop
  endfacet
  facet normal -0 0 -1
    outer loop
      vertex 13.6054 7.37044 -1.5
      vertex 12.0702 3.84896 -1.5
      vertex 12.4316 7.37044 -1.5
    endloop
  endfacet
  facet normal 0 0 -1
    outer loop
      vertex 11.082 4.4974 -1.5
      vertex 12.4316 7.37044 -1.5
      vertex 12.0702 3.84896 -1.5
    endloop
  endfacet
  facet normal -0 0 -1
    outer loop
      vertex 12.4316 7.37044 -1.5
      vertex 11.082 4.4974 -1.5
      vertex 10.9667 7.37044 -1.5
    endloop
  endfacet
  facet normal 0 0 -1
    outer loop
      vertex 11.2402 -6.77799 -1.5
      vertex 14.6737 -6.7194 -1.5
      vertex 14.3456 -7.45378 -1.5
    endloop
  endfacet
  facet normal 0 0 -1
    outer loop
      vertex 11.1542 -5.53581 -1.5
      vertex 14.6737 -6.7194 -1.5
      vertex 11.2402 -6.77799 -1.5
    endloop
  endfacet
  facet normal 0 0 -1
    outer loop
      vertex 13.4433 -8.21745 -1.5
      vertex 14.3456 -7.45378 -1.5
      vertex 13.9296 -7.97331 -1.5
    endloop
  endfacet
  facet normal 0 0 -1
    outer loop
      vertex 12.4413 -8.21745 -1.5
      vertex 14.3456 -7.45378 -1.5
      vertex 13.4433 -8.21745 -1.5
    endloop
  endfacet
  facet normal 0 0 -1
    outer loop
      vertex 12.4413 -8.21745 -1.5
      vertex 13.4433 -8.21745 -1.5
      vertex 12.4413 -10.6686 -1.5
    endloop
  endfacet
  facet normal -0 0 -1
    outer loop
      vertex 14.3456 -7.45378 -1.5
      vertex 12.4413 -8.21745 -1.5
      vertex 11.2402 -6.77799 -1.5
    endloop
  endfacet
  facet normal 0 0 -1
    outer loop
      vertex 11.4823 -7.54167 -1.5
      vertex 12.4413 -8.21745 -1.5
      vertex 11.8554 -7.98893 -1.5
    endloop
  endfacet
  facet normal 0 0 -1
    outer loop
      vertex 12.4413 -8.21745 -1.5
      vertex 11.4823 -7.54167 -1.5
      vertex 11.2402 -6.77799 -1.5
    endloop
  endfacet
  facet normal 0 0 -1
    outer loop
      vertex 14.6737 -6.7194 -1.5
      vertex 11.1542 -5.53581 -1.5
      vertex 14.789 -5.70964 -1.5
    endloop
  endfacet
  facet normal 0 0 -1
    outer loop
      vertex 11.1542 -3.48893 -1.5
      vertex 14.789 -5.70964 -1.5
      vertex 11.1542 -5.53581 -1.5
    endloop
  endfacet
  facet normal 0 0 -1
    outer loop
      vertex 14.789 -5.70964 -1.5
      vertex 11.1542 -3.48893 -1.5
      vertex 14.0741 -2.59635 -1.5
    endloop
  endfacet
  facet normal 0 0 -1
    outer loop
      vertex 11.1542 -3.48893 -1.5
      vertex 11.1542 -0.404948 -1.5
      vertex 14.0741 -2.59635 -1.5
    endloop
  endfacet
  facet normal 0 0 -1
    outer loop
      vertex 7.11711 -3.48893 -1.5
      vertex 11.1542 -0.404948 -1.5
      vertex 11.1542 -3.48893 -1.5
    endloop
  endfacet
  facet normal -0 0 -1
    outer loop
      vertex 11.1542 -0.404948 -1.5
      vertex 7.11711 -3.48893 -1.5
      vertex 9.77922 0.546224 -1.5
    endloop
  endfacet
  facet normal -0 0 -1
    outer loop
      vertex 9.77922 0.546224 -1.5
      vertex 7.11711 -3.48893 -1.5
      vertex 8.3925 1.64193 -1.5
    endloop
  endfacet
  facet normal -0 0 -1
    outer loop
      vertex 8.3925 1.64193 -1.5
      vertex 7.11711 -3.48893 -1.5
      vertex 7.01555 3.12826 -1.5
    endloop
  endfacet
  facet normal 0 0 -1
    outer loop
      vertex 7.11711 -4.26823 -1.5
      vertex 1.61828 -0.404948 -1.5
      vertex 7.11711 -3.48893 -1.5
    endloop
  endfacet
  facet normal 0 0 -1
    outer loop
      vertex 7.11711 -3.48893 -1.5
      vertex 5.36633 3.12826 -1.5
      vertex 5.76672 5.64974 -1.5
    endloop
  endfacet
  facet normal 0 0 -1
    outer loop
      vertex 7.11711 -3.48893 -1.5
      vertex 4.38 1.64193 -1.5
      vertex 5.36633 3.12826 -1.5
    endloop
  endfacet
  facet normal 0 0 -1
    outer loop
      vertex 7.11711 -3.48893 -1.5
      vertex 2.99133 0.546224 -1.5
      vertex 4.38 1.64193 -1.5
    endloop
  endfacet
  facet normal 0 0 -1
    outer loop
      vertex 7.11711 -3.48893 -1.5
      vertex 1.61828 -0.404948 -1.5
      vertex 2.99133 0.546224 -1.5
    endloop
  endfacet
  facet normal 0 0 -1
    outer loop
      vertex 0.43664 -7.05534 -1.5
      vertex 1.61828 -0.404948 -1.5
      vertex 5.6632 -7.05534 -1.5
    endloop
  endfacet
  facet normal 0 0 -1
    outer loop
      vertex 0.43664 -10.3483 -1.5
      vertex -0.672735 -7.10417 -1.5
      vertex 0.43664 -7.05534 -1.5
    endloop
  endfacet
  facet normal 0 0 -1
    outer loop
      vertex -1.57313 -6.33854 -1.5
      vertex 0.43664 -7.05534 -1.5
      vertex -0.672735 -7.10417 -1.5
    endloop
  endfacet
  facet normal 0 0 -1
    outer loop
      vertex -1.57313 -6.33854 -1.5
      vertex -0.672735 -7.10417 -1.5
      vertex -1.15906 -6.85807 -1.5
    endloop
  endfacet
  facet normal 0 0 -1
    outer loop
      vertex 0.43664 -7.05534 -1.5
      vertex -1.30164 -2.59635 -1.5
      vertex 1.61828 -0.404948 -1.5
    endloop
  endfacet
  facet normal 0 0 -1
    outer loop
      vertex 0.43664 -7.05534 -1.5
      vertex -1.57313 -6.33854 -1.5
      vertex -1.9032 -5.60417 -1.5
    endloop
  endfacet
  facet normal 0 0 -1
    outer loop
      vertex 0.43664 -7.05534 -1.5
      vertex -1.9032 -5.60417 -1.5
      vertex -2.01844 -4.5944 -1.5
    endloop
  endfacet
  facet normal 0 0 -1
    outer loop
      vertex 0.43664 -7.05534 -1.5
      vertex -2.01844 -4.5944 -1.5
      vertex -1.30164 -2.59635 -1.5
    endloop
  endfacet
  facet normal 0 0 -1
    outer loop
      vertex -0.586797 8.85091 -1.5
      vertex -1.63172 7.53841 -1.5
      vertex -1.36023 8.27474 -1.5
    endloop
  endfacet
  facet normal -0 0 -1
    outer loop
      vertex 34.2352 6.23735 -1.5
      vertex 18.037 -0.619792 -1.5
      vertex 18.6386 7.37044 -1.5
    endloop
  endfacet
  facet normal 0 0 -1
    outer loop
      vertex 13.3866 2.9974 -1.5
      vertex 18.6386 7.37044 -1.5
      vertex 18.037 -0.619792 -1.5
    endloop
  endfacet
  facet normal 0 0 -1
    outer loop
      vertex 12.0702 3.84896 -1.5
      vertex 13.6054 7.37044 -1.5
      vertex 13.3866 2.9974 -1.5
    endloop
  endfacet
  facet normal -0 0 -1
    outer loop
      vertex 18.6386 7.37044 -1.5
      vertex 13.3866 2.9974 -1.5
      vertex 13.6054 7.37044 -1.5
    endloop
  endfacet
  facet normal 0 0 -1
    outer loop
      vertex 18.9667 -5.10417 -1.5
      vertex 35 0 -1.5
      vertex 34.2352 -6.23735 -1.5
    endloop
  endfacet
  facet normal 0 0 -1
    outer loop
      vertex 18.9667 -5.10417 -1.5
      vertex 34.2352 -6.23735 -1.5
      vertex 31.9741 -12.2021 -1.5
    endloop
  endfacet
  facet normal 0 0 -1
    outer loop
      vertex 18.037 -0.619792 -1.5
      vertex 35 0 -1.5
      vertex 18.9667 -5.10417 -1.5
    endloop
  endfacet
  facet normal 0 0 -1
    outer loop
      vertex 18.3945 -8.30534 -1.5
      vertex 31.9741 -12.2021 -1.5
      vertex 28.3156 -17.6336 -1.5
    endloop
  endfacet
  facet normal 0 0 -1
    outer loop
      vertex 18.037 -0.619792 -1.5
      vertex 34.2352 6.23735 -1.5
      vertex 35 0 -1.5
    endloop
  endfacet
  facet normal 0 0 -1
    outer loop
      vertex 16.5214 -9.99089 -1.5
      vertex 28.3156 -17.6336 -1.5
      vertex 23.4196 -22.2943 -1.5
    endloop
  endfacet
  facet normal 0 0 -1
    outer loop
      vertex 34.2352 6.23735 -1.5
      vertex 18.6386 7.37044 -1.5
      vertex 31.9741 12.2021 -1.5
    endloop
  endfacet
  facet normal 0 0 -1
    outer loop
      vertex 18.6386 11.3568 -1.5
      vertex 31.9741 12.2021 -1.5
      vertex 18.6386 7.37044 -1.5
    endloop
  endfacet
  facet normal 0 0 -1
    outer loop
      vertex 31.9741 -12.2021 -1.5
      vertex 18.8105 -6.9362 -1.5
      vertex 18.9667 -5.10417 -1.5
    endloop
  endfacet
  facet normal 0 0 -1
    outer loop
      vertex 31.9741 -12.2021 -1.5
      vertex 18.3945 -8.30534 -1.5
      vertex 18.8105 -6.9362 -1.5
    endloop
  endfacet
  facet normal 0 0 -1
    outer loop
      vertex 16.5214 -9.99089 -1.5
      vertex 23.4196 -22.2943 -1.5
      vertex 17.5 -25.9808 -1.5
    endloop
  endfacet
  facet normal 0 0 -1
    outer loop
      vertex 28.3156 -17.6336 -1.5
      vertex 16.5214 -9.99089 -1.5
      vertex 18.3945 -8.30534 -1.5
    endloop
  endfacet
  facet normal 0 0 -1
    outer loop
      vertex 17.5 -25.9808 -1.5
      vertex 13.4433 -10.6686 -1.5
      vertex 16.5214 -9.99089 -1.5
    endloop
  endfacet
  facet normal 0 0 -1
    outer loop
      vertex 13.4433 -10.6686 -1.5
      vertex 12.4413 -10.6686 -1.5
      vertex 13.4433 -8.21745 -1.5
    endloop
  endfacet
  facet normal 0 0 -1
    outer loop
      vertex 17.5 -25.9808 -1.5
      vertex 12.4413 -10.6686 -1.5
      vertex 13.4433 -10.6686 -1.5
    endloop
  endfacet
  facet normal 0 0 -1
    outer loop
      vertex 10.8156 -28.5317 -1.5
      vertex 12.4413 -10.6686 -1.5
      vertex 17.5 -25.9808 -1.5
    endloop
  endfacet
  facet normal -0 0 -1
    outer loop
      vertex 12.4413 -10.6686 -1.5
      vertex 10.8156 -28.5317 -1.5
      vertex 10.9101 -10.4538 -1.5
    endloop
  endfacet
  facet normal 0 0 -1
    outer loop
      vertex 5.67883 -10.3483 -1.5
      vertex 10.9101 -10.4538 -1.5
      vertex 10.8156 -28.5317 -1.5
    endloop
  endfacet
  facet normal 0 0 -1
    outer loop
      vertex 10.9101 -10.4538 -1.5
      vertex 5.67883 -10.3483 -1.5
      vertex 9.43742 -9.86198 -1.5
    endloop
  endfacet
  facet normal 0 0 -1
    outer loop
      vertex 7.57609 -7.95964 -1.5
      vertex 5.6632 -7.05534 -1.5
      vertex 7.11711 -4.26823 -1.5
    endloop
  endfacet
  facet normal 0 0 -1
    outer loop
      vertex 7.01555 3.12826 -1.5
      vertex 5.76672 5.64974 -1.5
      vertex 7.00383 5.64974 -1.5
    endloop
  endfacet
  facet normal 0 0 -1
    outer loop
      vertex 7.11711 -3.48893 -1.5
      vertex 5.76672 5.64974 -1.5
      vertex 7.01555 3.12826 -1.5
    endloop
  endfacet
  facet normal 0 0 -1
    outer loop
      vertex 5.6632 -7.05534 -1.5
      vertex 7.57609 -7.95964 -1.5
      vertex 5.67883 -10.3483 -1.5
    endloop
  endfacet
  facet normal 0 0 -1
    outer loop
      vertex 1.61828 -0.404948 -1.5
      vertex 7.11711 -4.26823 -1.5
      vertex 5.6632 -7.05534 -1.5
    endloop
  endfacet
  facet normal -0 0 -1
    outer loop
      vertex 9.43742 -9.86198 -1.5
      vertex 5.67883 -10.3483 -1.5
      vertex 7.57609 -7.95964 -1.5
    endloop
  endfacet
  facet normal 0 0 -1
    outer loop
      vertex 3.6585 -29.8357 -1.5
      vertex 5.67883 -10.3483 -1.5
      vertex 10.8156 -28.5317 -1.5
    endloop
  endfacet
  facet normal 0 0 -1
    outer loop
      vertex 3.6585 -29.8357 -1.5
      vertex 0.43664 -10.3483 -1.5
      vertex 5.67883 -10.3483 -1.5
    endloop
  endfacet
  facet normal 0 0 -1
    outer loop
      vertex -0.672735 -7.10417 -1.5
      vertex 0.43664 -10.3483 -1.5
      vertex -0.672735 -10.3483 -1.5
    endloop
  endfacet
  facet normal 0 0 -1
    outer loop
      vertex -3.6585 -29.8357 -1.5
      vertex 0.43664 -10.3483 -1.5
      vertex 3.6585 -29.8357 -1.5
    endloop
  endfacet
  facet normal -0 0 -1
    outer loop
      vertex 0.43664 -10.3483 -1.5
      vertex -3.6585 -29.8357 -1.5
      vertex -0.672735 -10.3483 -1.5
    endloop
  endfacet
  facet normal 0 0 -1
    outer loop
      vertex -3.6585 -29.8357 -1.5
      vertex -5.995 -10.3483 -1.5
      vertex -0.672735 -10.3483 -1.5
    endloop
  endfacet
  facet normal 0 0 -1
    outer loop
      vertex -10.8156 -28.5317 -1.5
      vertex -5.995 -10.3483 -1.5
      vertex -3.6585 -29.8357 -1.5
    endloop
  endfacet
  facet normal 0 0 -1
    outer loop
      vertex -5.995 -10.3483 -1.5
      vertex -10.8156 -28.5317 -1.5
      vertex -9.85516 -10.6667 -1.5
    endloop
  endfacet
  facet normal 0 0 -1
    outer loop
      vertex -17.5 -25.9808 -1.5
      vertex -9.85516 -10.6667 -1.5
      vertex -10.8156 -28.5317 -1.5
    endloop
  endfacet
  facet normal 0 0 -1
    outer loop
      vertex -14.445 -10.6667 -1.5
      vertex -16.7282 4.89193 -1.5
      vertex -14.4919 6.49154 -1.5
    endloop
  endfacet
  facet normal -0 0 -1
    outer loop
      vertex -9.85516 -10.6667 -1.5
      vertex -17.5 -25.9808 -1.5
      vertex -14.445 -10.6667 -1.5
    endloop
  endfacet
  facet normal 0 0 -1
    outer loop
      vertex -23.4196 -22.2943 -1.5
      vertex -14.445 -10.6667 -1.5
      vertex -17.5 -25.9808 -1.5
    endloop
  endfacet
  facet normal 0 0 -1
    outer loop
      vertex -28.3156 -17.6336 -1.5
      vertex -14.445 -10.6667 -1.5
      vertex -23.4196 -22.2943 -1.5
    endloop
  endfacet
  facet normal 0 0 -1
    outer loop
      vertex -31.9741 -12.2021 -1.5
      vertex -14.445 -10.6667 -1.5
      vertex -28.3156 -17.6336 -1.5
    endloop
  endfacet
  facet normal -0 0 -1
    outer loop
      vertex 31.9741 12.2021 -1.5
      vertex 18.6386 11.3568 -1.5
      vertex 28.3156 17.6336 -1.5
    endloop
  endfacet
  facet normal -0 0 -1
    outer loop
      vertex 28.3156 17.6336 -1.5
      vertex 18.6386 11.3568 -1.5
      vertex 23.4196 22.2943 -1.5
    endloop
  endfacet
  facet normal 0 0 -1
    outer loop
      vertex 18.6386 11.3568 -1.5
      vertex 17.5 25.9808 -1.5
      vertex 23.4196 22.2943 -1.5
    endloop
  endfacet
  facet normal 0 0 -1
    outer loop
      vertex 13.6054 11.3568 -1.5
      vertex 17.5 25.9808 -1.5
      vertex 18.6386 11.3568 -1.5
    endloop
  endfacet
  facet normal 0 0 -1
    outer loop
      vertex 13.6054 7.37044 -1.5
      vertex 12.4316 7.37044 -1.5
      vertex 13.6054 11.3568 -1.5
    endloop
  endfacet
  facet normal 0 0 -1
    outer loop
      vertex 12.4316 11.3568 -1.5
      vertex 13.6054 11.3568 -1.5
      vertex 12.4316 7.37044 -1.5
    endloop
  endfacet
  facet normal 0 0 -1
    outer loop
      vertex 13.6054 11.3568 -1.5
      vertex 12.4316 11.3568 -1.5
      vertex 17.5 25.9808 -1.5
    endloop
  endfacet
  facet normal 0 0 -1
    outer loop
      vertex 12.4316 11.3568 -1.5
      vertex 10.8156 28.5317 -1.5
      vertex 17.5 25.9808 -1.5
    endloop
  endfacet
  facet normal 0 0 -1
    outer loop
      vertex 7.01555 11.3568 -1.5
      vertex 10.8156 28.5317 -1.5
      vertex 12.4316 11.3568 -1.5
    endloop
  endfacet
  facet normal -0 0 -1
    outer loop
      vertex 7.01555 7.37044 -1.5
      vertex 5.76672 5.64974 -1.5
      vertex 5.65344 7.71224 -1.5
    endloop
  endfacet
  facet normal 0 0 -1
    outer loop
      vertex 5.19445 9.08138 -1.5
      vertex 7.01555 7.37044 -1.5
      vertex 5.65344 7.71224 -1.5
    endloop
  endfacet
  facet normal 0 0 -1
    outer loop
      vertex 7.01555 7.37044 -1.5
      vertex 5.19445 9.08138 -1.5
      vertex 7.01555 11.3568 -1.5
    endloop
  endfacet
  facet normal 0 0 -1
    outer loop
      vertex 3.36437 10.724 -1.5
      vertex 7.01555 11.3568 -1.5
      vertex 5.19445 9.08138 -1.5
    endloop
  endfacet
  facet normal 0 0 -1
    outer loop
      vertex 1.98937 11.1439 -1.5
      vertex 7.01555 11.3568 -1.5
      vertex 3.36437 10.724 -1.5
    endloop
  endfacet
  facet normal 0 0 -1
    outer loop
      vertex 7.01555 11.3568 -1.5
      vertex 3.6585 29.8357 -1.5
      vertex 10.8156 28.5317 -1.5
    endloop
  endfacet
  facet normal -0 0 -1
    outer loop
      vertex 7.01555 11.3568 -1.5
      vertex 1.98937 11.1439 -1.5
      vertex 3.6585 29.8357 -1.5
    endloop
  endfacet
  facet normal 0 0 -1
    outer loop
      vertex 0.415156 11.3021 -1.5
      vertex 3.6585 29.8357 -1.5
      vertex 1.98937 11.1439 -1.5
    endloop
  endfacet
  facet normal 0 0 -1
    outer loop
      vertex -0.586797 11.3021 -1.5
      vertex 0.415156 11.3021 -1.5
      vertex -0.586797 8.85091 -1.5
    endloop
  endfacet
  facet normal 0 0 -1
    outer loop
      vertex 0.415156 11.3021 -1.5
      vertex -0.586797 11.3021 -1.5
      vertex 3.6585 29.8357 -1.5
    endloop
  endfacet
  facet normal 0 0 -1
    outer loop
      vertex -3.6585 29.8357 -1.5
      vertex -0.586797 11.3021 -1.5
      vertex -2.03211 11.1439 -1.5
    endloop
  endfacet
  facet normal 0 0 -1
    outer loop
      vertex -9.85516 11.3626 -1.5
      vertex -2.03211 11.1439 -1.5
      vertex -3.47742 10.6673 -1.5
    endloop
  endfacet
  facet normal 0 0 -1
    outer loop
      vertex -0.586797 11.3021 -1.5
      vertex -3.6585 29.8357 -1.5
      vertex 3.6585 29.8357 -1.5
    endloop
  endfacet
  facet normal 0 0 -1
    outer loop
      vertex -9.85516 11.3626 -1.5
      vertex -3.47742 10.6673 -1.5
      vertex -5.32312 9.05208 -1.5
    endloop
  endfacet
  facet normal 0 0 -1
    outer loop
      vertex -9.85516 11.3626 -1.5
      vertex -5.32312 9.05208 -1.5
      vertex -5.76648 5.5931 -1.5
    endloop
  endfacet
  facet normal 0 0 -1
    outer loop
      vertex -9.85516 -10.6667 -1.5
      vertex -5.9325 -7.04167 -1.5
      vertex -5.995 -10.3483 -1.5
    endloop
  endfacet
  facet normal 0 0 -1
    outer loop
      vertex -9.85516 11.3626 -1.5
      vertex -5.76648 5.38997 -1.5
      vertex -9.85516 -10.6667 -1.5
    endloop
  endfacet
  facet normal 0 0 -1
    outer loop
      vertex -5.76648 5.38997 -1.5
      vertex -9.85516 11.3626 -1.5
      vertex -5.76648 5.5931 -1.5
    endloop
  endfacet
  facet normal 0 0 -1
    outer loop
      vertex -2.03211 11.1439 -1.5
      vertex -9.85516 11.3626 -1.5
      vertex -3.6585 29.8357 -1.5
    endloop
  endfacet
  facet normal 0 0 -1
    outer loop
      vertex -9.85516 11.3626 -1.5
      vertex -10.8156 28.5317 -1.5
      vertex -3.6585 29.8357 -1.5
    endloop
  endfacet
  facet normal 0 0 -1
    outer loop
      vertex -17.5 25.9808 -1.5
      vertex -9.85516 11.3626 -1.5
      vertex -14.445 11.3626 -1.5
    endloop
  endfacet
  facet normal 0 0 -1
    outer loop
      vertex -9.85516 11.3626 -1.5
      vertex -17.5 25.9808 -1.5
      vertex -10.8156 28.5317 -1.5
    endloop
  endfacet
  facet normal 0 0 -1
    outer loop
      vertex -23.4196 22.2943 -1.5
      vertex -14.445 11.3626 -1.5
      vertex -19.2497 8.1595 -1.5
    endloop
  endfacet
  facet normal 0 0 -1
    outer loop
      vertex -33.7565 -7.5 -1.5
      vertex -14.445 -10.6667 -1.5
      vertex -31.9741 -12.2021 -1.5
    endloop
  endfacet
  facet normal 0 0 -1
    outer loop
      vertex -14.445 11.3626 -1.5
      vertex -23.4196 22.2943 -1.5
      vertex -17.5 25.9808 -1.5
    endloop
  endfacet
  facet normal 0 0 -1
    outer loop
      vertex -14.445 -10.6667 -1.5
      vertex -33.7565 -7.5 -1.5
      vertex -16.7282 4.89193 -1.5
    endloop
  endfacet
  facet normal 0 0 -1
    outer loop
      vertex -19.2497 8.1595 -1.5
      vertex -28.3156 17.6336 -1.5
      vertex -23.4196 22.2943 -1.5
    endloop
  endfacet
  facet normal 0 0 -1
    outer loop
      vertex -33.7565 7.5 -1.5
      vertex -16.7282 4.89193 -1.5
      vertex -33.7565 -7.5 -1.5
    endloop
  endfacet
  facet normal 0 0 -1
    outer loop
      vertex -16.7282 4.89193 -1.5
      vertex -33.7565 7.5 -1.5
      vertex -19.2497 8.1595 -1.5
    endloop
  endfacet
  facet normal 0 -0 -1
    outer loop
      vertex -31.9741 12.2021 -1.5
      vertex -19.2497 8.1595 -1.5
      vertex -33.7565 7.5 -1.5
    endloop
  endfacet
  facet normal 0 0 -1
    outer loop
      vertex -19.2497 8.1595 -1.5
      vertex -31.9741 12.2021 -1.5
      vertex -28.3156 17.6336 -1.5
    endloop
  endfacet
  facet normal 0 0 -1
    outer loop
      vertex -51.5 -7.5 -1.5
      vertex -33.7565 7.5 -1.5
      vertex -33.7565 -7.5 -1.5
    endloop
  endfacet
  facet normal -0 0 -1
    outer loop
      vertex -33.7565 7.5 -1.5
      vertex -51.5 -7.5 -1.5
      vertex -51.5 7.5 -1.5
    endloop
  endfacet
  facet normal -0.935071 -0.35446 0
    outer loop
      vertex -31.9741 -12.2021 -1.5
      vertex -33.7565 -7.5 1.5
      vertex -33.7565 -7.5 -1.5
    endloop
  endfacet
  facet normal -0.935071 -0.35446 0
    outer loop
      vertex -33.7565 -7.5 1.5
      vertex -31.9741 -12.2021 -1.5
      vertex -31.9741 -12.2021 1.5
    endloop
  endfacet
  facet normal -0.689493 -0.724292 0
    outer loop
      vertex -28.3156 -17.6336 -1.5
      vertex -23.4196 -22.2943 1.5
      vertex -28.3156 -17.6336 1.5
    endloop
  endfacet
  facet normal -0.689493 -0.724292 -0
    outer loop
      vertex -23.4196 -22.2943 1.5
      vertex -28.3156 -17.6336 -1.5
      vertex -23.4196 -22.2943 -1.5
    endloop
  endfacet
  facet normal -0.17924 -0.983805 0
    outer loop
      vertex -10.8156 -28.5317 -1.5
      vertex -3.6585 -29.8357 1.5
      vertex -10.8156 -28.5317 1.5
    endloop
  endfacet
  facet normal -0.17924 -0.983805 -0
    outer loop
      vertex -3.6585 -29.8357 1.5
      vertex -10.8156 -28.5317 -1.5
      vertex -3.6585 -29.8357 -1.5
    endloop
  endfacet
  facet normal 0.689493 -0.724292 0
    outer loop
      vertex 23.4196 -22.2943 -1.5
      vertex 28.3156 -17.6336 1.5
      vertex 23.4196 -22.2943 1.5
    endloop
  endfacet
  facet normal 0.689493 -0.724292 0
    outer loop
      vertex 28.3156 -17.6336 1.5
      vertex 23.4196 -22.2943 -1.5
      vertex 28.3156 -17.6336 -1.5
    endloop
  endfacet
  facet normal -0.528625 -0.848855 0
    outer loop
      vertex -23.4196 -22.2943 -1.5
      vertex -17.5 -25.9808 1.5
      vertex -23.4196 -22.2943 1.5
    endloop
  endfacet
  facet normal -0.528625 -0.848855 -0
    outer loop
      vertex -17.5 -25.9808 1.5
      vertex -23.4196 -22.2943 -1.5
      vertex -17.5 -25.9808 -1.5
    endloop
  endfacet
  facet normal -0.356544 -0.934279 0
    outer loop
      vertex -17.5 -25.9808 -1.5
      vertex -10.8156 -28.5317 1.5
      vertex -17.5 -25.9808 1.5
    endloop
  endfacet
  facet normal -0.356544 -0.934279 -0
    outer loop
      vertex -10.8156 -28.5317 1.5
      vertex -17.5 -25.9808 -1.5
      vertex -10.8156 -28.5317 -1.5
    endloop
  endfacet
  facet normal -1 0 0
    outer loop
      vertex -51.5 -7.5 -1.5
      vertex -51.5 7.5 1.5
      vertex -51.5 7.5 -1.5
    endloop
  endfacet
  facet normal -1 -0 0
    outer loop
      vertex -51.5 7.5 1.5
      vertex -51.5 -7.5 -1.5
      vertex -51.5 -7.5 1.5
    endloop
  endfacet
  facet normal 0 -1 0
    outer loop
      vertex -51.5 -7.5 -1.5
      vertex -33.7565 -7.5 1.5
      vertex -51.5 -7.5 1.5
    endloop
  endfacet
  facet normal 0 -1 -0
    outer loop
      vertex -33.7565 -7.5 1.5
      vertex -51.5 -7.5 -1.5
      vertex -33.7565 -7.5 -1.5
    endloop
  endfacet
  facet normal 0 1 -0
    outer loop
      vertex -33.7565 7.5 -1.5
      vertex -51.5 7.5 1.5
      vertex -33.7565 7.5 1.5
    endloop
  endfacet
  facet normal 0 1 0
    outer loop
      vertex -51.5 7.5 1.5
      vertex -33.7565 7.5 -1.5
      vertex -51.5 7.5 -1.5
    endloop
  endfacet
endsolid OpenSCAD_Model
