solid OpenSCAD_Model
  facet normal -1 0 0
    outer loop
      vertex -67.5 0 -67.5
      vertex -67.5 5 -19.55
      vertex -67.5 5 -67.5
    endloop
  endfacet
  facet normal -1 -0 0
    outer loop
      vertex -67.5 5 -19.55
      vertex -67.5 0 -67.5
      vertex -67.5 0 -19.55
    endloop
  endfacet
  facet normal -0 0 1
    outer loop
      vertex -67.5 5 -19.55
      vertex -53.7757 0 -19.55
      vertex -53.7757 5 -19.55
    endloop
  endfacet
  facet normal 0 0 1
    outer loop
      vertex -53.7757 0 -19.55
      vertex -67.5 5 -19.55
      vertex -67.5 0 -19.55
    endloop
  endfacet
  facet normal -0 0 1
    outer loop
      vertex 53.7757 5 -19.55
      vertex 67.51 0 -19.55
      vertex 67.51 5 -19.55
    endloop
  endfacet
  facet normal 0 0 1
    outer loop
      vertex 67.51 0 -19.55
      vertex 53.7757 5 -19.55
      vertex 53.7757 0 -19.55
    endloop
  endfacet
  facet normal 1 -0 0
    outer loop
      vertex 97.5 0 -57.49
      vertex 97.5 5 -87.49
      vertex 97.5 5 -57.49
    endloop
  endfacet
  facet normal 1 0 0
    outer loop
      vertex 97.5 5 -87.49
      vertex 97.5 0 -57.49
      vertex 97.5 0 -87.49
    endloop
  endfacet
  facet normal 0 1 0
    outer loop
      vertex 97.5 5 -57.49
      vertex 87.5 5 -67.5
      vertex 67.51 5 -57.49
    endloop
  endfacet
  facet normal 0 1 -0
    outer loop
      vertex 97.5 5 -87.49
      vertex 87.5 5 -67.5
      vertex 97.5 5 -57.49
    endloop
  endfacet
  facet normal 0 1 0
    outer loop
      vertex 87.5 5 -67.5
      vertex 97.5 5 -87.49
      vertex 87.5 5 -87.49
    endloop
  endfacet
  facet normal 0 1 0
    outer loop
      vertex 67.51 5 -19.55
      vertex 52.5289 5 -23.3874
      vertex 53.7757 5 -19.55
    endloop
  endfacet
  facet normal 0 1 0
    outer loop
      vertex 67.51 5 -19.55
      vertex 46.5185 5 -33.7977
      vertex 52.5289 5 -23.3874
    endloop
  endfacet
  facet normal 0 1 -0
    outer loop
      vertex 67.51 5 -57.49
      vertex 46.5185 5 -33.7977
      vertex 67.51 5 -19.55
    endloop
  endfacet
  facet normal 0 1 0
    outer loop
      vertex 17.7685 5 -54.6857
      vertex 87.5 5 -67.5
      vertex 6.01039 5 -57.185
    endloop
  endfacet
  facet normal 0 1 0
    outer loop
      vertex 87.5 5 -67.5
      vertex 17.7685 5 -54.6857
      vertex 67.51 5 -57.49
    endloop
  endfacet
  facet normal 0 1 0
    outer loop
      vertex 28.75 5 -49.7965
      vertex 67.51 5 -57.49
      vertex 17.7685 5 -54.6857
    endloop
  endfacet
  facet normal 0 1 0
    outer loop
      vertex 38.475 5 -42.7308
      vertex 67.51 5 -57.49
      vertex 28.75 5 -49.7965
    endloop
  endfacet
  facet normal 0 1 0
    outer loop
      vertex 46.5185 5 -33.7977
      vertex 67.51 5 -57.49
      vertex 38.475 5 -42.7308
    endloop
  endfacet
  facet normal 0 1 0
    outer loop
      vertex -52.5289 5 -23.3874
      vertex -67.5 5 -19.55
      vertex -53.7757 5 -19.55
    endloop
  endfacet
  facet normal 0 1 0
    outer loop
      vertex -46.5185 5 -33.7977
      vertex -67.5 5 -19.55
      vertex -52.5289 5 -23.3874
    endloop
  endfacet
  facet normal 0 1 0
    outer loop
      vertex -67.5 5 -67.5
      vertex -46.5185 5 -33.7977
      vertex -38.475 5 -42.7308
    endloop
  endfacet
  facet normal 0 1 0
    outer loop
      vertex -67.5 5 -67.5
      vertex 6.01039 5 -57.185
      vertex 87.5 5 -67.5
    endloop
  endfacet
  facet normal 0 1 0
    outer loop
      vertex -46.5185 5 -33.7977
      vertex -67.5 5 -67.5
      vertex -67.5 5 -19.55
    endloop
  endfacet
  facet normal 0 1 0
    outer loop
      vertex -28.75 5 -49.7965
      vertex -67.5 5 -67.5
      vertex -38.475 5 -42.7308
    endloop
  endfacet
  facet normal 0 1 0
    outer loop
      vertex -17.7685 5 -54.6857
      vertex -67.5 5 -67.5
      vertex -28.75 5 -49.7965
    endloop
  endfacet
  facet normal 0 1 0
    outer loop
      vertex -6.01039 5 -57.185
      vertex -67.5 5 -67.5
      vertex -17.7685 5 -54.6857
    endloop
  endfacet
  facet normal 0 1 0
    outer loop
      vertex 6.01039 5 -57.185
      vertex -67.5 5 -67.5
      vertex -6.01039 5 -57.185
    endloop
  endfacet
  facet normal 0 0 -1
    outer loop
      vertex -67.5 0 -67.5
      vertex 87.5 5 -67.5
      vertex 87.5 0 -67.5
    endloop
  endfacet
  facet normal -0 0 -1
    outer loop
      vertex 87.5 5 -67.5
      vertex -67.5 0 -67.5
      vertex -67.5 5 -67.5
    endloop
  endfacet
  facet normal 0 -1 0
    outer loop
      vertex -67.5 0 -19.55
      vertex -52.5289 0 -23.3874
      vertex -53.7757 0 -19.55
    endloop
  endfacet
  facet normal 0 -1 0
    outer loop
      vertex -67.5 0 -19.55
      vertex -46.5185 0 -33.7977
      vertex -52.5289 0 -23.3874
    endloop
  endfacet
  facet normal 0 -1 0
    outer loop
      vertex -67.5 0 -67.5
      vertex -46.5185 0 -33.7977
      vertex -67.5 0 -19.55
    endloop
  endfacet
  facet normal 0 -1 0
    outer loop
      vertex -67.5 0 -67.5
      vertex 6.01039 0 -57.185
      vertex -6.01039 0 -57.185
    endloop
  endfacet
  facet normal 0 -1 -0
    outer loop
      vertex -46.5185 0 -33.7977
      vertex -67.5 0 -67.5
      vertex -38.475 0 -42.7308
    endloop
  endfacet
  facet normal 0 -1 0
    outer loop
      vertex -67.5 0 -67.5
      vertex -28.75 0 -49.7965
      vertex -38.475 0 -42.7308
    endloop
  endfacet
  facet normal 0 -1 0
    outer loop
      vertex -67.5 0 -67.5
      vertex -17.7685 0 -54.6857
      vertex -28.75 0 -49.7965
    endloop
  endfacet
  facet normal 0 -1 0
    outer loop
      vertex -67.5 0 -67.5
      vertex -6.01039 0 -57.185
      vertex -17.7685 0 -54.6857
    endloop
  endfacet
  facet normal 0 -1 -0
    outer loop
      vertex 6.01039 0 -57.185
      vertex -67.5 0 -67.5
      vertex 87.5 0 -67.5
    endloop
  endfacet
  facet normal 0 -1 0
    outer loop
      vertex 6.01039 0 -57.185
      vertex 87.5 0 -67.5
      vertex 67.51 0 -57.49
    endloop
  endfacet
  facet normal 0 -1 0
    outer loop
      vertex 67.51 0 -57.49
      vertex 87.5 0 -67.5
      vertex 97.5 0 -57.49
    endloop
  endfacet
  facet normal 0 -1 0
    outer loop
      vertex 97.5 0 -87.49
      vertex 87.5 0 -67.5
      vertex 87.5 0 -87.49
    endloop
  endfacet
  facet normal 0 -1 0
    outer loop
      vertex 87.5 0 -67.5
      vertex 97.5 0 -87.49
      vertex 97.5 0 -57.49
    endloop
  endfacet
  facet normal 0 -1 0
    outer loop
      vertex 52.5289 0 -23.3874
      vertex 67.51 0 -19.55
      vertex 53.7757 0 -19.55
    endloop
  endfacet
  facet normal 0 -1 0
    outer loop
      vertex 46.5185 0 -33.7977
      vertex 67.51 0 -19.55
      vertex 52.5289 0 -23.3874
    endloop
  endfacet
  facet normal 0 -1 0
    outer loop
      vertex 67.51 0 -57.49
      vertex 46.5185 0 -33.7977
      vertex 38.475 0 -42.7308
    endloop
  endfacet
  facet normal 0 -1 0
    outer loop
      vertex 46.5185 0 -33.7977
      vertex 67.51 0 -57.49
      vertex 67.51 0 -19.55
    endloop
  endfacet
  facet normal 0 -1 0
    outer loop
      vertex 28.75 0 -49.7965
      vertex 67.51 0 -57.49
      vertex 38.475 0 -42.7308
    endloop
  endfacet
  facet normal 0 -1 0
    outer loop
      vertex 17.7685 0 -54.6857
      vertex 67.51 0 -57.49
      vertex 28.75 0 -49.7965
    endloop
  endfacet
  facet normal 0 -1 0
    outer loop
      vertex 67.51 0 -57.49
      vertex 17.7685 0 -54.6857
      vertex 6.01039 0 -57.185
    endloop
  endfacet
  facet normal -1 0 0
    outer loop
      vertex 87.5 0 -87.49
      vertex 87.5 5 -67.5
      vertex 87.5 5 -87.49
    endloop
  endfacet
  facet normal -1 -0 0
    outer loop
      vertex 87.5 5 -67.5
      vertex 87.5 0 -87.49
      vertex 87.5 0 -67.5
    endloop
  endfacet
  facet normal 0 0 -1
    outer loop
      vertex 87.5 0 -87.49
      vertex 97.5 5 -87.49
      vertex 97.5 0 -87.49
    endloop
  endfacet
  facet normal -0 0 -1
    outer loop
      vertex 97.5 5 -87.49
      vertex 87.5 0 -87.49
      vertex 87.5 5 -87.49
    endloop
  endfacet
  facet normal 1 -0 0
    outer loop
      vertex 67.51 0 -19.55
      vertex 67.51 5 -57.49
      vertex 67.51 5 -19.55
    endloop
  endfacet
  facet normal 1 0 0
    outer loop
      vertex 67.51 5 -57.49
      vertex 67.51 0 -19.55
      vertex 67.51 0 -57.49
    endloop
  endfacet
  facet normal -0 0 1
    outer loop
      vertex 67.51 5 -57.49
      vertex 97.5 0 -57.49
      vertex 97.5 5 -57.49
    endloop
  endfacet
  facet normal 0 0 1
    outer loop
      vertex 97.5 0 -57.49
      vertex 67.51 5 -57.49
      vertex 67.51 0 -57.49
    endloop
  endfacet
  facet normal -0.743145 0 0.669131
    outer loop
      vertex 38.475 0 -42.7308
      vertex 46.5185 5 -33.7977
      vertex 38.475 5 -42.7308
    endloop
  endfacet
  facet normal -0.743145 0 0.669131
    outer loop
      vertex 46.5185 5 -33.7977
      vertex 38.475 0 -42.7308
      vertex 46.5185 0 -33.7977
    endloop
  endfacet
  facet normal -0.207912 0 0.978148
    outer loop
      vertex 6.01039 5 -57.185
      vertex 17.7685 0 -54.6857
      vertex 17.7685 5 -54.6857
    endloop
  endfacet
  facet normal -0.207912 0 0.978148
    outer loop
      vertex 17.7685 0 -54.6857
      vertex 6.01039 5 -57.185
      vertex 6.01039 0 -57.185
    endloop
  endfacet
  facet normal -0.406737 0 0.913545
    outer loop
      vertex 17.7685 5 -54.6857
      vertex 28.75 0 -49.7965
      vertex 28.75 5 -49.7965
    endloop
  endfacet
  facet normal -0.406737 0 0.913545
    outer loop
      vertex 28.75 0 -49.7965
      vertex 17.7685 5 -54.6857
      vertex 17.7685 0 -54.6857
    endloop
  endfacet
  facet normal -0.587785 0 0.809017
    outer loop
      vertex 28.75 5 -49.7965
      vertex 38.475 0 -42.7308
      vertex 38.475 5 -42.7308
    endloop
  endfacet
  facet normal -0.587785 0 0.809017
    outer loop
      vertex 38.475 0 -42.7308
      vertex 28.75 5 -49.7965
      vertex 28.75 0 -49.7965
    endloop
  endfacet
  facet normal -0.951056 0 0.309017
    outer loop
      vertex 52.5289 0 -23.3874
      vertex 53.7757 5 -19.55
      vertex 52.5289 5 -23.3874
    endloop
  endfacet
  facet normal -0.951056 0 0.309017
    outer loop
      vertex 53.7757 5 -19.55
      vertex 52.5289 0 -23.3874
      vertex 53.7757 0 -19.55
    endloop
  endfacet
  facet normal -0.866026 0 0.5
    outer loop
      vertex 46.5185 0 -33.7977
      vertex 52.5289 5 -23.3874
      vertex 46.5185 5 -33.7977
    endloop
  endfacet
  facet normal -0.866026 0 0.5
    outer loop
      vertex 52.5289 5 -23.3874
      vertex 46.5185 0 -33.7977
      vertex 52.5289 0 -23.3874
    endloop
  endfacet
  facet normal 0.587785 0 0.809017
    outer loop
      vertex -38.475 5 -42.7308
      vertex -28.75 0 -49.7965
      vertex -28.75 5 -49.7965
    endloop
  endfacet
  facet normal 0.587785 0 0.809017
    outer loop
      vertex -28.75 0 -49.7965
      vertex -38.475 5 -42.7308
      vertex -38.475 0 -42.7308
    endloop
  endfacet
  facet normal 0.743145 -0 0.669131
    outer loop
      vertex -46.5185 0 -33.7977
      vertex -38.475 5 -42.7308
      vertex -46.5185 5 -33.7977
    endloop
  endfacet
  facet normal 0.743145 0 0.669131
    outer loop
      vertex -38.475 5 -42.7308
      vertex -46.5185 0 -33.7977
      vertex -38.475 0 -42.7308
    endloop
  endfacet
  facet normal 0.951056 -0 0.309017
    outer loop
      vertex -53.7757 0 -19.55
      vertex -52.5289 5 -23.3874
      vertex -53.7757 5 -19.55
    endloop
  endfacet
  facet normal 0.951056 0 0.309017
    outer loop
      vertex -52.5289 5 -23.3874
      vertex -53.7757 0 -19.55
      vertex -52.5289 0 -23.3874
    endloop
  endfacet
  facet normal 0.866026 -0 0.5
    outer loop
      vertex -52.5289 0 -23.3874
      vertex -46.5185 5 -33.7977
      vertex -52.5289 5 -23.3874
    endloop
  endfacet
  facet normal 0.866026 0 0.5
    outer loop
      vertex -46.5185 5 -33.7977
      vertex -52.5289 0 -23.3874
      vertex -46.5185 0 -33.7977
    endloop
  endfacet
  facet normal -0 0 1
    outer loop
      vertex -6.01039 5 -57.185
      vertex 6.01039 0 -57.185
      vertex 6.01039 5 -57.185
    endloop
  endfacet
  facet normal 0 0 1
    outer loop
      vertex 6.01039 0 -57.185
      vertex -6.01039 5 -57.185
      vertex -6.01039 0 -57.185
    endloop
  endfacet
  facet normal 0.406737 0 0.913545
    outer loop
      vertex -28.75 5 -49.7965
      vertex -17.7685 0 -54.6857
      vertex -17.7685 5 -54.6857
    endloop
  endfacet
  facet normal 0.406737 0 0.913545
    outer loop
      vertex -17.7685 0 -54.6857
      vertex -28.75 5 -49.7965
      vertex -28.75 0 -49.7965
    endloop
  endfacet
  facet normal 0.207912 0 0.978148
    outer loop
      vertex -17.7685 5 -54.6857
      vertex -6.01039 0 -57.185
      vertex -6.01039 5 -57.185
    endloop
  endfacet
  facet normal 0.207912 0 0.978148
    outer loop
      vertex -6.01039 0 -57.185
      vertex -17.7685 5 -54.6857
      vertex -17.7685 0 -54.6857
    endloop
  endfacet
endsolid OpenSCAD_Model
