solid OpenSCAD_Model
  facet normal 1 -0 0
    outer loop
      vertex -61.5 0 -25.55
      vertex -61.5 32 -61.5
      vertex -61.5 32 -25.55
    endloop
  endfacet
  facet normal 1 0 0
    outer loop
      vertex -61.5 32 -61.5
      vertex -61.5 0 -25.55
      vertex -61.5 0 -61.5
    endloop
  endfacet
  facet normal 0 0 -1
    outer loop
      vertex -61.5 0 -25.55
      vertex -58.0178 32 -25.55
      vertex -58.0178 0 -25.55
    endloop
  endfacet
  facet normal -0 0 -1
    outer loop
      vertex -58.0178 32 -25.55
      vertex -61.5 0 -25.55
      vertex -61.5 32 -25.55
    endloop
  endfacet
  facet normal 0 0 -1
    outer loop
      vertex 58.0178 0 -25.55
      vertex 61.5 32 -25.55
      vertex 61.5 0 -25.55
    endloop
  endfacet
  facet normal -0 0 -1
    outer loop
      vertex 61.5 32 -25.55
      vertex 58.0178 0 -25.55
      vertex 58.0178 32 -25.55
    endloop
  endfacet
  facet normal -1 0 0
    outer loop
      vertex 61.5 0 -65.9
      vertex 61.5 32 -25.55
      vertex 61.5 32 -65.9
    endloop
  endfacet
  facet normal -1 -0 0
    outer loop
      vertex 61.5 32 -25.55
      vertex 61.5 0 -65.9
      vertex 61.5 0 -25.55
    endloop
  endfacet
  facet normal -0 0 1
    outer loop
      vertex 15.3075 32 -61.5
      vertex 29.5 0 -61.5
      vertex 29.5 32 -61.5
    endloop
  endfacet
  facet normal 0 0 1
    outer loop
      vertex 29.5 0 -61.5
      vertex 15.3075 32 -61.5
      vertex 15.3075 0 -61.5
    endloop
  endfacet
  facet normal -0 0 1
    outer loop
      vertex -61.5 32 -61.5
      vertex -15.3075 0 -61.5
      vertex -15.3075 32 -61.5
    endloop
  endfacet
  facet normal 0 0 1
    outer loop
      vertex -15.3075 0 -61.5
      vertex -61.5 32 -61.5
      vertex -61.5 0 -61.5
    endloop
  endfacet
  facet normal 0.481754 0 -0.876307
    outer loop
      vertex 29.8683 0 -55.9
      vertex 34.025 32 -53.6148
      vertex 34.025 0 -53.6148
    endloop
  endfacet
  facet normal 0.481754 0 -0.876307
    outer loop
      vertex 34.025 32 -53.6148
      vertex 29.8683 0 -55.9
      vertex 29.8683 32 -55.9
    endloop
  endfacet
  facet normal 0.481753 0 -0.876307
    outer loop
      vertex 27.037 0 -57.4565
      vertex 29.5 32 -56.1025
      vertex 29.5 0 -56.1025
    endloop
  endfacet
  facet normal 0.481753 0 -0.876307
    outer loop
      vertex 29.5 32 -56.1025
      vertex 27.037 0 -57.4565
      vertex 27.037 32 -57.4565
    endloop
  endfacet
  facet normal 0.368125 0 -0.929776
    outer loop
      vertex 19.6226 0 -60.3921
      vertex 27.037 32 -57.4565
      vertex 27.037 0 -57.4565
    endloop
  endfacet
  facet normal 0.368125 0 -0.929776
    outer loop
      vertex 27.037 32 -57.4565
      vertex 19.6226 0 -60.3921
      vertex 19.6226 32 -60.3921
    endloop
  endfacet
  facet normal 0.24869 0 -0.968583
    outer loop
      vertex 15.3075 0 -61.5
      vertex 19.6226 32 -60.3921
      vertex 19.6226 0 -60.3921
    endloop
  endfacet
  facet normal 0.24869 0 -0.968583
    outer loop
      vertex 19.6226 32 -60.3921
      vertex 15.3075 0 -61.5
      vertex 15.3075 32 -61.5
    endloop
  endfacet
  facet normal 0.684547 0 -0.728969
    outer loop
      vertex 40.4764 0 -48.9276
      vertex 46.2895 32 -43.4687
      vertex 46.2895 0 -43.4687
    endloop
  endfacet
  facet normal 0.684547 0 -0.728969
    outer loop
      vertex 46.2895 32 -43.4687
      vertex 40.4764 0 -48.9276
      vertex 40.4764 32 -48.9276
    endloop
  endfacet
  facet normal 0.587785 0 -0.809017
    outer loop
      vertex 34.025 0 -53.6148
      vertex 40.4764 32 -48.9276
      vertex 40.4764 0 -48.9276
    endloop
  endfacet
  facet normal 0.587785 0 -0.809017
    outer loop
      vertex 40.4764 32 -48.9276
      vertex 34.025 0 -53.6148
      vertex 34.025 32 -53.6148
    endloop
  endfacet
  facet normal 0.844328 0 -0.535827
    outer loop
      vertex 55.6455 0 -30.5914
      vertex 51.3726 32 -37.3244
      vertex 55.6455 32 -30.5914
    endloop
  endfacet
  facet normal 0.844328 0 -0.535827
    outer loop
      vertex 51.3726 32 -37.3244
      vertex 55.6455 0 -30.5914
      vertex 51.3726 0 -37.3244
    endloop
  endfacet
  facet normal 0.904827 0 -0.425779
    outer loop
      vertex 58.0178 0 -25.55
      vertex 55.6455 32 -30.5914
      vertex 58.0178 32 -25.55
    endloop
  endfacet
  facet normal 0.904827 0 -0.425779
    outer loop
      vertex 55.6455 32 -30.5914
      vertex 58.0178 0 -25.55
      vertex 55.6455 0 -30.5914
    endloop
  endfacet
  facet normal -0.481754 0 -0.876307
    outer loop
      vertex -34.025 0 -53.6148
      vertex -27.037 32 -57.4565
      vertex -27.037 0 -57.4565
    endloop
  endfacet
  facet normal -0.481754 0 -0.876307
    outer loop
      vertex -27.037 32 -57.4565
      vertex -34.025 0 -53.6148
      vertex -34.025 32 -53.6148
    endloop
  endfacet
  facet normal -0.24869 0 -0.968583
    outer loop
      vertex -19.6226 0 -60.3921
      vertex -15.3075 32 -61.5
      vertex -15.3075 0 -61.5
    endloop
  endfacet
  facet normal -0.24869 0 -0.968583
    outer loop
      vertex -15.3075 32 -61.5
      vertex -19.6226 0 -60.3921
      vertex -19.6226 32 -60.3921
    endloop
  endfacet
  facet normal -0.770513 0 -0.637424
    outer loop
      vertex -46.2895 0 -43.4687
      vertex -51.3726 32 -37.3244
      vertex -46.2895 32 -43.4687
    endloop
  endfacet
  facet normal -0.770513 -0 -0.637424
    outer loop
      vertex -51.3726 32 -37.3244
      vertex -46.2895 0 -43.4687
      vertex -51.3726 0 -37.3244
    endloop
  endfacet
  facet normal -0.904827 0 -0.425779
    outer loop
      vertex -55.6455 0 -30.5914
      vertex -58.0178 32 -25.55
      vertex -55.6455 32 -30.5914
    endloop
  endfacet
  facet normal -0.904827 -0 -0.425779
    outer loop
      vertex -58.0178 32 -25.55
      vertex -55.6455 0 -30.5914
      vertex -58.0178 0 -25.55
    endloop
  endfacet
  facet normal -0.684547 0 -0.728969
    outer loop
      vertex -46.2895 0 -43.4687
      vertex -40.4764 32 -48.9276
      vertex -40.4764 0 -48.9276
    endloop
  endfacet
  facet normal -0.684547 0 -0.728969
    outer loop
      vertex -40.4764 32 -48.9276
      vertex -46.2895 0 -43.4687
      vertex -46.2895 32 -43.4687
    endloop
  endfacet
  facet normal 0.770513 0 -0.637424
    outer loop
      vertex 51.3726 0 -37.3244
      vertex 46.2895 32 -43.4687
      vertex 51.3726 32 -37.3244
    endloop
  endfacet
  facet normal 0.770513 0 -0.637424
    outer loop
      vertex 46.2895 32 -43.4687
      vertex 51.3726 0 -37.3244
      vertex 46.2895 0 -43.4687
    endloop
  endfacet
  facet normal -0.587785 0 -0.809017
    outer loop
      vertex -40.4764 0 -48.9276
      vertex -34.025 32 -53.6148
      vertex -34.025 0 -53.6148
    endloop
  endfacet
  facet normal -0.587785 0 -0.809017
    outer loop
      vertex -34.025 32 -53.6148
      vertex -40.4764 0 -48.9276
      vertex -40.4764 32 -48.9276
    endloop
  endfacet
  facet normal -0.368125 0 -0.929776
    outer loop
      vertex -27.037 0 -57.4565
      vertex -19.6226 32 -60.3921
      vertex -19.6226 0 -60.3921
    endloop
  endfacet
  facet normal -0.368125 0 -0.929776
    outer loop
      vertex -19.6226 32 -60.3921
      vertex -27.037 0 -57.4565
      vertex -27.037 32 -57.4565
    endloop
  endfacet
  facet normal -0.844328 0 -0.535827
    outer loop
      vertex -51.3726 0 -37.3244
      vertex -55.6455 32 -30.5914
      vertex -51.3726 32 -37.3244
    endloop
  endfacet
  facet normal -0.844328 -0 -0.535827
    outer loop
      vertex -55.6455 32 -30.5914
      vertex -51.3726 0 -37.3244
      vertex -55.6455 0 -30.5914
    endloop
  endfacet
  facet normal -1 0 0
    outer loop
      vertex -67.5 0 -67.5
      vertex -67.5 32 -19.55
      vertex -67.5 32 -67.5
    endloop
  endfacet
  facet normal -1 -0 0
    outer loop
      vertex -67.5 32 -19.55
      vertex -67.5 0 -67.5
      vertex -67.5 0 -19.55
    endloop
  endfacet
  facet normal -0 0 1
    outer loop
      vertex -67.5 32 -19.55
      vertex -53.9876 0 -19.55
      vertex -53.9876 32 -19.55
    endloop
  endfacet
  facet normal 0 0 1
    outer loop
      vertex -53.9876 0 -19.55
      vertex -67.5 32 -19.55
      vertex -67.5 0 -19.55
    endloop
  endfacet
  facet normal -0 0 1
    outer loop
      vertex 53.9876 32 -19.55
      vertex 67.51 0 -19.55
      vertex 67.51 32 -19.55
    endloop
  endfacet
  facet normal 0 0 1
    outer loop
      vertex 67.51 0 -19.55
      vertex 53.9876 32 -19.55
      vertex 53.9876 0 -19.55
    endloop
  endfacet
  facet normal 1 -0 0
    outer loop
      vertex 97.5 0 -61.51
      vertex 97.5 32 -87.49
      vertex 97.5 32 -61.51
    endloop
  endfacet
  facet normal 1 0 0
    outer loop
      vertex 97.5 32 -87.49
      vertex 97.5 0 -61.51
      vertex 97.5 0 -87.49
    endloop
  endfacet
  facet normal 0 1 -0
    outer loop
      vertex 61.5 32 -25.55
      vertex 53.9876 32 -19.55
      vertex 67.51 32 -19.55
    endloop
  endfacet
  facet normal 0 1 -0
    outer loop
      vertex 58.0178 32 -25.55
      vertex 53.9876 32 -19.55
      vertex 61.5 32 -25.55
    endloop
  endfacet
  facet normal 0 1 -0
    outer loop
      vertex 67.51 32 -61.51
      vertex 61.5 32 -25.55
      vertex 67.51 32 -19.55
    endloop
  endfacet
  facet normal 0 1 0
    outer loop
      vertex 61.5 32 -25.55
      vertex 67.51 32 -61.51
      vertex 61.5 32 -65.9
    endloop
  endfacet
  facet normal 0 1 0
    outer loop
      vertex 53.9876 32 -19.55
      vertex 58.0178 32 -25.55
      vertex 53.4621 32 -21.1672
    endloop
  endfacet
  facet normal 0 1 0
    outer loop
      vertex 58.0178 32 -25.55
      vertex 50.3876 32 -27.7008
      vertex 53.4621 32 -21.1672
    endloop
  endfacet
  facet normal 0 1 -0
    outer loop
      vertex 55.6455 32 -30.5914
      vertex 50.3876 32 -27.7008
      vertex 58.0178 32 -25.55
    endloop
  endfacet
  facet normal 0 1 0
    outer loop
      vertex 55.6455 32 -30.5914
      vertex 46.5185 32 -33.7977
      vertex 50.3876 32 -27.7008
    endloop
  endfacet
  facet normal 0 1 -0
    outer loop
      vertex 51.3726 32 -37.3244
      vertex 46.5185 32 -33.7977
      vertex 55.6455 32 -30.5914
    endloop
  endfacet
  facet normal 0 1 0
    outer loop
      vertex 51.3726 32 -37.3244
      vertex 41.9157 32 -39.3615
      vertex 46.5185 32 -33.7977
    endloop
  endfacet
  facet normal 0 1 -0
    outer loop
      vertex 46.2895 32 -43.4687
      vertex 41.9157 32 -39.3615
      vertex 51.3726 32 -37.3244
    endloop
  endfacet
  facet normal 0 1 0
    outer loop
      vertex 46.2895 32 -43.4687
      vertex 36.6519 32 -44.3045
      vertex 41.9157 32 -39.3615
    endloop
  endfacet
  facet normal 0 1 -0
    outer loop
      vertex 40.4764 32 -48.9276
      vertex 36.6519 32 -44.3045
      vertex 46.2895 32 -43.4687
    endloop
  endfacet
  facet normal 0 1 0
    outer loop
      vertex 36.6519 32 -44.3045
      vertex 40.4764 32 -48.9276
      vertex 30.81 32 -48.5489
    endloop
  endfacet
  facet normal 0 1 -0
    outer loop
      vertex 34.025 32 -53.6148
      vertex 30.81 32 -48.5489
      vertex 40.4764 32 -48.9276
    endloop
  endfacet
  facet normal 0 1 0
    outer loop
      vertex 29.8683 32 -55.9
      vertex 30.81 32 -48.5489
      vertex 34.025 32 -53.6148
    endloop
  endfacet
  facet normal 0 1 0
    outer loop
      vertex 30.81 32 -48.5489
      vertex 29.5 32 -55.9
      vertex 24.4823 32 -52.0276
    endloop
  endfacet
  facet normal 0 1 0
    outer loop
      vertex 30.81 32 -48.5489
      vertex 29.8683 32 -55.9
      vertex 29.5 32 -55.9
    endloop
  endfacet
  facet normal 0 1 -0
    outer loop
      vertex 27.037 32 -57.4565
      vertex 24.4823 32 -52.0276
      vertex 29.5 32 -55.9
    endloop
  endfacet
  facet normal 0 1 0
    outer loop
      vertex 27.037 32 -57.4565
      vertex 29.5 32 -55.9
      vertex 29.5 32 -56.1025
    endloop
  endfacet
  facet normal 0 1 0
    outer loop
      vertex 24.4823 32 -52.0276
      vertex 27.037 32 -57.4565
      vertex 17.7685 32 -54.6857
    endloop
  endfacet
  facet normal 0 1 -0
    outer loop
      vertex 19.6226 32 -60.3921
      vertex 17.7685 32 -54.6857
      vertex 27.037 32 -57.4565
    endloop
  endfacet
  facet normal 0 1 0
    outer loop
      vertex 17.7685 32 -54.6857
      vertex 15.3075 32 -61.5
      vertex 10.7744 32 -56.4815
    endloop
  endfacet
  facet normal 0 1 0
    outer loop
      vertex 15.3075 32 -61.5
      vertex 17.7685 32 -54.6857
      vertex 19.6226 32 -60.3921
    endloop
  endfacet
  facet normal 0 1 0
    outer loop
      vertex -50.3876 32 -27.7008
      vertex -58.0178 32 -25.55
      vertex -53.4621 32 -21.1672
    endloop
  endfacet
  facet normal 0 1 0
    outer loop
      vertex -50.3876 32 -27.7008
      vertex -55.6455 32 -30.5914
      vertex -58.0178 32 -25.55
    endloop
  endfacet
  facet normal 0 1 0
    outer loop
      vertex -46.5185 32 -33.7977
      vertex -55.6455 32 -30.5914
      vertex -50.3876 32 -27.7008
    endloop
  endfacet
  facet normal 0 1 0
    outer loop
      vertex -46.5185 32 -33.7977
      vertex -51.3726 32 -37.3244
      vertex -55.6455 32 -30.5914
    endloop
  endfacet
  facet normal 0 1 0
    outer loop
      vertex -41.9157 32 -39.3615
      vertex -51.3726 32 -37.3244
      vertex -46.5185 32 -33.7977
    endloop
  endfacet
  facet normal 0 1 0
    outer loop
      vertex -41.9157 32 -39.3615
      vertex -46.2895 32 -43.4687
      vertex -51.3726 32 -37.3244
    endloop
  endfacet
  facet normal 0 1 0
    outer loop
      vertex -36.6519 32 -44.3045
      vertex -46.2895 32 -43.4687
      vertex -41.9157 32 -39.3615
    endloop
  endfacet
  facet normal 0 1 0
    outer loop
      vertex -40.4764 32 -48.9276
      vertex -36.6519 32 -44.3045
      vertex -30.81 32 -48.5489
    endloop
  endfacet
  facet normal 0 1 0
    outer loop
      vertex -36.6519 32 -44.3045
      vertex -40.4764 32 -48.9276
      vertex -46.2895 32 -43.4687
    endloop
  endfacet
  facet normal 0 1 0
    outer loop
      vertex -34.025 32 -53.6148
      vertex -30.81 32 -48.5489
      vertex -24.4823 32 -52.0276
    endloop
  endfacet
  facet normal 0 1 0
    outer loop
      vertex -30.81 32 -48.5489
      vertex -34.025 32 -53.6148
      vertex -40.4764 32 -48.9276
    endloop
  endfacet
  facet normal 0 1 0
    outer loop
      vertex -27.037 32 -57.4565
      vertex -24.4823 32 -52.0276
      vertex -17.7685 32 -54.6857
    endloop
  endfacet
  facet normal 0 1 -0
    outer loop
      vertex -15.3075 32 -61.5
      vertex -17.7685 32 -54.6857
      vertex -10.7744 32 -56.4815
    endloop
  endfacet
  facet normal 0 1 0
    outer loop
      vertex -15.3075 32 -61.5
      vertex -10.7744 32 -56.4815
      vertex -3.61045 32 -57.3865
    endloop
  endfacet
  facet normal 0 1 0
    outer loop
      vertex -24.4823 32 -52.0276
      vertex -27.037 32 -57.4565
      vertex -34.025 32 -53.6148
    endloop
  endfacet
  facet normal 0 1 0
    outer loop
      vertex 10.7744 32 -56.4815
      vertex 15.3075 32 -61.5
      vertex 3.61045 32 -57.3865
    endloop
  endfacet
  facet normal 0 1 0
    outer loop
      vertex 3.61045 32 -57.3865
      vertex 15.3075 32 -61.5
      vertex -3.61045 32 -57.3865
    endloop
  endfacet
  facet normal 0 1 0
    outer loop
      vertex -15.3075 32 -61.5
      vertex -3.61045 32 -57.3865
      vertex 15.3075 32 -61.5
    endloop
  endfacet
  facet normal 0 1 0
    outer loop
      vertex -17.7685 32 -54.6857
      vertex -15.3075 32 -61.5
      vertex -19.6226 32 -60.3921
    endloop
  endfacet
  facet normal 0 1 0
    outer loop
      vertex -17.7685 32 -54.6857
      vertex -19.6226 32 -60.3921
      vertex -27.037 32 -57.4565
    endloop
  endfacet
  facet normal 0 1 0
    outer loop
      vertex -58.0178 32 -25.55
      vertex -53.9876 32 -19.55
      vertex -53.4621 32 -21.1672
    endloop
  endfacet
  facet normal 0 1 0
    outer loop
      vertex -53.9876 32 -19.55
      vertex -58.0178 32 -25.55
      vertex -61.5 32 -25.55
    endloop
  endfacet
  facet normal 0 1 0
    outer loop
      vertex -53.9876 32 -19.55
      vertex -61.5 32 -25.55
      vertex -67.5 32 -19.55
    endloop
  endfacet
  facet normal 0 1 -0
    outer loop
      vertex -61.5 32 -61.5
      vertex -67.5 32 -19.55
      vertex -61.5 32 -25.55
    endloop
  endfacet
  facet normal 0 1 0
    outer loop
      vertex -61.5 32 -61.5
      vertex -67.5 32 -67.5
      vertex -67.5 32 -19.55
    endloop
  endfacet
  facet normal 0 1 0
    outer loop
      vertex -15.3075 32 -61.5
      vertex -67.5 32 -67.5
      vertex -61.5 32 -61.5
    endloop
  endfacet
  facet normal 0 1 0
    outer loop
      vertex -67.5 32 -67.5
      vertex 29.5 32 -65.9
      vertex 91.5 32 -67.5
    endloop
  endfacet
  facet normal 0 1 -0
    outer loop
      vertex 91.5 32 -67.5
      vertex 67.51 32 -61.51
      vertex 97.5 32 -61.51
    endloop
  endfacet
  facet normal 0 1 0
    outer loop
      vertex 61.5 32 -65.9
      vertex 91.5 32 -67.5
      vertex 29.5 32 -65.9
    endloop
  endfacet
  facet normal 0 1 0
    outer loop
      vertex 67.51 32 -61.51
      vertex 91.5 32 -67.5
      vertex 61.5 32 -65.9
    endloop
  endfacet
  facet normal 0 1 -0
    outer loop
      vertex 97.5 32 -87.49
      vertex 91.5 32 -67.5
      vertex 97.5 32 -61.51
    endloop
  endfacet
  facet normal 0 1 0
    outer loop
      vertex 91.5 32 -67.5
      vertex 97.5 32 -87.49
      vertex 91.5 32 -87.49
    endloop
  endfacet
  facet normal 0 1 -0
    outer loop
      vertex 29.5 32 -65.9
      vertex 15.3075 32 -61.5
      vertex 29.5 32 -61.5
    endloop
  endfacet
  facet normal 0 1 0
    outer loop
      vertex 15.3075 32 -61.5
      vertex 29.5 32 -65.9
      vertex -15.3075 32 -61.5
    endloop
  endfacet
  facet normal 0 1 0
    outer loop
      vertex -67.5 32 -67.5
      vertex -15.3075 32 -61.5
      vertex 29.5 32 -65.9
    endloop
  endfacet
  facet normal 0 0 -1
    outer loop
      vertex -67.5 0 -67.5
      vertex 91.5 32 -67.5
      vertex 91.5 0 -67.5
    endloop
  endfacet
  facet normal -0 0 -1
    outer loop
      vertex 91.5 32 -67.5
      vertex -67.5 0 -67.5
      vertex -67.5 32 -67.5
    endloop
  endfacet
  facet normal 0 -1 0
    outer loop
      vertex -61.5 0 -25.55
      vertex -53.9876 0 -19.55
      vertex -67.5 0 -19.55
    endloop
  endfacet
  facet normal 0 -1 0
    outer loop
      vertex -58.0178 0 -25.55
      vertex -53.9876 0 -19.55
      vertex -61.5 0 -25.55
    endloop
  endfacet
  facet normal 0 -1 0
    outer loop
      vertex -67.5 0 -19.55
      vertex -61.5 0 -61.5
      vertex -61.5 0 -25.55
    endloop
  endfacet
  facet normal 0 -1 0
    outer loop
      vertex -67.5 0 -67.5
      vertex -15.3075 0 -61.5
      vertex -61.5 0 -61.5
    endloop
  endfacet
  facet normal -0 -1 0
    outer loop
      vertex 29.5 0 -65.9
      vertex -15.3075 0 -61.5
      vertex -67.5 0 -67.5
    endloop
  endfacet
  facet normal 0 -1 0
    outer loop
      vertex 15.3075 0 -61.5
      vertex 29.5 0 -65.9
      vertex 29.5 0 -61.5
    endloop
  endfacet
  facet normal 0 -1 0
    outer loop
      vertex 91.5 0 -67.5
      vertex 29.5 0 -65.9
      vertex -67.5 0 -67.5
    endloop
  endfacet
  facet normal 0 -1 0
    outer loop
      vertex -15.3075 0 -61.5
      vertex 29.5 0 -65.9
      vertex 15.3075 0 -61.5
    endloop
  endfacet
  facet normal 0 -1 0
    outer loop
      vertex -67.5 0 -67.5
      vertex -61.5 0 -61.5
      vertex -67.5 0 -19.55
    endloop
  endfacet
  facet normal 0 -1 -0
    outer loop
      vertex -53.9876 0 -19.55
      vertex -58.0178 0 -25.55
      vertex -53.4621 0 -21.1672
    endloop
  endfacet
  facet normal 0 -1 0
    outer loop
      vertex -58.0178 0 -25.55
      vertex -50.3876 0 -27.7008
      vertex -53.4621 0 -21.1672
    endloop
  endfacet
  facet normal 0 -1 0
    outer loop
      vertex -55.6455 0 -30.5914
      vertex -50.3876 0 -27.7008
      vertex -58.0178 0 -25.55
    endloop
  endfacet
  facet normal 0 -1 0
    outer loop
      vertex -55.6455 0 -30.5914
      vertex -46.5185 0 -33.7977
      vertex -50.3876 0 -27.7008
    endloop
  endfacet
  facet normal 0 -1 0
    outer loop
      vertex -51.3726 0 -37.3244
      vertex -46.5185 0 -33.7977
      vertex -55.6455 0 -30.5914
    endloop
  endfacet
  facet normal 0 -1 0
    outer loop
      vertex -51.3726 0 -37.3244
      vertex -41.9157 0 -39.3615
      vertex -46.5185 0 -33.7977
    endloop
  endfacet
  facet normal 0 -1 0
    outer loop
      vertex -46.2895 0 -43.4687
      vertex -41.9157 0 -39.3615
      vertex -51.3726 0 -37.3244
    endloop
  endfacet
  facet normal 0 -1 0
    outer loop
      vertex -46.2895 0 -43.4687
      vertex -36.6519 0 -44.3045
      vertex -41.9157 0 -39.3615
    endloop
  endfacet
  facet normal 0 -1 0
    outer loop
      vertex -40.4764 0 -48.9276
      vertex -36.6519 0 -44.3045
      vertex -46.2895 0 -43.4687
    endloop
  endfacet
  facet normal 0 -1 -0
    outer loop
      vertex -36.6519 0 -44.3045
      vertex -40.4764 0 -48.9276
      vertex -30.81 0 -48.5489
    endloop
  endfacet
  facet normal 0 -1 0
    outer loop
      vertex -34.025 0 -53.6148
      vertex -30.81 0 -48.5489
      vertex -40.4764 0 -48.9276
    endloop
  endfacet
  facet normal 0 -1 -0
    outer loop
      vertex -30.81 0 -48.5489
      vertex -34.025 0 -53.6148
      vertex -24.4823 0 -52.0276
    endloop
  endfacet
  facet normal 0 -1 0
    outer loop
      vertex -27.037 0 -57.4565
      vertex -24.4823 0 -52.0276
      vertex -34.025 0 -53.6148
    endloop
  endfacet
  facet normal 0 -1 -0
    outer loop
      vertex -24.4823 0 -52.0276
      vertex -27.037 0 -57.4565
      vertex -17.7685 0 -54.6857
    endloop
  endfacet
  facet normal 0 -1 0
    outer loop
      vertex -19.6226 0 -60.3921
      vertex -17.7685 0 -54.6857
      vertex -27.037 0 -57.4565
    endloop
  endfacet
  facet normal 0 -1 0
    outer loop
      vertex -17.7685 0 -54.6857
      vertex -15.3075 0 -61.5
      vertex -10.7744 0 -56.4815
    endloop
  endfacet
  facet normal 0 -1 0
    outer loop
      vertex -15.3075 0 -61.5
      vertex -17.7685 0 -54.6857
      vertex -19.6226 0 -60.3921
    endloop
  endfacet
  facet normal 0 -1 0
    outer loop
      vertex 24.4823 0 -52.0276
      vertex 29.5 0 -56.1025
      vertex 29.5 0 -55.9
    endloop
  endfacet
  facet normal 0 -1 0
    outer loop
      vertex 15.3075 0 -61.5
      vertex 17.7685 0 -54.6857
      vertex 10.7744 0 -56.4815
    endloop
  endfacet
  facet normal 0 -1 0
    outer loop
      vertex 15.3075 0 -61.5
      vertex 10.7744 0 -56.4815
      vertex 3.61045 0 -57.3865
    endloop
  endfacet
  facet normal 0 -1 0
    outer loop
      vertex 24.4823 0 -52.0276
      vertex 27.037 0 -57.4565
      vertex 29.5 0 -56.1025
    endloop
  endfacet
  facet normal 0 -1 -0
    outer loop
      vertex -10.7744 0 -56.4815
      vertex -15.3075 0 -61.5
      vertex -3.61045 0 -57.3865
    endloop
  endfacet
  facet normal 0 -1 -0
    outer loop
      vertex -3.61045 0 -57.3865
      vertex -15.3075 0 -61.5
      vertex 3.61045 0 -57.3865
    endloop
  endfacet
  facet normal 0 -1 0
    outer loop
      vertex 15.3075 0 -61.5
      vertex 3.61045 0 -57.3865
      vertex -15.3075 0 -61.5
    endloop
  endfacet
  facet normal 0 -1 -0
    outer loop
      vertex 17.7685 0 -54.6857
      vertex 15.3075 0 -61.5
      vertex 19.6226 0 -60.3921
    endloop
  endfacet
  facet normal 0 -1 0
    outer loop
      vertex 17.7685 0 -54.6857
      vertex 19.6226 0 -60.3921
      vertex 27.037 0 -57.4565
    endloop
  endfacet
  facet normal 0 -1 0
    outer loop
      vertex 50.3876 0 -27.7008
      vertex 58.0178 0 -25.55
      vertex 53.4621 0 -21.1672
    endloop
  endfacet
  facet normal 0 -1 0
    outer loop
      vertex 50.3876 0 -27.7008
      vertex 55.6455 0 -30.5914
      vertex 58.0178 0 -25.55
    endloop
  endfacet
  facet normal 0 -1 0
    outer loop
      vertex 46.5185 0 -33.7977
      vertex 55.6455 0 -30.5914
      vertex 50.3876 0 -27.7008
    endloop
  endfacet
  facet normal 0 -1 0
    outer loop
      vertex 46.5185 0 -33.7977
      vertex 51.3726 0 -37.3244
      vertex 55.6455 0 -30.5914
    endloop
  endfacet
  facet normal 0 -1 0
    outer loop
      vertex 41.9157 0 -39.3615
      vertex 51.3726 0 -37.3244
      vertex 46.5185 0 -33.7977
    endloop
  endfacet
  facet normal 0 -1 0
    outer loop
      vertex 41.9157 0 -39.3615
      vertex 46.2895 0 -43.4687
      vertex 51.3726 0 -37.3244
    endloop
  endfacet
  facet normal 0 -1 0
    outer loop
      vertex 36.6519 0 -44.3045
      vertex 46.2895 0 -43.4687
      vertex 41.9157 0 -39.3615
    endloop
  endfacet
  facet normal 0 -1 0
    outer loop
      vertex 40.4764 0 -48.9276
      vertex 36.6519 0 -44.3045
      vertex 30.81 0 -48.5489
    endloop
  endfacet
  facet normal 0 -1 0
    outer loop
      vertex 36.6519 0 -44.3045
      vertex 40.4764 0 -48.9276
      vertex 46.2895 0 -43.4687
    endloop
  endfacet
  facet normal 0 -1 0
    outer loop
      vertex 29.5 0 -55.9
      vertex 30.81 0 -48.5489
      vertex 24.4823 0 -52.0276
    endloop
  endfacet
  facet normal 0 -1 0
    outer loop
      vertex 30.81 0 -48.5489
      vertex 34.025 0 -53.6148
      vertex 40.4764 0 -48.9276
    endloop
  endfacet
  facet normal 0 -1 0
    outer loop
      vertex 27.037 0 -57.4565
      vertex 24.4823 0 -52.0276
      vertex 17.7685 0 -54.6857
    endloop
  endfacet
  facet normal 0 -1 0
    outer loop
      vertex 29.8683 0 -55.9
      vertex 30.81 0 -48.5489
      vertex 29.5 0 -55.9
    endloop
  endfacet
  facet normal 0 -1 -0
    outer loop
      vertex 30.81 0 -48.5489
      vertex 29.8683 0 -55.9
      vertex 34.025 0 -53.6148
    endloop
  endfacet
  facet normal 0 -1 0
    outer loop
      vertex 58.0178 0 -25.55
      vertex 53.9876 0 -19.55
      vertex 53.4621 0 -21.1672
    endloop
  endfacet
  facet normal 0 -1 0
    outer loop
      vertex 53.9876 0 -19.55
      vertex 58.0178 0 -25.55
      vertex 61.5 0 -25.55
    endloop
  endfacet
  facet normal 0 -1 0
    outer loop
      vertex 53.9876 0 -19.55
      vertex 61.5 0 -25.55
      vertex 67.51 0 -19.55
    endloop
  endfacet
  facet normal 0 -1 0
    outer loop
      vertex 61.5 0 -25.55
      vertex 67.51 0 -61.51
      vertex 67.51 0 -19.55
    endloop
  endfacet
  facet normal 0 -1 0
    outer loop
      vertex 61.5 0 -65.9
      vertex 67.51 0 -61.51
      vertex 61.5 0 -25.55
    endloop
  endfacet
  facet normal 0 -1 0
    outer loop
      vertex 91.5 0 -67.5
      vertex 67.51 0 -61.51
      vertex 61.5 0 -65.9
    endloop
  endfacet
  facet normal 0 -1 0
    outer loop
      vertex 29.5 0 -65.9
      vertex 91.5 0 -67.5
      vertex 61.5 0 -65.9
    endloop
  endfacet
  facet normal 0 -1 0
    outer loop
      vertex 67.51 0 -61.51
      vertex 91.5 0 -67.5
      vertex 97.5 0 -61.51
    endloop
  endfacet
  facet normal 0 -1 0
    outer loop
      vertex 97.5 0 -87.49
      vertex 91.5 0 -67.5
      vertex 91.5 0 -87.49
    endloop
  endfacet
  facet normal 0 -1 0
    outer loop
      vertex 91.5 0 -67.5
      vertex 97.5 0 -87.49
      vertex 97.5 0 -61.51
    endloop
  endfacet
  facet normal -1 0 0
    outer loop
      vertex 91.5 0 -87.49
      vertex 91.5 32 -67.5
      vertex 91.5 32 -87.49
    endloop
  endfacet
  facet normal -1 -0 0
    outer loop
      vertex 91.5 32 -67.5
      vertex 91.5 0 -87.49
      vertex 91.5 0 -67.5
    endloop
  endfacet
  facet normal 0 0 -1
    outer loop
      vertex 91.5 0 -87.49
      vertex 97.5 32 -87.49
      vertex 97.5 0 -87.49
    endloop
  endfacet
  facet normal -0 0 -1
    outer loop
      vertex 97.5 32 -87.49
      vertex 91.5 0 -87.49
      vertex 91.5 32 -87.49
    endloop
  endfacet
  facet normal 1 -0 0
    outer loop
      vertex 67.51 0 -19.55
      vertex 67.51 32 -61.51
      vertex 67.51 32 -19.55
    endloop
  endfacet
  facet normal 1 0 0
    outer loop
      vertex 67.51 32 -61.51
      vertex 67.51 0 -19.55
      vertex 67.51 0 -61.51
    endloop
  endfacet
  facet normal -0 0 1
    outer loop
      vertex 67.51 32 -61.51
      vertex 97.5 0 -61.51
      vertex 97.5 32 -61.51
    endloop
  endfacet
  facet normal 0 0 1
    outer loop
      vertex 97.5 0 -61.51
      vertex 67.51 32 -61.51
      vertex 67.51 0 -61.51
    endloop
  endfacet
  facet normal 1 -0 0
    outer loop
      vertex 29.5 0 -55.9
      vertex 29.5 32 -56.1025
      vertex 29.5 32 -55.9
    endloop
  endfacet
  facet normal 1 0 0
    outer loop
      vertex 29.5 32 -56.1025
      vertex 29.5 0 -55.9
      vertex 29.5 0 -56.1025
    endloop
  endfacet
  facet normal 1 -0 0
    outer loop
      vertex 29.5 0 -61.5
      vertex 29.5 32 -65.9
      vertex 29.5 32 -61.5
    endloop
  endfacet
  facet normal 1 0 0
    outer loop
      vertex 29.5 32 -65.9
      vertex 29.5 0 -61.5
      vertex 29.5 0 -65.9
    endloop
  endfacet
  facet normal 0 0 -1
    outer loop
      vertex 29.5 0 -55.9
      vertex 29.8683 32 -55.9
      vertex 29.8683 0 -55.9
    endloop
  endfacet
  facet normal -0 0 -1
    outer loop
      vertex 29.8683 32 -55.9
      vertex 29.5 0 -55.9
      vertex 29.5 32 -55.9
    endloop
  endfacet
  facet normal -0 0 1
    outer loop
      vertex 29.5 32 -65.9
      vertex 61.5 0 -65.9
      vertex 61.5 32 -65.9
    endloop
  endfacet
  facet normal 0 0 1
    outer loop
      vertex 61.5 0 -65.9
      vertex 29.5 32 -65.9
      vertex 29.5 0 -65.9
    endloop
  endfacet
  facet normal -0.951056 0 0.309017
    outer loop
      vertex 53.4621 0 -21.1672
      vertex 53.9876 32 -19.55
      vertex 53.4621 32 -21.1672
    endloop
  endfacet
  facet normal -0.951056 0 0.309017
    outer loop
      vertex 53.9876 32 -19.55
      vertex 53.4621 0 -21.1672
      vertex 53.9876 0 -19.55
    endloop
  endfacet
  facet normal -0.125333 0 0.992115
    outer loop
      vertex 3.61045 32 -57.3865
      vertex 10.7744 0 -56.4815
      vertex 10.7744 32 -56.4815
    endloop
  endfacet
  facet normal -0.125333 0 0.992115
    outer loop
      vertex 10.7744 0 -56.4815
      vertex 3.61045 32 -57.3865
      vertex 3.61045 0 -57.3865
    endloop
  endfacet
  facet normal -0.904827 0 0.425779
    outer loop
      vertex 50.3876 0 -27.7008
      vertex 53.4621 32 -21.1672
      vertex 50.3876 32 -27.7008
    endloop
  endfacet
  facet normal -0.904827 0 0.425779
    outer loop
      vertex 53.4621 32 -21.1672
      vertex 50.3876 0 -27.7008
      vertex 53.4621 0 -21.1672
    endloop
  endfacet
  facet normal 0.684547 0 0.728969
    outer loop
      vertex -41.9157 32 -39.3615
      vertex -36.6519 0 -44.3045
      vertex -36.6519 32 -44.3045
    endloop
  endfacet
  facet normal 0.684547 0 0.728969
    outer loop
      vertex -36.6519 0 -44.3045
      vertex -41.9157 32 -39.3615
      vertex -41.9157 0 -39.3615
    endloop
  endfacet
  facet normal 0.904827 -0 0.425779
    outer loop
      vertex -53.4621 0 -21.1672
      vertex -50.3876 32 -27.7008
      vertex -53.4621 32 -21.1672
    endloop
  endfacet
  facet normal 0.904827 0 0.425779
    outer loop
      vertex -50.3876 32 -27.7008
      vertex -53.4621 0 -21.1672
      vertex -50.3876 0 -27.7008
    endloop
  endfacet
  facet normal 0.951056 -0 0.309017
    outer loop
      vertex -53.9876 0 -19.55
      vertex -53.4621 32 -21.1672
      vertex -53.9876 32 -19.55
    endloop
  endfacet
  facet normal 0.951056 0 0.309017
    outer loop
      vertex -53.4621 32 -21.1672
      vertex -53.9876 0 -19.55
      vertex -53.4621 0 -21.1672
    endloop
  endfacet
  facet normal -0 0 1
    outer loop
      vertex -3.61045 32 -57.3865
      vertex 3.61045 0 -57.3865
      vertex 3.61045 32 -57.3865
    endloop
  endfacet
  facet normal 0 0 1
    outer loop
      vertex 3.61045 0 -57.3865
      vertex -3.61045 32 -57.3865
      vertex -3.61045 0 -57.3865
    endloop
  endfacet
  facet normal -0.844328 0 0.535827
    outer loop
      vertex 46.5185 0 -33.7977
      vertex 50.3876 32 -27.7008
      vertex 46.5185 32 -33.7977
    endloop
  endfacet
  facet normal -0.844328 0 0.535827
    outer loop
      vertex 50.3876 32 -27.7008
      vertex 46.5185 0 -33.7977
      vertex 50.3876 0 -27.7008
    endloop
  endfacet
  facet normal -0.481754 0 0.876307
    outer loop
      vertex 24.4823 32 -52.0276
      vertex 30.81 0 -48.5489
      vertex 30.81 32 -48.5489
    endloop
  endfacet
  facet normal -0.481754 0 0.876307
    outer loop
      vertex 30.81 0 -48.5489
      vertex 24.4823 32 -52.0276
      vertex 24.4823 0 -52.0276
    endloop
  endfacet
  facet normal -0.684547 0 0.728969
    outer loop
      vertex 36.6519 32 -44.3045
      vertex 41.9157 0 -39.3615
      vertex 41.9157 32 -39.3615
    endloop
  endfacet
  facet normal -0.684547 0 0.728969
    outer loop
      vertex 41.9157 0 -39.3615
      vertex 36.6519 32 -44.3045
      vertex 36.6519 0 -44.3045
    endloop
  endfacet
  facet normal 0.368124 0 0.929777
    outer loop
      vertex -24.4823 32 -52.0276
      vertex -17.7685 0 -54.6857
      vertex -17.7685 32 -54.6857
    endloop
  endfacet
  facet normal 0.368124 0 0.929777
    outer loop
      vertex -17.7685 0 -54.6857
      vertex -24.4823 32 -52.0276
      vertex -24.4823 0 -52.0276
    endloop
  endfacet
  facet normal -0.24869 0 0.968583
    outer loop
      vertex 10.7744 32 -56.4815
      vertex 17.7685 0 -54.6857
      vertex 17.7685 32 -54.6857
    endloop
  endfacet
  facet normal -0.24869 0 0.968583
    outer loop
      vertex 17.7685 0 -54.6857
      vertex 10.7744 32 -56.4815
      vertex 10.7744 0 -56.4815
    endloop
  endfacet
  facet normal -0.368124 0 0.929777
    outer loop
      vertex 17.7685 32 -54.6857
      vertex 24.4823 0 -52.0276
      vertex 24.4823 32 -52.0276
    endloop
  endfacet
  facet normal -0.368124 0 0.929777
    outer loop
      vertex 24.4823 0 -52.0276
      vertex 17.7685 32 -54.6857
      vertex 17.7685 0 -54.6857
    endloop
  endfacet
  facet normal -0.770513 0 0.637424
    outer loop
      vertex 41.9157 0 -39.3615
      vertex 46.5185 32 -33.7977
      vertex 41.9157 32 -39.3615
    endloop
  endfacet
  facet normal -0.770513 0 0.637424
    outer loop
      vertex 46.5185 32 -33.7977
      vertex 41.9157 0 -39.3615
      vertex 46.5185 0 -33.7977
    endloop
  endfacet
  facet normal -0.587785 0 0.809017
    outer loop
      vertex 30.81 32 -48.5489
      vertex 36.6519 0 -44.3045
      vertex 36.6519 32 -44.3045
    endloop
  endfacet
  facet normal -0.587785 0 0.809017
    outer loop
      vertex 36.6519 0 -44.3045
      vertex 30.81 32 -48.5489
      vertex 30.81 0 -48.5489
    endloop
  endfacet
  facet normal 0.481754 0 0.876307
    outer loop
      vertex -30.81 32 -48.5489
      vertex -24.4823 0 -52.0276
      vertex -24.4823 32 -52.0276
    endloop
  endfacet
  facet normal 0.481754 0 0.876307
    outer loop
      vertex -24.4823 0 -52.0276
      vertex -30.81 32 -48.5489
      vertex -30.81 0 -48.5489
    endloop
  endfacet
  facet normal 0.587785 0 0.809017
    outer loop
      vertex -36.6519 32 -44.3045
      vertex -30.81 0 -48.5489
      vertex -30.81 32 -48.5489
    endloop
  endfacet
  facet normal 0.587785 0 0.809017
    outer loop
      vertex -30.81 0 -48.5489
      vertex -36.6519 32 -44.3045
      vertex -36.6519 0 -44.3045
    endloop
  endfacet
  facet normal 0.24869 0 0.968583
    outer loop
      vertex -17.7685 32 -54.6857
      vertex -10.7744 0 -56.4815
      vertex -10.7744 32 -56.4815
    endloop
  endfacet
  facet normal 0.24869 0 0.968583
    outer loop
      vertex -10.7744 0 -56.4815
      vertex -17.7685 32 -54.6857
      vertex -17.7685 0 -54.6857
    endloop
  endfacet
  facet normal 0.125333 0 0.992115
    outer loop
      vertex -10.7744 32 -56.4815
      vertex -3.61045 0 -57.3865
      vertex -3.61045 32 -57.3865
    endloop
  endfacet
  facet normal 0.125333 0 0.992115
    outer loop
      vertex -3.61045 0 -57.3865
      vertex -10.7744 32 -56.4815
      vertex -10.7744 0 -56.4815
    endloop
  endfacet
  facet normal 0.844328 -0 0.535827
    outer loop
      vertex -50.3876 0 -27.7008
      vertex -46.5185 32 -33.7977
      vertex -50.3876 32 -27.7008
    endloop
  endfacet
  facet normal 0.844328 0 0.535827
    outer loop
      vertex -46.5185 32 -33.7977
      vertex -50.3876 0 -27.7008
      vertex -46.5185 0 -33.7977
    endloop
  endfacet
  facet normal 0.770513 -0 0.637424
    outer loop
      vertex -46.5185 0 -33.7977
      vertex -41.9157 32 -39.3615
      vertex -46.5185 32 -33.7977
    endloop
  endfacet
  facet normal 0.770513 0 0.637424
    outer loop
      vertex -41.9157 32 -39.3615
      vertex -46.5185 0 -33.7977
      vertex -41.9157 0 -39.3615
    endloop
  endfacet
endsolid OpenSCAD_Model
