solid OpenSCAD_Model
  facet normal -1.57009e-16 -1.57009e-16 1
    outer loop
      vertex -57 131.213 5
      vertex -78.2132 110 5
      vertex -57 88.7868 5
    endloop
  endfacet
  facet normal -1.57009e-16 -1.57009e-16 1
    outer loop
      vertex -35.7868 110 5
      vertex -57 131.213 5
      vertex -57 88.7868 5
    endloop
  endfacet
  facet normal -0.707107 -0.707107 -7.85046e-17
    outer loop
      vertex -68.4905 100.277 3
      vertex -78.2132 110 5
      vertex -78.2132 110 -5
    endloop
  endfacet
  facet normal -0.707107 -0.707107 -7.85046e-17
    outer loop
      vertex -57 88.7868 -5
      vertex -68.4905 100.277 -3
      vertex -78.2132 110 -5
    endloop
  endfacet
  facet normal -0.707107 -0.707107 -7.85046e-17
    outer loop
      vertex -57 88.7868 5
      vertex -78.2132 110 5
      vertex -68.4905 100.277 3
    endloop
  endfacet
  facet normal -0.707107 -0.707107 -7.85046e-17
    outer loop
      vertex -66.7227 98.5095 3
      vertex -66.7227 98.5095 -3
      vertex -57 88.7868 5
    endloop
  endfacet
  facet normal -0.707107 -0.707107 -7.85046e-17
    outer loop
      vertex -57 88.7868 5
      vertex -68.4905 100.277 3
      vertex -66.7227 98.5095 3
    endloop
  endfacet
  facet normal -0.707107 -0.707107 -7.85046e-17
    outer loop
      vertex -57 88.7868 -5
      vertex -66.7227 98.5095 -3
      vertex -68.4905 100.277 -3
    endloop
  endfacet
  facet normal -0.707107 -0.707107 -7.85046e-17
    outer loop
      vertex -57 88.7868 -5
      vertex -57 88.7868 5
      vertex -66.7227 98.5095 -3
    endloop
  endfacet
  facet normal -0.707107 -0.707107 -7.85046e-17
    outer loop
      vertex -68.4905 100.277 -3
      vertex -68.4905 100.277 3
      vertex -78.2132 110 -5
    endloop
  endfacet
  facet normal -0.707107 0.707107 7.85046e-17
    outer loop
      vertex -78.2132 110 5
      vertex -57 131.213 5
      vertex -78.2132 110 -5
    endloop
  endfacet
  facet normal -0.707107 0.707107 7.85046e-17
    outer loop
      vertex -78.2132 110 -5
      vertex -57 131.213 5
      vertex -57 131.213 -5
    endloop
  endfacet
  facet normal 0.707107 0.707107 7.85046e-17
    outer loop
      vertex -37.201 111.414 -3
      vertex -35.7868 110 5
      vertex -35.7868 110 -5
    endloop
  endfacet
  facet normal 0.707107 0.707107 7.85046e-17
    outer loop
      vertex -57 131.213 5
      vertex -35.7868 110 5
      vertex -55.5858 129.799 3
    endloop
  endfacet
  facet normal 0.707107 0.707107 7.85046e-17
    outer loop
      vertex -57 131.213 5
      vertex -55.5858 129.799 3
      vertex -57 131.213 -5
    endloop
  endfacet
  facet normal 0.707107 0.707107 7.85046e-17
    outer loop
      vertex -37.201 111.414 -3
      vertex -57 131.213 -5
      vertex -55.5858 129.799 -3
    endloop
  endfacet
  facet normal 0.707107 0.707107 7.85046e-17
    outer loop
      vertex -55.5858 129.799 3
      vertex -55.5858 129.799 -3
      vertex -57 131.213 -5
    endloop
  endfacet
  facet normal 0.707107 0.707107 7.85046e-17
    outer loop
      vertex -37.201 111.414 3
      vertex -35.7868 110 5
      vertex -37.201 111.414 -3
    endloop
  endfacet
  facet normal 0.707107 0.707107 7.85046e-17
    outer loop
      vertex -57 131.213 -5
      vertex -37.201 111.414 -3
      vertex -35.7868 110 -5
    endloop
  endfacet
  facet normal 0.707107 0.707107 7.85046e-17
    outer loop
      vertex -55.5858 129.799 3
      vertex -35.7868 110 5
      vertex -37.201 111.414 3
    endloop
  endfacet
  facet normal 0.707107 -0.707107 -7.85046e-17
    outer loop
      vertex -45.6434 100.143 5
      vertex -57 88.7868 5
      vertex -57 88.7868 -5
    endloop
  endfacet
  facet normal 0.707107 -0.707107 -7.85046e-17
    outer loop
      vertex -35.7868 110 5
      vertex -57 88.7868 5
      vertex -45.6434 100.143 5
    endloop
  endfacet
  facet normal 0.707107 -0.707107 -7.85046e-17
    outer loop
      vertex -37.1584 108.628 5
      vertex -37.1584 108.628 -5
      vertex -35.7868 110 5
    endloop
  endfacet
  facet normal 0.707107 -0.707107 -7.85046e-17
    outer loop
      vertex -35.7868 110 5
      vertex -45.6434 100.143 5
      vertex -37.1584 108.628 5
    endloop
  endfacet
  facet normal 0.707107 -0.707107 -7.85046e-17
    outer loop
      vertex -35.7868 110 -5
      vertex -35.7868 110 5
      vertex -37.1584 108.628 -5
    endloop
  endfacet
  facet normal 0.707107 -0.707107 -7.85046e-17
    outer loop
      vertex -45.6434 100.143 -5
      vertex -45.6434 100.143 5
      vertex -57 88.7868 -5
    endloop
  endfacet
  facet normal 1.57009e-16 1.57009e-16 -1
    outer loop
      vertex -78.2132 110 -5
      vertex -57 131.213 -5
      vertex -57 88.7868 -5
    endloop
  endfacet
  facet normal 1.57009e-16 1.57009e-16 -1
    outer loop
      vertex -37.1584 108.628 -5
      vertex -57 131.213 -5
      vertex -35.7868 110 -5
    endloop
  endfacet
  facet normal 1.57009e-16 1.57009e-16 -1
    outer loop
      vertex -38.015 109.485 -5
      vertex -57 131.213 -5
      vertex -37.1584 108.628 -5
    endloop
  endfacet
  facet normal 1.57009e-16 1.57009e-16 -1
    outer loop
      vertex -46.5 101 -5
      vertex -57 131.213 -5
      vertex -38.015 109.485 -5
    endloop
  endfacet
  facet normal 1.57009e-16 1.57009e-16 -1
    outer loop
      vertex -57 88.7868 -5
      vertex -57 131.213 -5
      vertex -46.5 101 -5
    endloop
  endfacet
  facet normal 1.57009e-16 1.57009e-16 -1
    outer loop
      vertex -45.6434 100.143 -5
      vertex -57 88.7868 -5
      vertex -46.5 101 -5
    endloop
  endfacet
  facet normal 0.707107 -0.707107 -7.85046e-17
    outer loop
      vertex -68.4905 100.277 -3
      vertex -67.0763 101.691 -3
      vertex -67.0763 101.691 3
    endloop
  endfacet
  facet normal 0.707107 -0.707107 -7.85046e-17
    outer loop
      vertex -68.4905 100.277 3
      vertex -68.4905 100.277 -3
      vertex -67.0763 101.691 3
    endloop
  endfacet
  facet normal -1.57009e-16 -1.57009e-16 1
    outer loop
      vertex -67.0763 101.691 -3
      vertex -68.4905 100.277 -3
      vertex -66.7227 98.5095 -3
    endloop
  endfacet
  facet normal -1.57009e-16 -1.57009e-16 1
    outer loop
      vertex -37.201 111.414 -3
      vertex -67.0763 101.691 -3
      vertex -65.3085 99.9237 -3
    endloop
  endfacet
  facet normal -1.57009e-16 -1.57009e-16 1
    outer loop
      vertex -65.3085 99.9237 -3
      vertex -67.0763 101.691 -3
      vertex -66.7227 98.5095 -3
    endloop
  endfacet
  facet normal -1.57009e-16 -1.57009e-16 1
    outer loop
      vertex -37.201 111.414 -3
      vertex -65.3085 99.9237 -3
      vertex -57 91.6152 -3
    endloop
  endfacet
  facet normal -1.57009e-16 -1.57009e-16 1
    outer loop
      vertex -55.5858 129.799 -3
      vertex -67.0763 101.691 -3
      vertex -37.201 111.414 -3
    endloop
  endfacet
  facet normal -1.57009e-16 -1.57009e-16 1
    outer loop
      vertex -75.3848 110 -3
      vertex -67.0763 101.691 -3
      vertex -55.5858 129.799 -3
    endloop
  endfacet
  facet normal -0.707107 0.707107 7.85046e-17
    outer loop
      vertex -65.3085 99.9237 -3
      vertex -66.7227 98.5095 -3
      vertex -65.3085 99.9237 3
    endloop
  endfacet
  facet normal -0.707107 0.707107 7.85046e-17
    outer loop
      vertex -65.3085 99.9237 3
      vertex -66.7227 98.5095 -3
      vertex -66.7227 98.5095 3
    endloop
  endfacet
  facet normal 1.57009e-16 1.57009e-16 -1
    outer loop
      vertex -37.201 111.414 3
      vertex -57 91.6152 3
      vertex -55.5858 129.799 3
    endloop
  endfacet
  facet normal 1.57009e-16 1.57009e-16 -1
    outer loop
      vertex -55.5858 129.799 3
      vertex -57 91.6152 3
      vertex -65.3085 99.9237 3
    endloop
  endfacet
  facet normal 1.57009e-16 1.57009e-16 -1
    outer loop
      vertex -55.5858 129.799 3
      vertex -65.3085 99.9237 3
      vertex -66.7227 98.5095 3
    endloop
  endfacet
  facet normal 1.57009e-16 1.57009e-16 -1
    outer loop
      vertex -67.0763 101.691 3
      vertex -66.7227 98.5095 3
      vertex -68.4905 100.277 3
    endloop
  endfacet
  facet normal 1.57009e-16 1.57009e-16 -1
    outer loop
      vertex -55.5858 129.799 3
      vertex -66.7227 98.5095 3
      vertex -67.0763 101.691 3
    endloop
  endfacet
  facet normal 1.57009e-16 1.57009e-16 -1
    outer loop
      vertex -75.3848 110 3
      vertex -55.5858 129.799 3
      vertex -67.0763 101.691 3
    endloop
  endfacet
  facet normal 0.707107 -0.707107 -7.85046e-17
    outer loop
      vertex -75.3848 110 -3
      vertex -55.5858 129.799 -3
      vertex -55.5858 129.799 3
    endloop
  endfacet
  facet normal 0.707107 -0.707107 -7.85046e-17
    outer loop
      vertex -75.3848 110 3
      vertex -75.3848 110 -3
      vertex -55.5858 129.799 3
    endloop
  endfacet
  facet normal -0.707107 0.707107 7.85046e-17
    outer loop
      vertex -37.201 111.414 -3
      vertex -57 91.6152 -3
      vertex -37.201 111.414 3
    endloop
  endfacet
  facet normal -0.707107 0.707107 7.85046e-17
    outer loop
      vertex -37.201 111.414 3
      vertex -57 91.6152 -3
      vertex -57 91.6152 3
    endloop
  endfacet
  facet normal 0.7071 0.707114 0
    outer loop
      vertex 11.471 60 -5
      vertex -38.015 109.485 -5
      vertex -37.1584 108.628 -5
    endloop
  endfacet
  facet normal 0.7071 0.707114 0
    outer loop
      vertex 11.471 60 -5
      vertex -37.1584 108.628 -5
      vertex -37.1584 108.628 5
    endloop
  endfacet
  facet normal 0.7071 0.707114 0
    outer loop
      vertex 11.471 60 -5
      vertex -37.1584 108.628 5
      vertex 11.471 60 5
    endloop
  endfacet
  facet normal 0 0 1
    outer loop
      vertex -0.5 30 5
      vertex 0 -4 5
      vertex -0.5 55 5
    endloop
  endfacet
  facet normal 0 0 1
    outer loop
      vertex -37.1584 108.628 5
      vertex -45.6434 100.143 5
      vertex -0.5 55 5
    endloop
  endfacet
  facet normal 0 0 1
    outer loop
      vertex -4 5 5
      vertex -4 -3 5
      vertex -0.5 30 5
    endloop
  endfacet
  facet normal 0 0 1
    outer loop
      vertex 11.471 60 5
      vertex -37.1584 108.628 5
      vertex -0.5 55 5
    endloop
  endfacet
  facet normal 0 0 1
    outer loop
      vertex 0 0 5
      vertex 6.5 0 5
      vertex -0.5 55 5
    endloop
  endfacet
  facet normal 0 0 1
    outer loop
      vertex 6.5 -50.5 5
      vertex 11.5 -56.5 5
      vertex 6.5 0 5
    endloop
  endfacet
  facet normal 0 0 1
    outer loop
      vertex -4 -3 5
      vertex 0 -4 5
      vertex -0.5 30 5
    endloop
  endfacet
  facet normal 0 0 1
    outer loop
      vertex 0 -4 5
      vertex 0 0 5
      vertex -0.5 55 5
    endloop
  endfacet
  facet normal 0 0 1
    outer loop
      vertex 6.5 0 5
      vertex 11.5 60 5
      vertex -0.5 55 5
    endloop
  endfacet
  facet normal 0 0 1
    outer loop
      vertex 6.5 -40.5 5
      vertex 6.5 -50.5 5
      vertex 6.5 0 5
    endloop
  endfacet
  facet normal 0 0 1
    outer loop
      vertex 1.11022e-15 -52.3 5
      vertex -4 -56.5 5
      vertex 6.5 -52.3 5
    endloop
  endfacet
  facet normal 0 0 1
    outer loop
      vertex 6.5 -52.3 5
      vertex 11.5 -56.5 5
      vertex 6.5 -50.5 5
    endloop
  endfacet
  facet normal 0 0 1
    outer loop
      vertex -4 -48.5 5
      vertex -4 -56.5 5
      vertex 1.11022e-15 -52.3 5
    endloop
  endfacet
  facet normal 0 0 1
    outer loop
      vertex 0 -51.5 5
      vertex 1.11022e-15 -52.3 5
      vertex 1.11022e-15 -51.5 5
    endloop
  endfacet
  facet normal 0 0 1
    outer loop
      vertex 0 -51.5 5
      vertex -4 -48.5 5
      vertex 1.11022e-15 -52.3 5
    endloop
  endfacet
  facet normal 0 0 1
    outer loop
      vertex -4 -56.5 5
      vertex 11.5 -56.5 5
      vertex 6.5 -52.3 5
    endloop
  endfacet
  facet normal 0 0 1
    outer loop
      vertex 11.5 -56.5 5
      vertex 11.5 60 5
      vertex 6.5 0 5
    endloop
  endfacet
  facet normal 0 0 1
    outer loop
      vertex 11.5 60 5
      vertex 11.471 60 5
      vertex -0.5 55 5
    endloop
  endfacet
  facet normal 0 0 1
    outer loop
      vertex 0 -50.5 5
      vertex -4 -48.5 5
      vertex 0 -51.5 5
    endloop
  endfacet
  facet normal 0 0 1
    outer loop
      vertex 0 -47.5 5
      vertex -4 -48.5 5
      vertex 0 -50.5 5
    endloop
  endfacet
  facet normal -0.707107 -0.707107 0
    outer loop
      vertex -45.6434 100.143 -5
      vertex -46.5 101 -5
      vertex -0.5 55 -5
    endloop
  endfacet
  facet normal -0.707107 -0.707107 0
    outer loop
      vertex -0.5 55 5
      vertex -45.6434 100.143 -5
      vertex -0.5 55 -5
    endloop
  endfacet
  facet normal -0.707107 -0.707107 0
    outer loop
      vertex -45.6434 100.143 5
      vertex -45.6434 100.143 -5
      vertex -0.5 55 5
    endloop
  endfacet
  facet normal 0.707107 0.707107 7.85046e-17
    outer loop
      vertex -67.0763 101.691 -3
      vertex -75.3848 110 -3
      vertex -67.0763 101.691 3
    endloop
  endfacet
  facet normal 0.707107 0.707107 7.85046e-17
    outer loop
      vertex -67.0763 101.691 3
      vertex -75.3848 110 -3
      vertex -75.3848 110 3
    endloop
  endfacet
  facet normal 0.707107 0.707107 7.85046e-17
    outer loop
      vertex -57 91.6152 -3
      vertex -65.3085 99.9237 -3
      vertex -57 91.6152 3
    endloop
  endfacet
  facet normal 0.707107 0.707107 7.85046e-17
    outer loop
      vertex -57 91.6152 3
      vertex -65.3085 99.9237 -3
      vertex -65.3085 99.9237 3
    endloop
  endfacet
  facet normal 0 1 0
    outer loop
      vertex 11.471 60 -5
      vertex 11.471 60 5
      vertex 11.5 60 -5
    endloop
  endfacet
  facet normal 0 1 0
    outer loop
      vertex 11.5 60 -5
      vertex 11.471 60 5
      vertex 11.5 60 5
    endloop
  endfacet
  facet normal 0 0 -1
    outer loop
      vertex -46.5 101 -5
      vertex -38.015 109.485 -5
      vertex -0.5 55 -5
    endloop
  endfacet
  facet normal 0 0 -1
    outer loop
      vertex -0.5 55 -5
      vertex -38.015 109.485 -5
      vertex 11.471 60 -5
    endloop
  endfacet
  facet normal 0 0 -1
    outer loop
      vertex -0.5 55 -5
      vertex 11.471 60 -5
      vertex 11.5 60 -5
    endloop
  endfacet
  facet normal 0 0 -1
    outer loop
      vertex 6.5 0 -5
      vertex 11.5 60 -5
      vertex 11.5 -56.5 -5
    endloop
  endfacet
  facet normal 0 0 -1
    outer loop
      vertex 6.5 0 -5
      vertex 11.5 -56.5 -5
      vertex 6.5 -40.5 -5
    endloop
  endfacet
  facet normal 0 0 -1
    outer loop
      vertex 0 -51.5 -5
      vertex -4 -56.5 -5
      vertex -4 -48.5 -5
    endloop
  endfacet
  facet normal 0 0 -1
    outer loop
      vertex 0 -50.5 -5
      vertex -4 -48.5 -5
      vertex 0 -47.5 -5
    endloop
  endfacet
  facet normal 0 0 -1
    outer loop
      vertex 3.33067e-15 -51.9 -5
      vertex -4 -56.5 -5
      vertex 0 -51.5 -5
    endloop
  endfacet
  facet normal 0 0 -1
    outer loop
      vertex 3.33067e-15 -51.9 -5
      vertex 0 -51.5 -5
      vertex 3.33067e-15 -51.5 -5
    endloop
  endfacet
  facet normal 0 0 -1
    outer loop
      vertex 11.5 -56.5 -5
      vertex -4 -56.5 -5
      vertex 3.33067e-15 -51.9 -5
    endloop
  endfacet
  facet normal 0 0 -1
    outer loop
      vertex 6.5 -51.9 -5
      vertex 11.5 -56.5 -5
      vertex 3.33067e-15 -51.9 -5
    endloop
  endfacet
  facet normal 0 0 -1
    outer loop
      vertex 6.5 -40.5 -5
      vertex 11.5 -56.5 -5
      vertex 6.5 -50.5 -5
    endloop
  endfacet
  facet normal 0 0 -1
    outer loop
      vertex 11.5 -56.5 -5
      vertex 6.5 -51.9 -5
      vertex 6.5 -50.5 -5
    endloop
  endfacet
  facet normal 0 0 -1
    outer loop
      vertex -0.5 30 -5
      vertex 0 -4 -5
      vertex -4 5 -5
    endloop
  endfacet
  facet normal 0 0 -1
    outer loop
      vertex -0.5 55 -5
      vertex 11.5 60 -5
      vertex 6.5 0 -5
    endloop
  endfacet
  facet normal 0 0 -1
    outer loop
      vertex 0 0 -5
      vertex -0.5 55 -5
      vertex 6.5 0 -5
    endloop
  endfacet
  facet normal 0 0 -1
    outer loop
      vertex -0.5 30 -5
      vertex 0 0 -5
      vertex 0 -4 -5
    endloop
  endfacet
  facet normal 0 0 -1
    outer loop
      vertex 0 -4 -5
      vertex -4 -3 -5
      vertex -4 5 -5
    endloop
  endfacet
  facet normal 0 0 -1
    outer loop
      vertex -0.5 55 -5
      vertex 0 0 -5
      vertex -0.5 30 -5
    endloop
  endfacet
  facet normal 0 0 -1
    outer loop
      vertex 0 -51.5 -5
      vertex -4 -48.5 -5
      vertex 0 -50.5 -5
    endloop
  endfacet
  facet normal 1 0 0
    outer loop
      vertex 11.5 -56.5 5
      vertex 11.5 -56.5 -5
      vertex 11.5 60 -5
    endloop
  endfacet
  facet normal 1 0 0
    outer loop
      vertex 11.5 60 5
      vertex 11.5 -56.5 5
      vertex 11.5 60 -5
    endloop
  endfacet
  facet normal 0 -1 0
    outer loop
      vertex -4 -56.5 5
      vertex -4 -56.5 -5
      vertex 11.5 -56.5 -5
    endloop
  endfacet
  facet normal 0 -1 0
    outer loop
      vertex 11.5 -56.5 5
      vertex -4 -56.5 5
      vertex 11.5 -56.5 -5
    endloop
  endfacet
  facet normal -1 0 0
    outer loop
      vertex -4 -56.5 -5
      vertex -4 -56.5 5
      vertex -4 -48.5 -5
    endloop
  endfacet
  facet normal -1 0 0
    outer loop
      vertex -4 -48.5 -5
      vertex -4 -56.5 5
      vertex -4 -48.5 5
    endloop
  endfacet
  facet normal -0.242536 0.970143 0
    outer loop
      vertex -4 -48.5 -5
      vertex -4 -48.5 5
      vertex 0 -47.5 -5
    endloop
  endfacet
  facet normal -0.242536 0.970143 0
    outer loop
      vertex 0 -47.5 -5
      vertex -4 -48.5 5
      vertex 0 -47.5 5
    endloop
  endfacet
  facet normal 1 0 0
    outer loop
      vertex 0 -50.5 5
      vertex 0 -50.5 -5
      vertex 0 -47.5 -5
    endloop
  endfacet
  facet normal 1 0 0
    outer loop
      vertex 0 -47.5 5
      vertex 0 -50.5 5
      vertex 0 -47.5 -5
    endloop
  endfacet
  facet normal 1 0 0
    outer loop
      vertex 0 -51.5 5
      vertex 0 -51.5 -5
      vertex 0 -50.5 -5
    endloop
  endfacet
  facet normal 1 0 0
    outer loop
      vertex 0 -50.5 5
      vertex 0 -51.5 5
      vertex 0 -50.5 -5
    endloop
  endfacet
  facet normal 0 1 0
    outer loop
      vertex 0 -51.5 -5
      vertex 0 -51.5 5
      vertex 3.33067e-15 -51.5 -5
    endloop
  endfacet
  facet normal 0 1 0
    outer loop
      vertex 3.33067e-15 -51.5 -5
      vertex 0 -51.5 5
      vertex 1.11022e-15 -51.5 5
    endloop
  endfacet
  facet normal 1 0 2.22045e-16
    outer loop
      vertex 3.33067e-15 -51.9 -5
      vertex 3.33067e-15 -51.5 -5
      vertex 1.11022e-15 -51.5 5
    endloop
  endfacet
  facet normal 1 0 2.22045e-16
    outer loop
      vertex 1.11022e-15 -52.3 5
      vertex 3.33067e-15 -51.9 -5
      vertex 1.11022e-15 -51.5 5
    endloop
  endfacet
  facet normal -8.87469e-18 0.999201 0.039968
    outer loop
      vertex 6.5 -51.9 -5
      vertex 3.33067e-15 -51.9 -5
      vertex 6.5 -52.3 5
    endloop
  endfacet
  facet normal -8.87469e-18 0.999201 0.039968
    outer loop
      vertex 6.5 -52.3 5
      vertex 3.33067e-15 -51.9 -5
      vertex 1.11022e-15 -52.3 5
    endloop
  endfacet
  facet normal -1 0 -2.22045e-16
    outer loop
      vertex 6.5 -50.5 -5
      vertex 6.5 -51.9 -5
      vertex 6.5 -50.5 5
    endloop
  endfacet
  facet normal -1 0 -2.22045e-16
    outer loop
      vertex 6.5 -50.5 5
      vertex 6.5 -51.9 -5
      vertex 6.5 -52.3 5
    endloop
  endfacet
  facet normal -1 0 0
    outer loop
      vertex 6.5 -50.5 -5
      vertex 6.5 -50.5 5
      vertex 6.5 -40.5 -5
    endloop
  endfacet
  facet normal -1 0 0
    outer loop
      vertex 6.5 -40.5 -5
      vertex 6.5 -50.5 5
      vertex 6.5 -40.5 5
    endloop
  endfacet
  facet normal -1 0 0
    outer loop
      vertex 6.5 -40.5 -5
      vertex 6.5 -40.5 5
      vertex 6.5 0 -5
    endloop
  endfacet
  facet normal -1 0 0
    outer loop
      vertex 6.5 0 -5
      vertex 6.5 -40.5 5
      vertex 6.5 0 5
    endloop
  endfacet
  facet normal 0 -1 0
    outer loop
      vertex 0 0 5
      vertex 0 0 -5
      vertex 6.5 0 -5
    endloop
  endfacet
  facet normal 0 -1 0
    outer loop
      vertex 6.5 0 5
      vertex 0 0 5
      vertex 6.5 0 -5
    endloop
  endfacet
  facet normal 1 0 0
    outer loop
      vertex 0 -4 5
      vertex 0 -4 -5
      vertex 0 0 -5
    endloop
  endfacet
  facet normal 1 0 0
    outer loop
      vertex 0 0 5
      vertex 0 -4 5
      vertex 0 0 -5
    endloop
  endfacet
  facet normal -0.242536 -0.970143 0
    outer loop
      vertex -4 -3 5
      vertex -4 -3 -5
      vertex 0 -4 -5
    endloop
  endfacet
  facet normal -0.242536 -0.970143 0
    outer loop
      vertex 0 -4 5
      vertex -4 -3 5
      vertex 0 -4 -5
    endloop
  endfacet
  facet normal -1 0 0
    outer loop
      vertex -4 -3 -5
      vertex -4 -3 5
      vertex -4 5 -5
    endloop
  endfacet
  facet normal -1 0 0
    outer loop
      vertex -4 5 -5
      vertex -4 -3 5
      vertex -4 5 5
    endloop
  endfacet
  facet normal -0.990342 0.138648 0
    outer loop
      vertex -4 5 -5
      vertex -4 5 5
      vertex -0.5 30 -5
    endloop
  endfacet
  facet normal -0.990342 0.138648 0
    outer loop
      vertex -0.5 30 -5
      vertex -4 5 5
      vertex -0.5 30 5
    endloop
  endfacet
  facet normal -1 0 0
    outer loop
      vertex -0.5 30 -5
      vertex -0.5 30 5
      vertex -0.5 55 -5
    endloop
  endfacet
  facet normal -1 0 0
    outer loop
      vertex -0.5 55 -5
      vertex -0.5 30 5
      vertex -0.5 55 5
    endloop
  endfacet
  facet normal 0.242536 -0.970143 0
    outer loop
      vertex -24 -27.5 45
      vertex -24 -27.5 -5
      vertex -20 -26.5 -5
    endloop
  endfacet
  facet normal 0.242536 -0.970143 0
    outer loop
      vertex -20 -26.5 45
      vertex -24 -27.5 45
      vertex -20 -26.5 -5
    endloop
  endfacet
  facet normal 0 0 -1
    outer loop
      vertex -24 -27.5 -5
      vertex -24 -15.5 -5
      vertex -20 -26.5 -5
    endloop
  endfacet
  facet normal 0 0 -1
    outer loop
      vertex -20 -20.5 -5
      vertex -24 -15.5 -5
      vertex -20 -15.5 -5
    endloop
  endfacet
  facet normal 0 0 -1
    outer loop
      vertex -20 -26.5 -5
      vertex -24 -15.5 -5
      vertex -20 -20.5 -5
    endloop
  endfacet
  facet normal 0 0 -1
    outer loop
      vertex -20 -20.5 -5
      vertex -13.5 -20.5 -5
      vertex -20 -26.5 -5
    endloop
  endfacet
  facet normal 0 0 -1
    outer loop
      vertex -20 -26.5 -5
      vertex -13.5 -20.5 -5
      vertex -13.5 -30.5 -5
    endloop
  endfacet
  facet normal 0 0 -1
    outer loop
      vertex -20 -26.5 -5
      vertex -13.5 -30.5 -5
      vertex -16.75 -30.5 -5
    endloop
  endfacet
  facet normal 0 0 -1
    outer loop
      vertex -20 -26.5 -5
      vertex -16.75 -30.5 -5
      vertex -20 -30.5 -5
    endloop
  endfacet
  facet normal -1 0 0
    outer loop
      vertex -24 -27.5 -5
      vertex -24 -27.5 45
      vertex -24 -15.5 -5
    endloop
  endfacet
  facet normal -1 0 0
    outer loop
      vertex -24 -15.5 -5
      vertex -24 -27.5 45
      vertex -24 -15.5 45
    endloop
  endfacet
  facet normal 0 0 1
    outer loop
      vertex -24 -15.5 45
      vertex -24 -27.5 45
      vertex -20 -26.5 45
    endloop
  endfacet
  facet normal 0 0 1
    outer loop
      vertex -16.75 -30.5 45
      vertex -24 -15.5 45
      vertex -20 -26.5 45
    endloop
  endfacet
  facet normal 0 0 1
    outer loop
      vertex -20 -30.5 45
      vertex -16.75 -30.5 45
      vertex -20 -26.5 45
    endloop
  endfacet
  facet normal 0 0 1
    outer loop
      vertex -16.75 -30.5 45
      vertex -13.5 -30.5 45
      vertex -24 -15.5 45
    endloop
  endfacet
  facet normal 0 0 1
    outer loop
      vertex -13.5 -30.5 45
      vertex -20 -20.5 45
      vertex -24 -15.5 45
    endloop
  endfacet
  facet normal 0 0 1
    outer loop
      vertex -13.5 -30.5 45
      vertex -13.5 -20.5 45
      vertex -20 -20.5 45
    endloop
  endfacet
  facet normal 0 0 1
    outer loop
      vertex -20 -20.5 45
      vertex -20 -15.5 45
      vertex -24 -15.5 45
    endloop
  endfacet
  facet normal -1 0 0
    outer loop
      vertex -20 -30.5 -5
      vertex -20 -30.5 20
      vertex -20 -26.5 -5
    endloop
  endfacet
  facet normal -1 0 0
    outer loop
      vertex -20 -26.5 -5
      vertex -20 -30.5 20
      vertex -20 -30.5 45
    endloop
  endfacet
  facet normal -1 0 0
    outer loop
      vertex -20 -26.5 -5
      vertex -20 -30.5 45
      vertex -20 -26.5 45
    endloop
  endfacet
  facet normal -1 0 -2.22045e-16
    outer loop
      vertex -20 -33.5 45
      vertex -20 -30.5 45
      vertex -20 -31.5 -5
    endloop
  endfacet
  facet normal -1 0 -2.22045e-16
    outer loop
      vertex -20 -31.5 -5
      vertex -20 -30.5 45
      vertex -20 -30.5 20
    endloop
  endfacet
  facet normal -1 0 -2.22045e-16
    outer loop
      vertex -20 -31.5 -5
      vertex -20 -30.5 20
      vertex -20 -30.5 -5
    endloop
  endfacet
  facet normal 2.22045e-16 0 -1
    outer loop
      vertex -20 -31.5 -5
      vertex -20 -30.5 -5
      vertex -13.5 -31.5 -5
    endloop
  endfacet
  facet normal 2.22045e-16 0 -1
    outer loop
      vertex -13.5 -31.5 -5
      vertex -20 -30.5 -5
      vertex -16.75 -30.5 -5
    endloop
  endfacet
  facet normal 2.22045e-16 0 -1
    outer loop
      vertex -13.5 -31.5 -5
      vertex -16.75 -30.5 -5
      vertex -13.5 -30.5 -5
    endloop
  endfacet
  facet normal 1 0 0
    outer loop
      vertex -13.5 -30.5 20
      vertex -13.5 -30.5 -5
      vertex -13.5 -20.5 45
    endloop
  endfacet
  facet normal 1 0 0
    outer loop
      vertex -13.5 -20.5 45
      vertex -13.5 -30.5 -5
      vertex -13.5 -20.5 -5
    endloop
  endfacet
  facet normal 1 0 0
    outer loop
      vertex -13.5 -30.5 45
      vertex -13.5 -30.5 20
      vertex -13.5 -20.5 45
    endloop
  endfacet
  facet normal 0 1 0
    outer loop
      vertex -20 -20.5 -5
      vertex -20 -20.5 45
      vertex -13.5 -20.5 -5
    endloop
  endfacet
  facet normal 0 1 0
    outer loop
      vertex -13.5 -20.5 -5
      vertex -20 -20.5 45
      vertex -13.5 -20.5 45
    endloop
  endfacet
  facet normal 1 0 0
    outer loop
      vertex -20 -20.5 45
      vertex -20 -20.5 -5
      vertex -20 -15.5 -5
    endloop
  endfacet
  facet normal 1 0 0
    outer loop
      vertex -20 -15.5 45
      vertex -20 -20.5 45
      vertex -20 -15.5 -5
    endloop
  endfacet
  facet normal 0 1 0
    outer loop
      vertex -24 -15.5 -5
      vertex -24 -15.5 45
      vertex -20 -15.5 -5
    endloop
  endfacet
  facet normal 0 1 0
    outer loop
      vertex -20 -15.5 -5
      vertex -24 -15.5 45
      vertex -20 -15.5 45
    endloop
  endfacet
  facet normal 1 0 2.22045e-16
    outer loop
      vertex -13.5 -30.5 45
      vertex -13.5 -33.5 45
      vertex -13.5 -31.5 -5
    endloop
  endfacet
  facet normal 1 0 2.22045e-16
    outer loop
      vertex -13.5 -30.5 -5
      vertex -13.5 -30.5 20
      vertex -13.5 -31.5 -5
    endloop
  endfacet
  facet normal 1 0 2.22045e-16
    outer loop
      vertex -13.5 -30.5 20
      vertex -13.5 -30.5 45
      vertex -13.5 -31.5 -5
    endloop
  endfacet
  facet normal -2.22045e-16 0 1
    outer loop
      vertex -20 -30.5 45
      vertex -20 -33.5 45
      vertex -13.5 -33.5 45
    endloop
  endfacet
  facet normal -2.22045e-16 0 1
    outer loop
      vertex -13.5 -30.5 45
      vertex -16.75 -30.5 45
      vertex -13.5 -33.5 45
    endloop
  endfacet
  facet normal -2.22045e-16 0 1
    outer loop
      vertex -16.75 -30.5 45
      vertex -20 -30.5 45
      vertex -13.5 -33.5 45
    endloop
  endfacet
  facet normal 8.87469e-18 -0.999201 -0.039968
    outer loop
      vertex -13.5 -33.5 45
      vertex -20 -33.5 45
      vertex -20 -31.5 -5
    endloop
  endfacet
  facet normal 8.87469e-18 -0.999201 -0.039968
    outer loop
      vertex -13.5 -31.5 -5
      vertex -13.5 -33.5 45
      vertex -20 -31.5 -5
    endloop
  endfacet
endsolid OpenSCAD_Model
