solid OpenSCAD_Model
  facet normal 0 0 -1
    outer loop
      vertex -12 0 0
      vertex -11.9054 1.504 0
      vertex -11.9054 -1.504 0
    endloop
  endfacet
  facet normal 0 0 -1
    outer loop
      vertex -11.9054 -1.504 0
      vertex -11.9054 1.504 0
      vertex -11.623 2.98428 0
    endloop
  endfacet
  facet normal 0 0 -1
    outer loop
      vertex -11.9054 -1.504 0
      vertex -11.623 2.98428 0
      vertex -11.1573 4.41749 0
    endloop
  endfacet
  facet normal 0 0 -1
    outer loop
      vertex -11.9054 -1.504 0
      vertex -11.1573 4.41749 0
      vertex -10.5157 5.78104 0
    endloop
  endfacet
  facet normal 0 0 -1
    outer loop
      vertex -11.9054 -1.504 0
      vertex -10.5157 5.78104 0
      vertex -9.7082 7.05342 0
    endloop
  endfacet
  facet normal 0 0 -1
    outer loop
      vertex -11.9054 -1.504 0
      vertex -9.7082 7.05342 0
      vertex -8.74762 8.21457 0
    endloop
  endfacet
  facet normal 0 0 -1
    outer loop
      vertex -11.9054 -1.504 0
      vertex -8.74762 8.21457 0
      vertex -7.64909 9.24616 0
    endloop
  endfacet
  facet normal 0 0 -1
    outer loop
      vertex -8.49468 6.17174 0
      vertex -7.64909 9.24616 0
      vertex -6.42992 10.1319 0
    endloop
  endfacet
  facet normal 0 0 -1
    outer loop
      vertex -6.69295 8.09039 0
      vertex -6.42992 10.1319 0
      vertex -5.10935 10.8579 0
    endloop
  endfacet
  facet normal 0 0 -1
    outer loop
      vertex -5.62618 8.86544 0
      vertex -5.10935 10.8579 0
      vertex -3.7082 11.4127 0
    endloop
  endfacet
  facet normal 0 0 -1
    outer loop
      vertex -4.47068 9.50068 0
      vertex -3.7082 11.4127 0
      vertex -2.24858 11.7874 0
    endloop
  endfacet
  facet normal 0 0 -1
    outer loop
      vertex -3.24468 9.98609 0
      vertex -2.24858 11.7874 0
      vertex -0.753486 11.9763 0
    endloop
  endfacet
  facet normal 0 0 -1
    outer loop
      vertex -0.6593 10.4793 0
      vertex -0.753486 11.9763 0
      vertex 0.753486 11.9763 0
    endloop
  endfacet
  facet normal 0 0 -1
    outer loop
      vertex 0.6593 10.4793 0
      vertex 0.753486 11.9763 0
      vertex 2.24858 11.7874 0
    endloop
  endfacet
  facet normal 0 0 -1
    outer loop
      vertex 1.9675 10.314 0
      vertex 2.24858 11.7874 0
      vertex 3.7082 11.4127 0
    endloop
  endfacet
  facet normal 0 0 -1
    outer loop
      vertex 3.24468 9.98609 0
      vertex 3.7082 11.4127 0
      vertex 5.10935 10.8579 0
    endloop
  endfacet
  facet normal 0 0 -1
    outer loop
      vertex 4.47068 9.50068 0
      vertex 5.10935 10.8579 0
      vertex 6.42992 10.1319 0
    endloop
  endfacet
  facet normal 0 0 -1
    outer loop
      vertex 5.62618 8.86544 0
      vertex 6.42992 10.1319 0
      vertex 7.64909 9.24616 0
    endloop
  endfacet
  facet normal 0 0 -1
    outer loop
      vertex 6.69295 8.09039 0
      vertex 7.64909 9.24616 0
      vertex 8.74762 8.21457 0
    endloop
  endfacet
  facet normal 0 0 -1
    outer loop
      vertex 7.65417 7.18774 0
      vertex 8.74762 8.21457 0
      vertex 9.7082 7.05342 0
    endloop
  endfacet
  facet normal 0 0 -1
    outer loop
      vertex 8.49468 6.17174 0
      vertex 9.7082 7.05342 0
      vertex 10.5157 5.78104 0
    endloop
  endfacet
  facet normal 0 0 -1
    outer loop
      vertex 9.20122 5.05841 0
      vertex 10.5157 5.78104 0
      vertex 11.1573 4.41749 0
    endloop
  endfacet
  facet normal 0 0 -1
    outer loop
      vertex 9.76265 3.86531 0
      vertex 11.1573 4.41749 0
      vertex 11.623 2.98428 0
    endloop
  endfacet
  facet normal 0 0 -1
    outer loop
      vertex 10.1701 2.61124 0
      vertex 11.623 2.98428 0
      vertex 11.9054 1.504 0
    endloop
  endfacet
  facet normal 0 0 -1
    outer loop
      vertex 10.5 0 0
      vertex 11.9054 1.504 0
      vertex 12 0 0
    endloop
  endfacet
  facet normal 0 0 -1
    outer loop
      vertex 10.4172 -1.316 0
      vertex 12 0 0
      vertex 11.9054 -1.504 0
    endloop
  endfacet
  facet normal 0 0 -1
    outer loop
      vertex 10.1701 -2.61124 0
      vertex 11.9054 -1.504 0
      vertex 11.623 -2.98428 0
    endloop
  endfacet
  facet normal 0 0 -1
    outer loop
      vertex 9.76265 -3.86531 0
      vertex 11.623 -2.98428 0
      vertex 11.1573 -4.41749 0
    endloop
  endfacet
  facet normal 0 0 -1
    outer loop
      vertex 9.20122 -5.05841 0
      vertex 11.1573 -4.41749 0
      vertex 10.5157 -5.78104 0
    endloop
  endfacet
  facet normal 0 0 -1
    outer loop
      vertex 8.49468 -6.17174 0
      vertex 10.5157 -5.78104 0
      vertex 9.7082 -7.05342 0
    endloop
  endfacet
  facet normal 0 0 -1
    outer loop
      vertex 7.65417 -7.18774 0
      vertex 9.7082 -7.05342 0
      vertex 8.74762 -8.21457 0
    endloop
  endfacet
  facet normal 0 0 -1
    outer loop
      vertex 6.69295 -8.09039 0
      vertex 8.74762 -8.21457 0
      vertex 7.64909 -9.24616 0
    endloop
  endfacet
  facet normal 0 0 -1
    outer loop
      vertex 5.62618 -8.86544 0
      vertex 7.64909 -9.24616 0
      vertex 6.42992 -10.1319 0
    endloop
  endfacet
  facet normal 0 0 -1
    outer loop
      vertex 4.47068 -9.50068 0
      vertex 6.42992 -10.1319 0
      vertex 5.10935 -10.8579 0
    endloop
  endfacet
  facet normal 0 0 -1
    outer loop
      vertex 3.24468 -9.98609 0
      vertex 5.10935 -10.8579 0
      vertex 3.7082 -11.4127 0
    endloop
  endfacet
  facet normal 0 0 -1
    outer loop
      vertex 0.6593 -10.4793 0
      vertex 3.7082 -11.4127 0
      vertex 2.24858 -11.7874 0
    endloop
  endfacet
  facet normal 0 0 -1
    outer loop
      vertex -0.6593 -10.4793 0
      vertex 2.24858 -11.7874 0
      vertex 0.753486 -11.9763 0
    endloop
  endfacet
  facet normal 0 0 -1
    outer loop
      vertex -1.9675 -10.314 0
      vertex 0.753486 -11.9763 0
      vertex -0.753486 -11.9763 0
    endloop
  endfacet
  facet normal 0 0 -1
    outer loop
      vertex -3.24468 -9.98609 0
      vertex -0.753486 -11.9763 0
      vertex -2.24858 -11.7874 0
    endloop
  endfacet
  facet normal 0 0 -1
    outer loop
      vertex -5.62618 -8.86544 0
      vertex -2.24858 -11.7874 0
      vertex -3.7082 -11.4127 0
    endloop
  endfacet
  facet normal 0 0 -1
    outer loop
      vertex -7.65417 -7.18774 0
      vertex -3.7082 -11.4127 0
      vertex -5.10935 -10.8579 0
    endloop
  endfacet
  facet normal 0 0 -1
    outer loop
      vertex -11.9054 -1.504 0
      vertex -5.10935 -10.8579 0
      vertex -6.42992 -10.1319 0
    endloop
  endfacet
  facet normal 0 0 -1
    outer loop
      vertex -11.9054 -1.504 0
      vertex -6.42992 -10.1319 0
      vertex -7.64909 -9.24616 0
    endloop
  endfacet
  facet normal 0 0 -1
    outer loop
      vertex -11.9054 -1.504 0
      vertex -7.64909 -9.24616 0
      vertex -8.74762 -8.21457 0
    endloop
  endfacet
  facet normal 0 0 -1
    outer loop
      vertex -11.9054 -1.504 0
      vertex -8.74762 -8.21457 0
      vertex -9.7082 -7.05342 0
    endloop
  endfacet
  facet normal 0 0 -1
    outer loop
      vertex -11.9054 -1.504 0
      vertex -9.7082 -7.05342 0
      vertex -10.5157 -5.78104 0
    endloop
  endfacet
  facet normal 0 0 -1
    outer loop
      vertex -11.9054 -1.504 0
      vertex -10.5157 -5.78104 0
      vertex -11.1573 -4.41749 0
    endloop
  endfacet
  facet normal 0 0 -1
    outer loop
      vertex -11.9054 -1.504 0
      vertex -11.1573 -4.41749 0
      vertex -11.623 -2.98428 0
    endloop
  endfacet
  facet normal 0 0 -1
    outer loop
      vertex -10.4172 -1.316 0
      vertex -11.9054 -1.504 0
      vertex -10.5 0 0
    endloop
  endfacet
  facet normal 0 0 -1
    outer loop
      vertex 5.62618 -8.86544 0
      vertex 6.42992 -10.1319 0
      vertex 4.47068 -9.50068 0
    endloop
  endfacet
  facet normal 0 0 -1
    outer loop
      vertex -10.1701 -2.61124 0
      vertex -11.9054 -1.504 0
      vertex -10.4172 -1.316 0
    endloop
  endfacet
  facet normal 0 0 -1
    outer loop
      vertex -9.76265 -3.86531 0
      vertex -11.9054 -1.504 0
      vertex -10.1701 -2.61124 0
    endloop
  endfacet
  facet normal 0 0 -1
    outer loop
      vertex -9.20122 -5.05841 0
      vertex -11.9054 -1.504 0
      vertex -9.76265 -3.86531 0
    endloop
  endfacet
  facet normal 0 0 -1
    outer loop
      vertex -7.65417 -7.18774 0
      vertex -5.10935 -10.8579 0
      vertex -8.49468 -6.17174 0
    endloop
  endfacet
  facet normal 0 0 -1
    outer loop
      vertex -11.9054 -1.504 0
      vertex -9.20122 -5.05841 0
      vertex -8.49468 -6.17174 0
    endloop
  endfacet
  facet normal 0 0 -1
    outer loop
      vertex -11.9054 -1.504 0
      vertex -8.49468 -6.17174 0
      vertex -5.10935 -10.8579 0
    endloop
  endfacet
  facet normal 0 0 -1
    outer loop
      vertex -6.69295 -8.09039 0
      vertex -3.7082 -11.4127 0
      vertex -7.65417 -7.18774 0
    endloop
  endfacet
  facet normal 0 0 -1
    outer loop
      vertex -5.62618 -8.86544 0
      vertex -3.7082 -11.4127 0
      vertex -6.69295 -8.09039 0
    endloop
  endfacet
  facet normal 0 0 -1
    outer loop
      vertex -4.47068 -9.50068 0
      vertex -2.24858 -11.7874 0
      vertex -5.62618 -8.86544 0
    endloop
  endfacet
  facet normal 0 0 -1
    outer loop
      vertex -3.24468 -9.98609 0
      vertex -2.24858 -11.7874 0
      vertex -4.47068 -9.50068 0
    endloop
  endfacet
  facet normal 0 0 -1
    outer loop
      vertex 1.9675 -10.314 0
      vertex 3.7082 -11.4127 0
      vertex 0.6593 -10.4793 0
    endloop
  endfacet
  facet normal 0 0 -1
    outer loop
      vertex 3.24468 -9.98609 0
      vertex 3.7082 -11.4127 0
      vertex 1.9675 -10.314 0
    endloop
  endfacet
  facet normal 0 0 -1
    outer loop
      vertex 0.6593 -10.4793 0
      vertex 2.24858 -11.7874 0
      vertex -0.6593 -10.4793 0
    endloop
  endfacet
  facet normal 0 0 -1
    outer loop
      vertex -0.6593 -10.4793 0
      vertex 0.753486 -11.9763 0
      vertex -1.9675 -10.314 0
    endloop
  endfacet
  facet normal 0 0 -1
    outer loop
      vertex -1.9675 -10.314 0
      vertex -0.753486 -11.9763 0
      vertex -3.24468 -9.98609 0
    endloop
  endfacet
  facet normal 0 0 -1
    outer loop
      vertex 10.4172 1.316 0
      vertex 11.9054 1.504 0
      vertex 10.5 0 0
    endloop
  endfacet
  facet normal 0 0 -1
    outer loop
      vertex 9.76265 3.86531 0
      vertex 11.623 2.98428 0
      vertex 10.1701 2.61124 0
    endloop
  endfacet
  facet normal 0 0 -1
    outer loop
      vertex 10.1701 2.61124 0
      vertex 11.9054 1.504 0
      vertex 10.4172 1.316 0
    endloop
  endfacet
  facet normal 0 0 -1
    outer loop
      vertex 10.5 0 0
      vertex 12 0 0
      vertex 10.4172 -1.316 0
    endloop
  endfacet
  facet normal 0 0 -1
    outer loop
      vertex 10.4172 -1.316 0
      vertex 11.9054 -1.504 0
      vertex 10.1701 -2.61124 0
    endloop
  endfacet
  facet normal 0 0 -1
    outer loop
      vertex 10.1701 -2.61124 0
      vertex 11.623 -2.98428 0
      vertex 9.76265 -3.86531 0
    endloop
  endfacet
  facet normal 0 0 -1
    outer loop
      vertex 9.76265 -3.86531 0
      vertex 11.1573 -4.41749 0
      vertex 9.20122 -5.05841 0
    endloop
  endfacet
  facet normal 0 0 -1
    outer loop
      vertex 9.20122 -5.05841 0
      vertex 10.5157 -5.78104 0
      vertex 8.49468 -6.17174 0
    endloop
  endfacet
  facet normal 0 0 -1
    outer loop
      vertex 8.49468 -6.17174 0
      vertex 9.7082 -7.05342 0
      vertex 7.65417 -7.18774 0
    endloop
  endfacet
  facet normal 0 0 -1
    outer loop
      vertex 7.65417 -7.18774 0
      vertex 8.74762 -8.21457 0
      vertex 6.69295 -8.09039 0
    endloop
  endfacet
  facet normal 0 0 -1
    outer loop
      vertex 6.69295 -8.09039 0
      vertex 7.64909 -9.24616 0
      vertex 5.62618 -8.86544 0
    endloop
  endfacet
  facet normal 0 0 -1
    outer loop
      vertex -1.9675 10.314 0
      vertex -0.753486 11.9763 0
      vertex -0.6593 10.4793 0
    endloop
  endfacet
  facet normal 0 0 -1
    outer loop
      vertex -3.24468 9.98609 0
      vertex -0.753486 11.9763 0
      vertex -1.9675 10.314 0
    endloop
  endfacet
  facet normal 0 0 -1
    outer loop
      vertex -0.6593 10.4793 0
      vertex 0.753486 11.9763 0
      vertex 0.6593 10.4793 0
    endloop
  endfacet
  facet normal 0 0 -1
    outer loop
      vertex 0.6593 10.4793 0
      vertex 2.24858 11.7874 0
      vertex 1.9675 10.314 0
    endloop
  endfacet
  facet normal 0 0 -1
    outer loop
      vertex 1.9675 10.314 0
      vertex 3.7082 11.4127 0
      vertex 3.24468 9.98609 0
    endloop
  endfacet
  facet normal 0 0 -1
    outer loop
      vertex -7.65417 7.18774 0
      vertex -6.42992 10.1319 0
      vertex -6.69295 8.09039 0
    endloop
  endfacet
  facet normal 0 0 -1
    outer loop
      vertex -9.20122 5.05841 0
      vertex -7.64909 9.24616 0
      vertex -8.49468 6.17174 0
    endloop
  endfacet
  facet normal 0 0 -1
    outer loop
      vertex -10.1701 2.61124 0
      vertex -11.9054 -1.504 0
      vertex -9.76265 3.86531 0
    endloop
  endfacet
  facet normal 0 0 -1
    outer loop
      vertex -9.76265 3.86531 0
      vertex -7.64909 9.24616 0
      vertex -9.20122 5.05841 0
    endloop
  endfacet
  facet normal 0 0 -1
    outer loop
      vertex -11.9054 -1.504 0
      vertex -7.64909 9.24616 0
      vertex -9.76265 3.86531 0
    endloop
  endfacet
  facet normal 0 0 -1
    outer loop
      vertex -10.4172 1.316 0
      vertex -11.9054 -1.504 0
      vertex -10.1701 2.61124 0
    endloop
  endfacet
  facet normal 0 0 -1
    outer loop
      vertex 3.24468 9.98609 0
      vertex 5.10935 10.8579 0
      vertex 4.47068 9.50068 0
    endloop
  endfacet
  facet normal 0 0 -1
    outer loop
      vertex -10.5 0 0
      vertex -11.9054 -1.504 0
      vertex -10.4172 1.316 0
    endloop
  endfacet
  facet normal 0 0 -1
    outer loop
      vertex -8.49468 6.17174 0
      vertex -6.42992 10.1319 0
      vertex -7.65417 7.18774 0
    endloop
  endfacet
  facet normal 0 0 -1
    outer loop
      vertex -6.69295 8.09039 0
      vertex -5.10935 10.8579 0
      vertex -5.62618 8.86544 0
    endloop
  endfacet
  facet normal 0 0 -1
    outer loop
      vertex -5.62618 8.86544 0
      vertex -3.7082 11.4127 0
      vertex -4.47068 9.50068 0
    endloop
  endfacet
  facet normal 0 0 -1
    outer loop
      vertex -4.47068 9.50068 0
      vertex -2.24858 11.7874 0
      vertex -3.24468 9.98609 0
    endloop
  endfacet
  facet normal 0 0 -1
    outer loop
      vertex 4.47068 9.50068 0
      vertex 6.42992 10.1319 0
      vertex 5.62618 8.86544 0
    endloop
  endfacet
  facet normal 0 0 -1
    outer loop
      vertex 5.62618 8.86544 0
      vertex 7.64909 9.24616 0
      vertex 6.69295 8.09039 0
    endloop
  endfacet
  facet normal 0 0 -1
    outer loop
      vertex 6.69295 8.09039 0
      vertex 8.74762 8.21457 0
      vertex 7.65417 7.18774 0
    endloop
  endfacet
  facet normal 0 0 -1
    outer loop
      vertex 7.65417 7.18774 0
      vertex 9.7082 7.05342 0
      vertex 8.49468 6.17174 0
    endloop
  endfacet
  facet normal 0 0 -1
    outer loop
      vertex 8.49468 6.17174 0
      vertex 10.5157 5.78104 0
      vertex 9.20122 5.05841 0
    endloop
  endfacet
  facet normal 0 0 -1
    outer loop
      vertex 9.20122 5.05841 0
      vertex 11.1573 4.41749 0
      vertex 9.76265 3.86531 0
    endloop
  endfacet
  facet normal 0 0 -1
    outer loop
      vertex 4.47068 -9.50068 0
      vertex 5.10935 -10.8579 0
      vertex 3.24468 -9.98609 0
    endloop
  endfacet
  facet normal -0.998027 0.0627908 0
    outer loop
      vertex -12 0 0
      vertex -12 0 100
      vertex -11.9054 1.504 0
    endloop
  endfacet
  facet normal -0.998027 0.0627908 0
    outer loop
      vertex -11.9054 1.504 0
      vertex -12 0 100
      vertex -11.9054 1.504 100
    endloop
  endfacet
  facet normal -0.998027 -0.0627908 0
    outer loop
      vertex -12 0 0
      vertex -11.9054 -1.504 0
      vertex -12 0 100
    endloop
  endfacet
  facet normal -0.998027 -0.0627908 0
    outer loop
      vertex -12 0 100
      vertex -11.9054 -1.504 0
      vertex -11.9054 -1.504 100
    endloop
  endfacet
  facet normal -0.982287 -0.187381 0
    outer loop
      vertex -11.9054 -1.504 0
      vertex -11.623 -2.98428 0
      vertex -11.9054 -1.504 100
    endloop
  endfacet
  facet normal -0.982287 -0.187381 0
    outer loop
      vertex -11.9054 -1.504 100
      vertex -11.623 -2.98428 0
      vertex -11.623 -2.98428 100
    endloop
  endfacet
  facet normal -0.951057 -0.309017 0
    outer loop
      vertex -11.623 -2.98428 0
      vertex -11.1573 -4.41749 0
      vertex -11.623 -2.98428 100
    endloop
  endfacet
  facet normal -0.951057 -0.309017 0
    outer loop
      vertex -11.623 -2.98428 100
      vertex -11.1573 -4.41749 0
      vertex -11.1573 -4.41749 100
    endloop
  endfacet
  facet normal -0.904827 -0.42578 0
    outer loop
      vertex -11.1573 -4.41749 0
      vertex -10.5157 -5.78104 0
      vertex -11.1573 -4.41749 100
    endloop
  endfacet
  facet normal -0.904827 -0.42578 0
    outer loop
      vertex -11.1573 -4.41749 100
      vertex -10.5157 -5.78104 0
      vertex -10.5157 -5.78104 100
    endloop
  endfacet
  facet normal -0.844328 -0.535827 0
    outer loop
      vertex -10.5157 -5.78104 0
      vertex -9.7082 -7.05342 0
      vertex -10.5157 -5.78104 100
    endloop
  endfacet
  facet normal -0.844328 -0.535827 0
    outer loop
      vertex -10.5157 -5.78104 100
      vertex -9.7082 -7.05342 0
      vertex -9.7082 -7.05342 100
    endloop
  endfacet
  facet normal -0.770513 -0.637424 0
    outer loop
      vertex -9.7082 -7.05342 0
      vertex -8.74762 -8.21457 0
      vertex -9.7082 -7.05342 100
    endloop
  endfacet
  facet normal -0.770513 -0.637424 0
    outer loop
      vertex -9.7082 -7.05342 100
      vertex -8.74762 -8.21457 0
      vertex -8.74762 -8.21457 100
    endloop
  endfacet
  facet normal -0.684547 -0.728969 0
    outer loop
      vertex -8.74762 -8.21457 100
      vertex -8.74762 -8.21457 0
      vertex -7.64909 -9.24616 0
    endloop
  endfacet
  facet normal -0.684547 -0.728969 0
    outer loop
      vertex -7.64909 -9.24616 100
      vertex -8.74762 -8.21457 100
      vertex -7.64909 -9.24616 0
    endloop
  endfacet
  facet normal -0.587785 -0.809017 0
    outer loop
      vertex -7.64909 -9.24616 100
      vertex -7.64909 -9.24616 0
      vertex -6.42992 -10.1319 0
    endloop
  endfacet
  facet normal -0.587785 -0.809017 0
    outer loop
      vertex -6.42992 -10.1319 100
      vertex -7.64909 -9.24616 100
      vertex -6.42992 -10.1319 0
    endloop
  endfacet
  facet normal -0.481754 -0.876307 0
    outer loop
      vertex -6.42992 -10.1319 100
      vertex -6.42992 -10.1319 0
      vertex -5.10935 -10.8579 0
    endloop
  endfacet
  facet normal -0.481754 -0.876307 0
    outer loop
      vertex -5.10935 -10.8579 100
      vertex -6.42992 -10.1319 100
      vertex -5.10935 -10.8579 0
    endloop
  endfacet
  facet normal -0.368124 -0.929777 0
    outer loop
      vertex -5.10935 -10.8579 100
      vertex -5.10935 -10.8579 0
      vertex -3.7082 -11.4127 0
    endloop
  endfacet
  facet normal -0.368124 -0.929777 0
    outer loop
      vertex -3.7082 -11.4127 100
      vertex -5.10935 -10.8579 100
      vertex -3.7082 -11.4127 0
    endloop
  endfacet
  facet normal -0.24869 -0.968583 0
    outer loop
      vertex -3.7082 -11.4127 100
      vertex -3.7082 -11.4127 0
      vertex -2.24858 -11.7874 0
    endloop
  endfacet
  facet normal -0.24869 -0.968583 0
    outer loop
      vertex -2.24858 -11.7874 100
      vertex -3.7082 -11.4127 100
      vertex -2.24858 -11.7874 0
    endloop
  endfacet
  facet normal -0.125333 -0.992115 0
    outer loop
      vertex -2.24858 -11.7874 100
      vertex -2.24858 -11.7874 0
      vertex -0.753486 -11.9763 0
    endloop
  endfacet
  facet normal -0.125333 -0.992115 0
    outer loop
      vertex -0.753486 -11.9763 100
      vertex -2.24858 -11.7874 100
      vertex -0.753486 -11.9763 0
    endloop
  endfacet
  facet normal 0 -1 0
    outer loop
      vertex -0.753486 -11.9763 100
      vertex -0.753486 -11.9763 0
      vertex 0.753486 -11.9763 0
    endloop
  endfacet
  facet normal 0 -1 0
    outer loop
      vertex 0.753486 -11.9763 100
      vertex -0.753486 -11.9763 100
      vertex 0.753486 -11.9763 0
    endloop
  endfacet
  facet normal 0.125333 -0.992115 0
    outer loop
      vertex 0.753486 -11.9763 100
      vertex 0.753486 -11.9763 0
      vertex 2.24858 -11.7874 0
    endloop
  endfacet
  facet normal 0.125333 -0.992115 0
    outer loop
      vertex 2.24858 -11.7874 100
      vertex 0.753486 -11.9763 100
      vertex 2.24858 -11.7874 0
    endloop
  endfacet
  facet normal 0.24869 -0.968583 0
    outer loop
      vertex 2.24858 -11.7874 100
      vertex 2.24858 -11.7874 0
      vertex 3.7082 -11.4127 0
    endloop
  endfacet
  facet normal 0.24869 -0.968583 0
    outer loop
      vertex 3.7082 -11.4127 100
      vertex 2.24858 -11.7874 100
      vertex 3.7082 -11.4127 0
    endloop
  endfacet
  facet normal 0.368124 -0.929777 0
    outer loop
      vertex 3.7082 -11.4127 100
      vertex 3.7082 -11.4127 0
      vertex 5.10935 -10.8579 0
    endloop
  endfacet
  facet normal 0.368124 -0.929777 0
    outer loop
      vertex 5.10935 -10.8579 100
      vertex 3.7082 -11.4127 100
      vertex 5.10935 -10.8579 0
    endloop
  endfacet
  facet normal 0.481754 -0.876307 0
    outer loop
      vertex 5.10935 -10.8579 100
      vertex 5.10935 -10.8579 0
      vertex 6.42992 -10.1319 0
    endloop
  endfacet
  facet normal 0.481754 -0.876307 0
    outer loop
      vertex 6.42992 -10.1319 100
      vertex 5.10935 -10.8579 100
      vertex 6.42992 -10.1319 0
    endloop
  endfacet
  facet normal 0.587785 -0.809017 0
    outer loop
      vertex 6.42992 -10.1319 100
      vertex 6.42992 -10.1319 0
      vertex 7.64909 -9.24616 0
    endloop
  endfacet
  facet normal 0.587785 -0.809017 0
    outer loop
      vertex 7.64909 -9.24616 100
      vertex 6.42992 -10.1319 100
      vertex 7.64909 -9.24616 0
    endloop
  endfacet
  facet normal 0.684547 -0.728969 0
    outer loop
      vertex 7.64909 -9.24616 100
      vertex 7.64909 -9.24616 0
      vertex 8.74762 -8.21457 0
    endloop
  endfacet
  facet normal 0.684547 -0.728969 0
    outer loop
      vertex 8.74762 -8.21457 100
      vertex 7.64909 -9.24616 100
      vertex 8.74762 -8.21457 0
    endloop
  endfacet
  facet normal 0.770513 -0.637424 0
    outer loop
      vertex 8.74762 -8.21457 100
      vertex 8.74762 -8.21457 0
      vertex 9.7082 -7.05342 0
    endloop
  endfacet
  facet normal 0.770513 -0.637424 0
    outer loop
      vertex 9.7082 -7.05342 100
      vertex 8.74762 -8.21457 100
      vertex 9.7082 -7.05342 0
    endloop
  endfacet
  facet normal 0.844328 -0.535827 0
    outer loop
      vertex 9.7082 -7.05342 100
      vertex 9.7082 -7.05342 0
      vertex 10.5157 -5.78104 0
    endloop
  endfacet
  facet normal 0.844328 -0.535827 0
    outer loop
      vertex 10.5157 -5.78104 100
      vertex 9.7082 -7.05342 100
      vertex 10.5157 -5.78104 0
    endloop
  endfacet
  facet normal 0.904827 -0.42578 0
    outer loop
      vertex 10.5157 -5.78104 100
      vertex 10.5157 -5.78104 0
      vertex 11.1573 -4.41749 0
    endloop
  endfacet
  facet normal 0.904827 -0.42578 0
    outer loop
      vertex 11.1573 -4.41749 100
      vertex 10.5157 -5.78104 100
      vertex 11.1573 -4.41749 0
    endloop
  endfacet
  facet normal 0.951057 -0.309017 0
    outer loop
      vertex 11.1573 -4.41749 100
      vertex 11.1573 -4.41749 0
      vertex 11.623 -2.98428 0
    endloop
  endfacet
  facet normal 0.951057 -0.309017 0
    outer loop
      vertex 11.623 -2.98428 100
      vertex 11.1573 -4.41749 100
      vertex 11.623 -2.98428 0
    endloop
  endfacet
  facet normal 0.982287 -0.187381 0
    outer loop
      vertex 11.623 -2.98428 100
      vertex 11.623 -2.98428 0
      vertex 11.9054 -1.504 0
    endloop
  endfacet
  facet normal 0.982287 -0.187381 0
    outer loop
      vertex 11.9054 -1.504 100
      vertex 11.623 -2.98428 100
      vertex 11.9054 -1.504 0
    endloop
  endfacet
  facet normal 0.998027 -0.0627908 0
    outer loop
      vertex 11.9054 -1.504 100
      vertex 11.9054 -1.504 0
      vertex 12 0 0
    endloop
  endfacet
  facet normal 0.998027 -0.0627908 0
    outer loop
      vertex 12 0 100
      vertex 11.9054 -1.504 100
      vertex 12 0 0
    endloop
  endfacet
  facet normal 0.998027 0.0627908 0
    outer loop
      vertex 12 0 0
      vertex 11.9054 1.504 0
      vertex 11.9054 1.504 100
    endloop
  endfacet
  facet normal 0.998027 0.0627908 0
    outer loop
      vertex 12 0 100
      vertex 12 0 0
      vertex 11.9054 1.504 100
    endloop
  endfacet
  facet normal 0.982287 0.187381 0
    outer loop
      vertex 11.9054 1.504 0
      vertex 11.623 2.98428 0
      vertex 11.623 2.98428 100
    endloop
  endfacet
  facet normal 0.982287 0.187381 0
    outer loop
      vertex 11.9054 1.504 100
      vertex 11.9054 1.504 0
      vertex 11.623 2.98428 100
    endloop
  endfacet
  facet normal 0.951057 0.309017 0
    outer loop
      vertex 11.623 2.98428 0
      vertex 11.1573 4.41749 0
      vertex 11.1573 4.41749 100
    endloop
  endfacet
  facet normal 0.951057 0.309017 0
    outer loop
      vertex 11.623 2.98428 100
      vertex 11.623 2.98428 0
      vertex 11.1573 4.41749 100
    endloop
  endfacet
  facet normal 0.904827 0.42578 0
    outer loop
      vertex 11.1573 4.41749 0
      vertex 10.5157 5.78104 0
      vertex 10.5157 5.78104 100
    endloop
  endfacet
  facet normal 0.904827 0.42578 0
    outer loop
      vertex 11.1573 4.41749 100
      vertex 11.1573 4.41749 0
      vertex 10.5157 5.78104 100
    endloop
  endfacet
  facet normal 0.844328 0.535827 0
    outer loop
      vertex 10.5157 5.78104 0
      vertex 9.7082 7.05342 0
      vertex 9.7082 7.05342 100
    endloop
  endfacet
  facet normal 0.844328 0.535827 0
    outer loop
      vertex 10.5157 5.78104 100
      vertex 10.5157 5.78104 0
      vertex 9.7082 7.05342 100
    endloop
  endfacet
  facet normal 0.770513 0.637424 0
    outer loop
      vertex 9.7082 7.05342 0
      vertex 8.74762 8.21457 0
      vertex 8.74762 8.21457 100
    endloop
  endfacet
  facet normal 0.770513 0.637424 0
    outer loop
      vertex 9.7082 7.05342 100
      vertex 9.7082 7.05342 0
      vertex 8.74762 8.21457 100
    endloop
  endfacet
  facet normal 0.684547 0.728969 0
    outer loop
      vertex 7.64909 9.24616 0
      vertex 7.64909 9.24616 100
      vertex 8.74762 8.21457 0
    endloop
  endfacet
  facet normal 0.684547 0.728969 0
    outer loop
      vertex 8.74762 8.21457 0
      vertex 7.64909 9.24616 100
      vertex 8.74762 8.21457 100
    endloop
  endfacet
  facet normal 0.587785 0.809017 0
    outer loop
      vertex 6.42992 10.1319 0
      vertex 6.42992 10.1319 100
      vertex 7.64909 9.24616 0
    endloop
  endfacet
  facet normal 0.587785 0.809017 0
    outer loop
      vertex 7.64909 9.24616 0
      vertex 6.42992 10.1319 100
      vertex 7.64909 9.24616 100
    endloop
  endfacet
  facet normal 0.481754 0.876307 0
    outer loop
      vertex 5.10935 10.8579 0
      vertex 5.10935 10.8579 100
      vertex 6.42992 10.1319 0
    endloop
  endfacet
  facet normal 0.481754 0.876307 0
    outer loop
      vertex 6.42992 10.1319 0
      vertex 5.10935 10.8579 100
      vertex 6.42992 10.1319 100
    endloop
  endfacet
  facet normal 0.368124 0.929777 0
    outer loop
      vertex 3.7082 11.4127 0
      vertex 3.7082 11.4127 100
      vertex 5.10935 10.8579 0
    endloop
  endfacet
  facet normal 0.368124 0.929777 0
    outer loop
      vertex 5.10935 10.8579 0
      vertex 3.7082 11.4127 100
      vertex 5.10935 10.8579 100
    endloop
  endfacet
  facet normal 0.24869 0.968583 0
    outer loop
      vertex 2.24858 11.7874 0
      vertex 2.24858 11.7874 100
      vertex 3.7082 11.4127 0
    endloop
  endfacet
  facet normal 0.24869 0.968583 0
    outer loop
      vertex 3.7082 11.4127 0
      vertex 2.24858 11.7874 100
      vertex 3.7082 11.4127 100
    endloop
  endfacet
  facet normal 0.125333 0.992115 0
    outer loop
      vertex 0.753486 11.9763 0
      vertex 0.753486 11.9763 100
      vertex 2.24858 11.7874 0
    endloop
  endfacet
  facet normal 0.125333 0.992115 0
    outer loop
      vertex 2.24858 11.7874 0
      vertex 0.753486 11.9763 100
      vertex 2.24858 11.7874 100
    endloop
  endfacet
  facet normal 0 1 0
    outer loop
      vertex -0.753486 11.9763 0
      vertex -0.753486 11.9763 100
      vertex 0.753486 11.9763 0
    endloop
  endfacet
  facet normal 0 1 0
    outer loop
      vertex 0.753486 11.9763 0
      vertex -0.753486 11.9763 100
      vertex 0.753486 11.9763 100
    endloop
  endfacet
  facet normal -0.125333 0.992115 0
    outer loop
      vertex -2.24858 11.7874 0
      vertex -2.24858 11.7874 100
      vertex -0.753486 11.9763 0
    endloop
  endfacet
  facet normal -0.125333 0.992115 0
    outer loop
      vertex -0.753486 11.9763 0
      vertex -2.24858 11.7874 100
      vertex -0.753486 11.9763 100
    endloop
  endfacet
  facet normal -0.24869 0.968583 0
    outer loop
      vertex -3.7082 11.4127 0
      vertex -3.7082 11.4127 100
      vertex -2.24858 11.7874 0
    endloop
  endfacet
  facet normal -0.24869 0.968583 0
    outer loop
      vertex -2.24858 11.7874 0
      vertex -3.7082 11.4127 100
      vertex -2.24858 11.7874 100
    endloop
  endfacet
  facet normal -0.368124 0.929777 0
    outer loop
      vertex -5.10935 10.8579 0
      vertex -5.10935 10.8579 100
      vertex -3.7082 11.4127 0
    endloop
  endfacet
  facet normal -0.368124 0.929777 0
    outer loop
      vertex -3.7082 11.4127 0
      vertex -5.10935 10.8579 100
      vertex -3.7082 11.4127 100
    endloop
  endfacet
  facet normal -0.481754 0.876307 0
    outer loop
      vertex -6.42992 10.1319 0
      vertex -6.42992 10.1319 100
      vertex -5.10935 10.8579 0
    endloop
  endfacet
  facet normal -0.481754 0.876307 0
    outer loop
      vertex -5.10935 10.8579 0
      vertex -6.42992 10.1319 100
      vertex -5.10935 10.8579 100
    endloop
  endfacet
  facet normal -0.587785 0.809017 0
    outer loop
      vertex -7.64909 9.24616 0
      vertex -7.64909 9.24616 100
      vertex -6.42992 10.1319 0
    endloop
  endfacet
  facet normal -0.587785 0.809017 0
    outer loop
      vertex -6.42992 10.1319 0
      vertex -7.64909 9.24616 100
      vertex -6.42992 10.1319 100
    endloop
  endfacet
  facet normal -0.684547 0.728969 0
    outer loop
      vertex -8.74762 8.21457 0
      vertex -8.74762 8.21457 100
      vertex -7.64909 9.24616 0
    endloop
  endfacet
  facet normal -0.684547 0.728969 0
    outer loop
      vertex -7.64909 9.24616 0
      vertex -8.74762 8.21457 100
      vertex -7.64909 9.24616 100
    endloop
  endfacet
  facet normal -0.770513 0.637424 0
    outer loop
      vertex -9.7082 7.05342 0
      vertex -9.7082 7.05342 100
      vertex -8.74762 8.21457 0
    endloop
  endfacet
  facet normal -0.770513 0.637424 0
    outer loop
      vertex -8.74762 8.21457 0
      vertex -9.7082 7.05342 100
      vertex -8.74762 8.21457 100
    endloop
  endfacet
  facet normal -0.844328 0.535827 0
    outer loop
      vertex -10.5157 5.78104 0
      vertex -10.5157 5.78104 100
      vertex -9.7082 7.05342 0
    endloop
  endfacet
  facet normal -0.844328 0.535827 0
    outer loop
      vertex -9.7082 7.05342 0
      vertex -10.5157 5.78104 100
      vertex -9.7082 7.05342 100
    endloop
  endfacet
  facet normal -0.904827 0.42578 0
    outer loop
      vertex -11.1573 4.41749 0
      vertex -11.1573 4.41749 100
      vertex -10.5157 5.78104 0
    endloop
  endfacet
  facet normal -0.904827 0.42578 0
    outer loop
      vertex -10.5157 5.78104 0
      vertex -11.1573 4.41749 100
      vertex -10.5157 5.78104 100
    endloop
  endfacet
  facet normal -0.951057 0.309017 0
    outer loop
      vertex -11.623 2.98428 0
      vertex -11.623 2.98428 100
      vertex -11.1573 4.41749 0
    endloop
  endfacet
  facet normal -0.951057 0.309017 0
    outer loop
      vertex -11.1573 4.41749 0
      vertex -11.623 2.98428 100
      vertex -11.1573 4.41749 100
    endloop
  endfacet
  facet normal -0.982287 0.187381 0
    outer loop
      vertex -11.9054 1.504 0
      vertex -11.9054 1.504 100
      vertex -11.623 2.98428 0
    endloop
  endfacet
  facet normal -0.982287 0.187381 0
    outer loop
      vertex -11.623 2.98428 0
      vertex -11.9054 1.504 100
      vertex -11.623 2.98428 100
    endloop
  endfacet
  facet normal 0.998027 0.0627908 0
    outer loop
      vertex -10.5 0 100
      vertex -10.4172 -1.316 100
      vertex -10.4172 -1.316 0
    endloop
  endfacet
  facet normal 0.998027 0.0627908 0
    outer loop
      vertex -10.5 0 0
      vertex -10.5 0 100
      vertex -10.4172 -1.316 0
    endloop
  endfacet
  facet normal 0.998027 -0.0627908 0
    outer loop
      vertex -10.4172 1.316 0
      vertex -10.4172 1.316 100
      vertex -10.5 0 100
    endloop
  endfacet
  facet normal 0.998027 -0.0627908 0
    outer loop
      vertex -10.5 0 0
      vertex -10.4172 1.316 0
      vertex -10.5 0 100
    endloop
  endfacet
  facet normal 0.982287 -0.187381 0
    outer loop
      vertex -10.1701 2.61124 0
      vertex -10.1701 2.61124 100
      vertex -10.4172 1.316 100
    endloop
  endfacet
  facet normal 0.982287 -0.187381 0
    outer loop
      vertex -10.4172 1.316 0
      vertex -10.1701 2.61124 0
      vertex -10.4172 1.316 100
    endloop
  endfacet
  facet normal 0.951057 -0.309017 0
    outer loop
      vertex -9.76265 3.86531 0
      vertex -9.76265 3.86531 100
      vertex -10.1701 2.61124 100
    endloop
  endfacet
  facet normal 0.951057 -0.309017 0
    outer loop
      vertex -10.1701 2.61124 0
      vertex -9.76265 3.86531 0
      vertex -10.1701 2.61124 100
    endloop
  endfacet
  facet normal 0.904827 -0.425779 0
    outer loop
      vertex -9.20122 5.05841 0
      vertex -9.20122 5.05841 100
      vertex -9.76265 3.86531 100
    endloop
  endfacet
  facet normal 0.904827 -0.425779 0
    outer loop
      vertex -9.76265 3.86531 0
      vertex -9.20122 5.05841 0
      vertex -9.76265 3.86531 100
    endloop
  endfacet
  facet normal 0.844328 -0.535827 0
    outer loop
      vertex -8.49468 6.17174 0
      vertex -8.49468 6.17174 100
      vertex -9.20122 5.05841 100
    endloop
  endfacet
  facet normal 0.844328 -0.535827 0
    outer loop
      vertex -9.20122 5.05841 0
      vertex -8.49468 6.17174 0
      vertex -9.20122 5.05841 100
    endloop
  endfacet
  facet normal 0.770514 -0.637423 0
    outer loop
      vertex -7.65417 7.18774 0
      vertex -7.65417 7.18774 100
      vertex -8.49468 6.17174 100
    endloop
  endfacet
  facet normal 0.770514 -0.637423 0
    outer loop
      vertex -8.49468 6.17174 0
      vertex -7.65417 7.18774 0
      vertex -8.49468 6.17174 100
    endloop
  endfacet
  facet normal 0.684547 -0.728969 0
    outer loop
      vertex -6.69295 8.09039 0
      vertex -6.69295 8.09039 100
      vertex -7.65417 7.18774 100
    endloop
  endfacet
  facet normal 0.684547 -0.728969 0
    outer loop
      vertex -7.65417 7.18774 0
      vertex -6.69295 8.09039 0
      vertex -7.65417 7.18774 100
    endloop
  endfacet
  facet normal 0.587785 -0.809017 0
    outer loop
      vertex -5.62618 8.86544 0
      vertex -5.62618 8.86544 100
      vertex -6.69295 8.09039 100
    endloop
  endfacet
  facet normal 0.587785 -0.809017 0
    outer loop
      vertex -6.69295 8.09039 0
      vertex -5.62618 8.86544 0
      vertex -6.69295 8.09039 100
    endloop
  endfacet
  facet normal 0.481754 -0.876306 0
    outer loop
      vertex -4.47068 9.50068 0
      vertex -4.47068 9.50068 100
      vertex -5.62618 8.86544 100
    endloop
  endfacet
  facet normal 0.481754 -0.876306 0
    outer loop
      vertex -5.62618 8.86544 0
      vertex -4.47068 9.50068 0
      vertex -5.62618 8.86544 100
    endloop
  endfacet
  facet normal 0.368124 -0.929777 0
    outer loop
      vertex -3.24468 9.98609 0
      vertex -3.24468 9.98609 100
      vertex -4.47068 9.50068 100
    endloop
  endfacet
  facet normal 0.368124 -0.929777 0
    outer loop
      vertex -4.47068 9.50068 0
      vertex -3.24468 9.98609 0
      vertex -4.47068 9.50068 100
    endloop
  endfacet
  facet normal 0.24869 -0.968583 0
    outer loop
      vertex -1.9675 10.314 0
      vertex -1.9675 10.314 100
      vertex -3.24468 9.98609 100
    endloop
  endfacet
  facet normal 0.24869 -0.968583 0
    outer loop
      vertex -3.24468 9.98609 0
      vertex -1.9675 10.314 0
      vertex -3.24468 9.98609 100
    endloop
  endfacet
  facet normal 0.125334 -0.992115 0
    outer loop
      vertex -0.6593 10.4793 0
      vertex -0.6593 10.4793 100
      vertex -1.9675 10.314 100
    endloop
  endfacet
  facet normal 0.125334 -0.992115 0
    outer loop
      vertex -1.9675 10.314 0
      vertex -0.6593 10.4793 0
      vertex -1.9675 10.314 100
    endloop
  endfacet
  facet normal 0 -1 0
    outer loop
      vertex 0.6593 10.4793 0
      vertex 0.6593 10.4793 100
      vertex -0.6593 10.4793 100
    endloop
  endfacet
  facet normal 0 -1 0
    outer loop
      vertex -0.6593 10.4793 0
      vertex 0.6593 10.4793 0
      vertex -0.6593 10.4793 100
    endloop
  endfacet
  facet normal -0.125334 -0.992115 0
    outer loop
      vertex 1.9675 10.314 0
      vertex 1.9675 10.314 100
      vertex 0.6593 10.4793 100
    endloop
  endfacet
  facet normal -0.125334 -0.992115 0
    outer loop
      vertex 0.6593 10.4793 0
      vertex 1.9675 10.314 0
      vertex 0.6593 10.4793 100
    endloop
  endfacet
  facet normal -0.24869 -0.968583 0
    outer loop
      vertex 3.24468 9.98609 0
      vertex 3.24468 9.98609 100
      vertex 1.9675 10.314 100
    endloop
  endfacet
  facet normal -0.24869 -0.968583 0
    outer loop
      vertex 1.9675 10.314 0
      vertex 3.24468 9.98609 0
      vertex 1.9675 10.314 100
    endloop
  endfacet
  facet normal -0.368124 -0.929777 0
    outer loop
      vertex 4.47068 9.50068 0
      vertex 4.47068 9.50068 100
      vertex 3.24468 9.98609 100
    endloop
  endfacet
  facet normal -0.368124 -0.929777 0
    outer loop
      vertex 3.24468 9.98609 0
      vertex 4.47068 9.50068 0
      vertex 3.24468 9.98609 100
    endloop
  endfacet
  facet normal -0.481754 -0.876306 0
    outer loop
      vertex 5.62618 8.86544 0
      vertex 5.62618 8.86544 100
      vertex 4.47068 9.50068 100
    endloop
  endfacet
  facet normal -0.481754 -0.876306 0
    outer loop
      vertex 4.47068 9.50068 0
      vertex 5.62618 8.86544 0
      vertex 4.47068 9.50068 100
    endloop
  endfacet
  facet normal -0.587785 -0.809017 0
    outer loop
      vertex 6.69295 8.09039 0
      vertex 6.69295 8.09039 100
      vertex 5.62618 8.86544 100
    endloop
  endfacet
  facet normal -0.587785 -0.809017 0
    outer loop
      vertex 5.62618 8.86544 0
      vertex 6.69295 8.09039 0
      vertex 5.62618 8.86544 100
    endloop
  endfacet
  facet normal -0.684547 -0.728969 0
    outer loop
      vertex 7.65417 7.18774 0
      vertex 7.65417 7.18774 100
      vertex 6.69295 8.09039 100
    endloop
  endfacet
  facet normal -0.684547 -0.728969 0
    outer loop
      vertex 6.69295 8.09039 0
      vertex 7.65417 7.18774 0
      vertex 6.69295 8.09039 100
    endloop
  endfacet
  facet normal -0.770514 -0.637423 0
    outer loop
      vertex 8.49468 6.17174 100
      vertex 7.65417 7.18774 100
      vertex 8.49468 6.17174 0
    endloop
  endfacet
  facet normal -0.770514 -0.637423 0
    outer loop
      vertex 8.49468 6.17174 0
      vertex 7.65417 7.18774 100
      vertex 7.65417 7.18774 0
    endloop
  endfacet
  facet normal -0.844328 -0.535827 0
    outer loop
      vertex 9.20122 5.05841 100
      vertex 8.49468 6.17174 100
      vertex 9.20122 5.05841 0
    endloop
  endfacet
  facet normal -0.844328 -0.535827 0
    outer loop
      vertex 9.20122 5.05841 0
      vertex 8.49468 6.17174 100
      vertex 8.49468 6.17174 0
    endloop
  endfacet
  facet normal -0.904827 -0.425779 0
    outer loop
      vertex 9.76265 3.86531 100
      vertex 9.20122 5.05841 100
      vertex 9.76265 3.86531 0
    endloop
  endfacet
  facet normal -0.904827 -0.425779 0
    outer loop
      vertex 9.76265 3.86531 0
      vertex 9.20122 5.05841 100
      vertex 9.20122 5.05841 0
    endloop
  endfacet
  facet normal -0.951057 -0.309017 0
    outer loop
      vertex 10.1701 2.61124 100
      vertex 9.76265 3.86531 100
      vertex 10.1701 2.61124 0
    endloop
  endfacet
  facet normal -0.951057 -0.309017 0
    outer loop
      vertex 10.1701 2.61124 0
      vertex 9.76265 3.86531 100
      vertex 9.76265 3.86531 0
    endloop
  endfacet
  facet normal -0.982287 -0.187381 0
    outer loop
      vertex 10.4172 1.316 100
      vertex 10.1701 2.61124 100
      vertex 10.4172 1.316 0
    endloop
  endfacet
  facet normal -0.982287 -0.187381 0
    outer loop
      vertex 10.4172 1.316 0
      vertex 10.1701 2.61124 100
      vertex 10.1701 2.61124 0
    endloop
  endfacet
  facet normal -0.998027 -0.0627908 0
    outer loop
      vertex 10.5 0 100
      vertex 10.4172 1.316 100
      vertex 10.5 0 0
    endloop
  endfacet
  facet normal -0.998027 -0.0627908 0
    outer loop
      vertex 10.5 0 0
      vertex 10.4172 1.316 100
      vertex 10.4172 1.316 0
    endloop
  endfacet
  facet normal -0.998027 0.0627908 0
    outer loop
      vertex 10.5 0 100
      vertex 10.5 0 0
      vertex 10.4172 -1.316 100
    endloop
  endfacet
  facet normal -0.998027 0.0627908 0
    outer loop
      vertex 10.4172 -1.316 100
      vertex 10.5 0 0
      vertex 10.4172 -1.316 0
    endloop
  endfacet
  facet normal -0.982287 0.187381 0
    outer loop
      vertex 10.4172 -1.316 100
      vertex 10.4172 -1.316 0
      vertex 10.1701 -2.61124 100
    endloop
  endfacet
  facet normal -0.982287 0.187381 0
    outer loop
      vertex 10.1701 -2.61124 100
      vertex 10.4172 -1.316 0
      vertex 10.1701 -2.61124 0
    endloop
  endfacet
  facet normal -0.951057 0.309017 0
    outer loop
      vertex 10.1701 -2.61124 100
      vertex 10.1701 -2.61124 0
      vertex 9.76265 -3.86531 100
    endloop
  endfacet
  facet normal -0.951057 0.309017 0
    outer loop
      vertex 9.76265 -3.86531 100
      vertex 10.1701 -2.61124 0
      vertex 9.76265 -3.86531 0
    endloop
  endfacet
  facet normal -0.904827 0.425779 0
    outer loop
      vertex 9.76265 -3.86531 100
      vertex 9.76265 -3.86531 0
      vertex 9.20122 -5.05841 100
    endloop
  endfacet
  facet normal -0.904827 0.425779 0
    outer loop
      vertex 9.20122 -5.05841 100
      vertex 9.76265 -3.86531 0
      vertex 9.20122 -5.05841 0
    endloop
  endfacet
  facet normal -0.844328 0.535827 0
    outer loop
      vertex 9.20122 -5.05841 100
      vertex 9.20122 -5.05841 0
      vertex 8.49468 -6.17174 100
    endloop
  endfacet
  facet normal -0.844328 0.535827 0
    outer loop
      vertex 8.49468 -6.17174 100
      vertex 9.20122 -5.05841 0
      vertex 8.49468 -6.17174 0
    endloop
  endfacet
  facet normal -0.770514 0.637423 0
    outer loop
      vertex 8.49468 -6.17174 100
      vertex 8.49468 -6.17174 0
      vertex 7.65417 -7.18774 100
    endloop
  endfacet
  facet normal -0.770514 0.637423 0
    outer loop
      vertex 7.65417 -7.18774 100
      vertex 8.49468 -6.17174 0
      vertex 7.65417 -7.18774 0
    endloop
  endfacet
  facet normal -0.684547 0.728969 0
    outer loop
      vertex 7.65417 -7.18774 100
      vertex 7.65417 -7.18774 0
      vertex 6.69295 -8.09039 100
    endloop
  endfacet
  facet normal -0.684547 0.728969 0
    outer loop
      vertex 6.69295 -8.09039 100
      vertex 7.65417 -7.18774 0
      vertex 6.69295 -8.09039 0
    endloop
  endfacet
  facet normal -0.587785 0.809017 0
    outer loop
      vertex 6.69295 -8.09039 100
      vertex 6.69295 -8.09039 0
      vertex 5.62618 -8.86544 100
    endloop
  endfacet
  facet normal -0.587785 0.809017 0
    outer loop
      vertex 5.62618 -8.86544 100
      vertex 6.69295 -8.09039 0
      vertex 5.62618 -8.86544 0
    endloop
  endfacet
  facet normal -0.481754 0.876306 0
    outer loop
      vertex 5.62618 -8.86544 100
      vertex 5.62618 -8.86544 0
      vertex 4.47068 -9.50068 100
    endloop
  endfacet
  facet normal -0.481754 0.876306 0
    outer loop
      vertex 4.47068 -9.50068 100
      vertex 5.62618 -8.86544 0
      vertex 4.47068 -9.50068 0
    endloop
  endfacet
  facet normal -0.368124 0.929777 0
    outer loop
      vertex 4.47068 -9.50068 100
      vertex 4.47068 -9.50068 0
      vertex 3.24468 -9.98609 100
    endloop
  endfacet
  facet normal -0.368124 0.929777 0
    outer loop
      vertex 3.24468 -9.98609 100
      vertex 4.47068 -9.50068 0
      vertex 3.24468 -9.98609 0
    endloop
  endfacet
  facet normal -0.24869 0.968583 0
    outer loop
      vertex 3.24468 -9.98609 100
      vertex 3.24468 -9.98609 0
      vertex 1.9675 -10.314 100
    endloop
  endfacet
  facet normal -0.24869 0.968583 0
    outer loop
      vertex 1.9675 -10.314 100
      vertex 3.24468 -9.98609 0
      vertex 1.9675 -10.314 0
    endloop
  endfacet
  facet normal -0.125334 0.992115 0
    outer loop
      vertex 1.9675 -10.314 100
      vertex 1.9675 -10.314 0
      vertex 0.6593 -10.4793 100
    endloop
  endfacet
  facet normal -0.125334 0.992115 0
    outer loop
      vertex 0.6593 -10.4793 100
      vertex 1.9675 -10.314 0
      vertex 0.6593 -10.4793 0
    endloop
  endfacet
  facet normal 0 1 0
    outer loop
      vertex 0.6593 -10.4793 100
      vertex 0.6593 -10.4793 0
      vertex -0.6593 -10.4793 100
    endloop
  endfacet
  facet normal 0 1 0
    outer loop
      vertex -0.6593 -10.4793 100
      vertex 0.6593 -10.4793 0
      vertex -0.6593 -10.4793 0
    endloop
  endfacet
  facet normal 0.125334 0.992115 0
    outer loop
      vertex -0.6593 -10.4793 100
      vertex -0.6593 -10.4793 0
      vertex -1.9675 -10.314 100
    endloop
  endfacet
  facet normal 0.125334 0.992115 0
    outer loop
      vertex -1.9675 -10.314 100
      vertex -0.6593 -10.4793 0
      vertex -1.9675 -10.314 0
    endloop
  endfacet
  facet normal 0.24869 0.968583 0
    outer loop
      vertex -1.9675 -10.314 100
      vertex -1.9675 -10.314 0
      vertex -3.24468 -9.98609 100
    endloop
  endfacet
  facet normal 0.24869 0.968583 0
    outer loop
      vertex -3.24468 -9.98609 100
      vertex -1.9675 -10.314 0
      vertex -3.24468 -9.98609 0
    endloop
  endfacet
  facet normal 0.368124 0.929777 0
    outer loop
      vertex -3.24468 -9.98609 100
      vertex -3.24468 -9.98609 0
      vertex -4.47068 -9.50068 100
    endloop
  endfacet
  facet normal 0.368124 0.929777 0
    outer loop
      vertex -4.47068 -9.50068 100
      vertex -3.24468 -9.98609 0
      vertex -4.47068 -9.50068 0
    endloop
  endfacet
  facet normal 0.481754 0.876306 0
    outer loop
      vertex -4.47068 -9.50068 100
      vertex -4.47068 -9.50068 0
      vertex -5.62618 -8.86544 100
    endloop
  endfacet
  facet normal 0.481754 0.876306 0
    outer loop
      vertex -5.62618 -8.86544 100
      vertex -4.47068 -9.50068 0
      vertex -5.62618 -8.86544 0
    endloop
  endfacet
  facet normal 0.587785 0.809017 0
    outer loop
      vertex -5.62618 -8.86544 100
      vertex -5.62618 -8.86544 0
      vertex -6.69295 -8.09039 100
    endloop
  endfacet
  facet normal 0.587785 0.809017 0
    outer loop
      vertex -6.69295 -8.09039 100
      vertex -5.62618 -8.86544 0
      vertex -6.69295 -8.09039 0
    endloop
  endfacet
  facet normal 0.684547 0.728969 0
    outer loop
      vertex -6.69295 -8.09039 100
      vertex -6.69295 -8.09039 0
      vertex -7.65417 -7.18774 100
    endloop
  endfacet
  facet normal 0.684547 0.728969 0
    outer loop
      vertex -7.65417 -7.18774 100
      vertex -6.69295 -8.09039 0
      vertex -7.65417 -7.18774 0
    endloop
  endfacet
  facet normal 0.770514 0.637423 0
    outer loop
      vertex -8.49468 -6.17174 100
      vertex -7.65417 -7.18774 100
      vertex -7.65417 -7.18774 0
    endloop
  endfacet
  facet normal 0.770514 0.637423 0
    outer loop
      vertex -8.49468 -6.17174 0
      vertex -8.49468 -6.17174 100
      vertex -7.65417 -7.18774 0
    endloop
  endfacet
  facet normal 0.844328 0.535827 0
    outer loop
      vertex -9.20122 -5.05841 100
      vertex -8.49468 -6.17174 100
      vertex -8.49468 -6.17174 0
    endloop
  endfacet
  facet normal 0.844328 0.535827 0
    outer loop
      vertex -9.20122 -5.05841 0
      vertex -9.20122 -5.05841 100
      vertex -8.49468 -6.17174 0
    endloop
  endfacet
  facet normal 0.904827 0.425779 0
    outer loop
      vertex -9.76265 -3.86531 100
      vertex -9.20122 -5.05841 100
      vertex -9.20122 -5.05841 0
    endloop
  endfacet
  facet normal 0.904827 0.425779 0
    outer loop
      vertex -9.76265 -3.86531 0
      vertex -9.76265 -3.86531 100
      vertex -9.20122 -5.05841 0
    endloop
  endfacet
  facet normal 0.951057 0.309017 0
    outer loop
      vertex -10.1701 -2.61124 100
      vertex -9.76265 -3.86531 100
      vertex -9.76265 -3.86531 0
    endloop
  endfacet
  facet normal 0.951057 0.309017 0
    outer loop
      vertex -10.1701 -2.61124 0
      vertex -10.1701 -2.61124 100
      vertex -9.76265 -3.86531 0
    endloop
  endfacet
  facet normal 0.982287 0.187381 0
    outer loop
      vertex -10.4172 -1.316 100
      vertex -10.1701 -2.61124 100
      vertex -10.1701 -2.61124 0
    endloop
  endfacet
  facet normal 0.982287 0.187381 0
    outer loop
      vertex -10.4172 -1.316 0
      vertex -10.4172 -1.316 100
      vertex -10.1701 -2.61124 0
    endloop
  endfacet
  facet normal 0 0 1
    outer loop
      vertex -11.9054 1.504 100
      vertex -12 0 100
      vertex -11.9054 -1.504 100
    endloop
  endfacet
  facet normal 0 0 1
    outer loop
      vertex -11.1573 -4.41749 100
      vertex -11.9054 1.504 100
      vertex -11.623 -2.98428 100
    endloop
  endfacet
  facet normal 0 0 1
    outer loop
      vertex -11.623 -2.98428 100
      vertex -11.9054 1.504 100
      vertex -11.9054 -1.504 100
    endloop
  endfacet
  facet normal 0 0 1
    outer loop
      vertex -10.5157 -5.78104 100
      vertex -11.9054 1.504 100
      vertex -11.1573 -4.41749 100
    endloop
  endfacet
  facet normal 0 0 1
    outer loop
      vertex -9.7082 -7.05342 100
      vertex -11.9054 1.504 100
      vertex -10.5157 -5.78104 100
    endloop
  endfacet
  facet normal 0 0 1
    outer loop
      vertex -8.74762 -8.21457 100
      vertex -11.9054 1.504 100
      vertex -9.7082 -7.05342 100
    endloop
  endfacet
  facet normal 0 0 1
    outer loop
      vertex -7.64909 -9.24616 100
      vertex -11.9054 1.504 100
      vertex -8.74762 -8.21457 100
    endloop
  endfacet
  facet normal 0 0 1
    outer loop
      vertex -9.76265 -3.86531 100
      vertex -11.9054 1.504 100
      vertex -7.64909 -9.24616 100
    endloop
  endfacet
  facet normal 0 0 1
    outer loop
      vertex 1.9675 10.314 100
      vertex 3.24468 9.98609 100
      vertex 3.7082 11.4127 100
    endloop
  endfacet
  facet normal 0 0 1
    outer loop
      vertex -6.69295 8.09039 100
      vertex -5.62618 8.86544 100
      vertex -3.7082 11.4127 100
    endloop
  endfacet
  facet normal 0 0 1
    outer loop
      vertex -4.47068 9.50068 100
      vertex -3.24468 9.98609 100
      vertex -2.24858 11.7874 100
    endloop
  endfacet
  facet normal 0 0 1
    outer loop
      vertex -6.42992 10.1319 100
      vertex -11.9054 1.504 100
      vertex -5.10935 10.8579 100
    endloop
  endfacet
  facet normal 0 0 1
    outer loop
      vertex -7.64909 9.24616 100
      vertex -11.9054 1.504 100
      vertex -6.42992 10.1319 100
    endloop
  endfacet
  facet normal 0 0 1
    outer loop
      vertex -8.74762 8.21457 100
      vertex -11.9054 1.504 100
      vertex -7.64909 9.24616 100
    endloop
  endfacet
  facet normal 0 0 1
    outer loop
      vertex -9.7082 7.05342 100
      vertex -11.9054 1.504 100
      vertex -8.74762 8.21457 100
    endloop
  endfacet
  facet normal 0 0 1
    outer loop
      vertex -10.5157 5.78104 100
      vertex -11.9054 1.504 100
      vertex -9.7082 7.05342 100
    endloop
  endfacet
  facet normal 0 0 1
    outer loop
      vertex -11.1573 4.41749 100
      vertex -11.9054 1.504 100
      vertex -10.5157 5.78104 100
    endloop
  endfacet
  facet normal 0 0 1
    outer loop
      vertex -11.623 2.98428 100
      vertex -11.9054 1.504 100
      vertex -11.1573 4.41749 100
    endloop
  endfacet
  facet normal 0 0 1
    outer loop
      vertex -9.76265 -3.86531 100
      vertex -10.1701 -2.61124 100
      vertex -11.9054 1.504 100
    endloop
  endfacet
  facet normal 0 0 1
    outer loop
      vertex 6.69295 -8.09039 100
      vertex 5.62618 -8.86544 100
      vertex 7.64909 -9.24616 100
    endloop
  endfacet
  facet normal 0 0 1
    outer loop
      vertex -3.24468 -9.98609 100
      vertex -4.47068 -9.50068 100
      vertex -2.24858 -11.7874 100
    endloop
  endfacet
  facet normal 0 0 1
    outer loop
      vertex 9.76265 -3.86531 100
      vertex 9.20122 -5.05841 100
      vertex 11.1573 -4.41749 100
    endloop
  endfacet
  facet normal 0 0 1
    outer loop
      vertex 3.24468 9.98609 100
      vertex 4.47068 9.50068 100
      vertex 5.10935 10.8579 100
    endloop
  endfacet
  facet normal 0 0 1
    outer loop
      vertex -3.24468 9.98609 100
      vertex -1.9675 10.314 100
      vertex -0.753486 11.9763 100
    endloop
  endfacet
  facet normal 0 0 1
    outer loop
      vertex -8.49468 6.17174 100
      vertex -7.65417 7.18774 100
      vertex -5.10935 10.8579 100
    endloop
  endfacet
  facet normal 0 0 1
    outer loop
      vertex -0.6593 10.4793 100
      vertex 0.6593 10.4793 100
      vertex 2.24858 11.7874 100
    endloop
  endfacet
  facet normal 0 0 1
    outer loop
      vertex -8.49468 6.17174 100
      vertex -11.9054 1.504 100
      vertex -9.20122 5.05841 100
    endloop
  endfacet
  facet normal 0 0 1
    outer loop
      vertex -5.10935 10.8579 100
      vertex -11.9054 1.504 100
      vertex -8.49468 6.17174 100
    endloop
  endfacet
  facet normal 0 0 1
    outer loop
      vertex -5.10935 10.8579 100
      vertex -7.65417 7.18774 100
      vertex -3.7082 11.4127 100
    endloop
  endfacet
  facet normal 0 0 1
    outer loop
      vertex -7.65417 7.18774 100
      vertex -6.69295 8.09039 100
      vertex -3.7082 11.4127 100
    endloop
  endfacet
  facet normal 0 0 1
    outer loop
      vertex -3.7082 11.4127 100
      vertex -5.62618 8.86544 100
      vertex -2.24858 11.7874 100
    endloop
  endfacet
  facet normal 0 0 1
    outer loop
      vertex -5.62618 8.86544 100
      vertex -4.47068 9.50068 100
      vertex -2.24858 11.7874 100
    endloop
  endfacet
  facet normal 0 0 1
    outer loop
      vertex -2.24858 11.7874 100
      vertex -3.24468 9.98609 100
      vertex -0.753486 11.9763 100
    endloop
  endfacet
  facet normal 0 0 1
    outer loop
      vertex -9.76265 3.86531 100
      vertex -9.20122 5.05841 100
      vertex -11.9054 1.504 100
    endloop
  endfacet
  facet normal 0 0 1
    outer loop
      vertex -0.753486 11.9763 100
      vertex -1.9675 10.314 100
      vertex 0.753486 11.9763 100
    endloop
  endfacet
  facet normal 0 0 1
    outer loop
      vertex 0.753486 11.9763 100
      vertex -0.6593 10.4793 100
      vertex 2.24858 11.7874 100
    endloop
  endfacet
  facet normal 0 0 1
    outer loop
      vertex 2.24858 11.7874 100
      vertex 0.6593 10.4793 100
      vertex 3.7082 11.4127 100
    endloop
  endfacet
  facet normal 0 0 1
    outer loop
      vertex 0.6593 10.4793 100
      vertex 1.9675 10.314 100
      vertex 3.7082 11.4127 100
    endloop
  endfacet
  facet normal 0 0 1
    outer loop
      vertex 3.7082 11.4127 100
      vertex 3.24468 9.98609 100
      vertex 5.10935 10.8579 100
    endloop
  endfacet
  facet normal 0 0 1
    outer loop
      vertex -1.9675 10.314 100
      vertex -0.6593 10.4793 100
      vertex 0.753486 11.9763 100
    endloop
  endfacet
  facet normal 0 0 1
    outer loop
      vertex 5.10935 10.8579 100
      vertex 4.47068 9.50068 100
      vertex 6.42992 10.1319 100
    endloop
  endfacet
  facet normal 0 0 1
    outer loop
      vertex 6.42992 10.1319 100
      vertex 5.62618 8.86544 100
      vertex 7.64909 9.24616 100
    endloop
  endfacet
  facet normal 0 0 1
    outer loop
      vertex 0.6593 -10.4793 100
      vertex -0.6593 -10.4793 100
      vertex 0.753486 -11.9763 100
    endloop
  endfacet
  facet normal 0 0 1
    outer loop
      vertex 7.64909 9.24616 100
      vertex 6.69295 8.09039 100
      vertex 8.74762 8.21457 100
    endloop
  endfacet
  facet normal 0 0 1
    outer loop
      vertex -10.1701 2.61124 100
      vertex -9.76265 3.86531 100
      vertex -11.9054 1.504 100
    endloop
  endfacet
  facet normal 0 0 1
    outer loop
      vertex 8.74762 8.21457 100
      vertex 7.65417 7.18774 100
      vertex 9.7082 7.05342 100
    endloop
  endfacet
  facet normal 0 0 1
    outer loop
      vertex 9.7082 7.05342 100
      vertex 8.49468 6.17174 100
      vertex 10.5157 5.78104 100
    endloop
  endfacet
  facet normal 0 0 1
    outer loop
      vertex 10.5157 5.78104 100
      vertex 9.20122 5.05841 100
      vertex 11.1573 4.41749 100
    endloop
  endfacet
  facet normal 0 0 1
    outer loop
      vertex 11.1573 4.41749 100
      vertex 9.76265 3.86531 100
      vertex 11.623 2.98428 100
    endloop
  endfacet
  facet normal 0 0 1
    outer loop
      vertex 11.623 2.98428 100
      vertex 10.1701 2.61124 100
      vertex 11.9054 1.504 100
    endloop
  endfacet
  facet normal 0 0 1
    outer loop
      vertex 11.9054 1.504 100
      vertex 10.4172 1.316 100
      vertex 12 0 100
    endloop
  endfacet
  facet normal 0 0 1
    outer loop
      vertex 12 0 100
      vertex 10.5 0 100
      vertex 11.9054 -1.504 100
    endloop
  endfacet
  facet normal 0 0 1
    outer loop
      vertex 10.5 0 100
      vertex 10.4172 -1.316 100
      vertex 11.9054 -1.504 100
    endloop
  endfacet
  facet normal 0 0 1
    outer loop
      vertex 11.9054 -1.504 100
      vertex 10.1701 -2.61124 100
      vertex 11.623 -2.98428 100
    endloop
  endfacet
  facet normal 0 0 1
    outer loop
      vertex 11.623 -2.98428 100
      vertex 9.76265 -3.86531 100
      vertex 11.1573 -4.41749 100
    endloop
  endfacet
  facet normal 0 0 1
    outer loop
      vertex 4.47068 9.50068 100
      vertex 5.62618 8.86544 100
      vertex 6.42992 10.1319 100
    endloop
  endfacet
  facet normal 0 0 1
    outer loop
      vertex 11.1573 -4.41749 100
      vertex 9.20122 -5.05841 100
      vertex 10.5157 -5.78104 100
    endloop
  endfacet
  facet normal 0 0 1
    outer loop
      vertex 5.62618 8.86544 100
      vertex 6.69295 8.09039 100
      vertex 7.64909 9.24616 100
    endloop
  endfacet
  facet normal 0 0 1
    outer loop
      vertex 10.5157 -5.78104 100
      vertex 8.49468 -6.17174 100
      vertex 9.7082 -7.05342 100
    endloop
  endfacet
  facet normal 0 0 1
    outer loop
      vertex 6.69295 8.09039 100
      vertex 7.65417 7.18774 100
      vertex 8.74762 8.21457 100
    endloop
  endfacet
  facet normal 0 0 1
    outer loop
      vertex 9.7082 -7.05342 100
      vertex 7.65417 -7.18774 100
      vertex 8.74762 -8.21457 100
    endloop
  endfacet
  facet normal 0 0 1
    outer loop
      vertex 7.65417 7.18774 100
      vertex 8.49468 6.17174 100
      vertex 9.7082 7.05342 100
    endloop
  endfacet
  facet normal 0 0 1
    outer loop
      vertex 8.74762 -8.21457 100
      vertex 6.69295 -8.09039 100
      vertex 7.64909 -9.24616 100
    endloop
  endfacet
  facet normal 0 0 1
    outer loop
      vertex 8.49468 6.17174 100
      vertex 9.20122 5.05841 100
      vertex 10.5157 5.78104 100
    endloop
  endfacet
  facet normal 0 0 1
    outer loop
      vertex 7.64909 -9.24616 100
      vertex 5.62618 -8.86544 100
      vertex 6.42992 -10.1319 100
    endloop
  endfacet
  facet normal 0 0 1
    outer loop
      vertex 9.20122 5.05841 100
      vertex 9.76265 3.86531 100
      vertex 11.1573 4.41749 100
    endloop
  endfacet
  facet normal 0 0 1
    outer loop
      vertex 6.42992 -10.1319 100
      vertex 4.47068 -9.50068 100
      vertex 5.10935 -10.8579 100
    endloop
  endfacet
  facet normal 0 0 1
    outer loop
      vertex 9.76265 3.86531 100
      vertex 10.1701 2.61124 100
      vertex 11.623 2.98428 100
    endloop
  endfacet
  facet normal 0 0 1
    outer loop
      vertex 5.10935 -10.8579 100
      vertex 3.24468 -9.98609 100
      vertex 3.7082 -11.4127 100
    endloop
  endfacet
  facet normal 0 0 1
    outer loop
      vertex 10.1701 2.61124 100
      vertex 10.4172 1.316 100
      vertex 11.9054 1.504 100
    endloop
  endfacet
  facet normal 0 0 1
    outer loop
      vertex 3.7082 -11.4127 100
      vertex 1.9675 -10.314 100
      vertex 2.24858 -11.7874 100
    endloop
  endfacet
  facet normal 0 0 1
    outer loop
      vertex 10.4172 1.316 100
      vertex 10.5 0 100
      vertex 12 0 100
    endloop
  endfacet
  facet normal 0 0 1
    outer loop
      vertex 2.24858 -11.7874 100
      vertex 0.6593 -10.4793 100
      vertex 0.753486 -11.9763 100
    endloop
  endfacet
  facet normal 0 0 1
    outer loop
      vertex 10.4172 -1.316 100
      vertex 10.1701 -2.61124 100
      vertex 11.9054 -1.504 100
    endloop
  endfacet
  facet normal 0 0 1
    outer loop
      vertex 0.753486 -11.9763 100
      vertex -0.6593 -10.4793 100
      vertex -0.753486 -11.9763 100
    endloop
  endfacet
  facet normal 0 0 1
    outer loop
      vertex -0.6593 -10.4793 100
      vertex -1.9675 -10.314 100
      vertex -0.753486 -11.9763 100
    endloop
  endfacet
  facet normal 0 0 1
    outer loop
      vertex -0.753486 -11.9763 100
      vertex -3.24468 -9.98609 100
      vertex -2.24858 -11.7874 100
    endloop
  endfacet
  facet normal 0 0 1
    outer loop
      vertex 9.20122 -5.05841 100
      vertex 8.49468 -6.17174 100
      vertex 10.5157 -5.78104 100
    endloop
  endfacet
  facet normal 0 0 1
    outer loop
      vertex -2.24858 -11.7874 100
      vertex -4.47068 -9.50068 100
      vertex -3.7082 -11.4127 100
    endloop
  endfacet
  facet normal 0 0 1
    outer loop
      vertex 8.49468 -6.17174 100
      vertex 7.65417 -7.18774 100
      vertex 9.7082 -7.05342 100
    endloop
  endfacet
  facet normal 0 0 1
    outer loop
      vertex -3.7082 -11.4127 100
      vertex -5.62618 -8.86544 100
      vertex -5.10935 -10.8579 100
    endloop
  endfacet
  facet normal 0 0 1
    outer loop
      vertex 7.65417 -7.18774 100
      vertex 6.69295 -8.09039 100
      vertex 8.74762 -8.21457 100
    endloop
  endfacet
  facet normal 0 0 1
    outer loop
      vertex -5.10935 -10.8579 100
      vertex -6.69295 -8.09039 100
      vertex -6.42992 -10.1319 100
    endloop
  endfacet
  facet normal 0 0 1
    outer loop
      vertex -6.69295 -8.09039 100
      vertex -7.65417 -7.18774 100
      vertex -6.42992 -10.1319 100
    endloop
  endfacet
  facet normal 0 0 1
    outer loop
      vertex -6.42992 -10.1319 100
      vertex -8.49468 -6.17174 100
      vertex -7.64909 -9.24616 100
    endloop
  endfacet
  facet normal 0 0 1
    outer loop
      vertex -4.47068 -9.50068 100
      vertex -5.62618 -8.86544 100
      vertex -3.7082 -11.4127 100
    endloop
  endfacet
  facet normal 0 0 1
    outer loop
      vertex -8.49468 -6.17174 100
      vertex -9.20122 -5.05841 100
      vertex -7.64909 -9.24616 100
    endloop
  endfacet
  facet normal 0 0 1
    outer loop
      vertex -9.20122 -5.05841 100
      vertex -9.76265 -3.86531 100
      vertex -7.64909 -9.24616 100
    endloop
  endfacet
  facet normal 0 0 1
    outer loop
      vertex -10.1701 -2.61124 100
      vertex -10.4172 -1.316 100
      vertex -11.9054 1.504 100
    endloop
  endfacet
  facet normal 0 0 1
    outer loop
      vertex -7.65417 -7.18774 100
      vertex -8.49468 -6.17174 100
      vertex -6.42992 -10.1319 100
    endloop
  endfacet
  facet normal 0 0 1
    outer loop
      vertex -10.4172 -1.316 100
      vertex -10.5 0 100
      vertex -11.9054 1.504 100
    endloop
  endfacet
  facet normal 0 0 1
    outer loop
      vertex 5.62618 -8.86544 100
      vertex 4.47068 -9.50068 100
      vertex 6.42992 -10.1319 100
    endloop
  endfacet
  facet normal 0 0 1
    outer loop
      vertex 4.47068 -9.50068 100
      vertex 3.24468 -9.98609 100
      vertex 5.10935 -10.8579 100
    endloop
  endfacet
  facet normal 0 0 1
    outer loop
      vertex 3.24468 -9.98609 100
      vertex 1.9675 -10.314 100
      vertex 3.7082 -11.4127 100
    endloop
  endfacet
  facet normal 0 0 1
    outer loop
      vertex 1.9675 -10.314 100
      vertex 0.6593 -10.4793 100
      vertex 2.24858 -11.7874 100
    endloop
  endfacet
  facet normal 0 0 1
    outer loop
      vertex -5.62618 -8.86544 100
      vertex -6.69295 -8.09039 100
      vertex -5.10935 -10.8579 100
    endloop
  endfacet
  facet normal 0 0 1
    outer loop
      vertex -1.9675 -10.314 100
      vertex -3.24468 -9.98609 100
      vertex -0.753486 -11.9763 100
    endloop
  endfacet
  facet normal 0 0 1
    outer loop
      vertex -10.5 0 100
      vertex -10.4172 1.316 100
      vertex -11.9054 1.504 100
    endloop
  endfacet
  facet normal 0 0 1
    outer loop
      vertex 10.1701 -2.61124 100
      vertex 9.76265 -3.86531 100
      vertex 11.623 -2.98428 100
    endloop
  endfacet
  facet normal 0 0 1
    outer loop
      vertex -10.4172 1.316 100
      vertex -10.1701 2.61124 100
      vertex -11.9054 1.504 100
    endloop
  endfacet
endsolid OpenSCAD_Model
