solid OpenSCAD_Model
  facet normal -1 0 0
    outer loop
      vertex -31.5 -128 -1.9
      vertex -31.5 -128 0.1
      vertex -31.5 2 -1.9
    endloop
  endfacet
  facet normal -1 0 0
    outer loop
      vertex -31.5 2 -1.9
      vertex -31.5 -128 0.1
      vertex -31.5 -59 0.1
    endloop
  endfacet
  facet normal -1 0 0
    outer loop
      vertex -31.5 -51 0.1
      vertex -31.5 -59 0.1
      vertex -31.5 -59 4
    endloop
  endfacet
  facet normal -1 0 0
    outer loop
      vertex -31.5 2 -1.9
      vertex -31.5 -59 0.1
      vertex -31.5 -51 0.1
    endloop
  endfacet
  facet normal -1 0 0
    outer loop
      vertex -31.5 2 0.1
      vertex -31.5 2 -1.9
      vertex -31.5 -51 0.1
    endloop
  endfacet
  facet normal -1 0 0
    outer loop
      vertex -31.5 -51 0.1
      vertex -31.5 -59 4
      vertex -31.5 -51 4
    endloop
  endfacet
  facet normal 0 -1 0
    outer loop
      vertex -31.5 -128 0.1
      vertex -31.5 -128 -1.9
      vertex 31.5 -128 -1.9
    endloop
  endfacet
  facet normal 0 -1 0
    outer loop
      vertex 5 -128 0.1
      vertex -5 -128 0.1
      vertex 31.5 -128 -1.9
    endloop
  endfacet
  facet normal 0 -1 0
    outer loop
      vertex 15 -128 0.1
      vertex 5 -128 0.1
      vertex 31.5 -128 -1.9
    endloop
  endfacet
  facet normal 0 -1 0
    outer loop
      vertex 31.5 -128 0.1
      vertex 15 -128 0.1
      vertex 31.5 -128 -1.9
    endloop
  endfacet
  facet normal 0 -1 0
    outer loop
      vertex 15 -128 8
      vertex 5 -128 0.1
      vertex 15 -128 0.1
    endloop
  endfacet
  facet normal 0 -1 0
    outer loop
      vertex -5 -128 0.1
      vertex -15 -128 0.1
      vertex 31.5 -128 -1.9
    endloop
  endfacet
  facet normal 0 -1 0
    outer loop
      vertex -15 -128 0.1
      vertex -31.5 -128 0.1
      vertex 31.5 -128 -1.9
    endloop
  endfacet
  facet normal 0 -1 0
    outer loop
      vertex -5 -128 0.1
      vertex -5 -128 8
      vertex -15 -128 0.1
    endloop
  endfacet
  facet normal 0 -1 0
    outer loop
      vertex -15 -128 8
      vertex -15 -128 0.1
      vertex -5 -128 8
    endloop
  endfacet
  facet normal 0 -1 0
    outer loop
      vertex 5 -128 8
      vertex 5 -128 0.1
      vertex 15 -128 8
    endloop
  endfacet
  facet normal 0 0 -1
    outer loop
      vertex -31.5 -128 -1.9
      vertex -31.5 2 -1.9
      vertex 31.5 -128 -1.9
    endloop
  endfacet
  facet normal 0 0 -1
    outer loop
      vertex 31.5 -128 -1.9
      vertex -31.5 2 -1.9
      vertex 31.5 2 -1.9
    endloop
  endfacet
  facet normal 0 1 0
    outer loop
      vertex -31.5 2 -1.9
      vertex -31.5 2 0.1
      vertex 31.5 2 -1.9
    endloop
  endfacet
  facet normal 0 1 0
    outer loop
      vertex 31.5 2 -1.9
      vertex -31.5 2 0.1
      vertex -15 2 0.1
    endloop
  endfacet
  facet normal 0 1 0
    outer loop
      vertex -5 2 0.1
      vertex -15 2 0.1
      vertex -15 2 13
    endloop
  endfacet
  facet normal 0 1 0
    outer loop
      vertex 31.5 2 -1.9
      vertex -15 2 0.1
      vertex -5 2 0.1
    endloop
  endfacet
  facet normal 0 1 0
    outer loop
      vertex 31.5 2 0.1
      vertex 31.5 2 -1.9
      vertex 15 2 0.1
    endloop
  endfacet
  facet normal 0 1 0
    outer loop
      vertex 31.5 2 -1.9
      vertex -5 2 0.1
      vertex 5 2 0.1
    endloop
  endfacet
  facet normal 0 1 0
    outer loop
      vertex 5 2 13
      vertex 15 2 0.1
      vertex 5 2 0.1
    endloop
  endfacet
  facet normal 0 1 0
    outer loop
      vertex 15 2 0.1
      vertex 5 2 13
      vertex 15 2 13
    endloop
  endfacet
  facet normal 0 1 0
    outer loop
      vertex 31.5 2 -1.9
      vertex 5 2 0.1
      vertex 15 2 0.1
    endloop
  endfacet
  facet normal 0 1 0
    outer loop
      vertex -5 2 0.1
      vertex -15 2 13
      vertex -5 2 13
    endloop
  endfacet
  facet normal 0 0 1
    outer loop
      vertex -31.5 -59 0.1
      vertex -31.5 -128 0.1
      vertex -15 -128 0.1
    endloop
  endfacet
  facet normal 0 0 1
    outer loop
      vertex -5 -126 0.1
      vertex -31.5 -59 0.1
      vertex -15 -126 0.1
    endloop
  endfacet
  facet normal 0 0 1
    outer loop
      vertex -15 -126 0.1
      vertex -31.5 -59 0.1
      vertex -15 -128 0.1
    endloop
  endfacet
  facet normal 0 0 1
    outer loop
      vertex 5 -128 0.1
      vertex -31.5 -59 0.1
      vertex -5 -126 0.1
    endloop
  endfacet
  facet normal 0 0 1
    outer loop
      vertex 5 -128 0.1
      vertex -5 -126 0.1
      vertex -5 -128 0.1
    endloop
  endfacet
  facet normal 0 0 1
    outer loop
      vertex 5 -126 0.1
      vertex -31.5 -59 0.1
      vertex 5 -128 0.1
    endloop
  endfacet
  facet normal 0 0 1
    outer loop
      vertex 15 -126 0.1
      vertex -31.5 -59 0.1
      vertex 5 -126 0.1
    endloop
  endfacet
  facet normal 0 0 1
    outer loop
      vertex 31.5 -128 0.1
      vertex -31.5 -59 0.1
      vertex 15 -126 0.1
    endloop
  endfacet
  facet normal 0 0 1
    outer loop
      vertex 31.5 -128 0.1
      vertex 15 -126 0.1
      vertex 15 -128 0.1
    endloop
  endfacet
  facet normal 0 0 1
    outer loop
      vertex 29.5 -59 0.1
      vertex -29.5 -59 0.1
      vertex 31.5 -128 0.1
    endloop
  endfacet
  facet normal 0 0 1
    outer loop
      vertex -29.5 -59 0.1
      vertex -31.5 -59 0.1
      vertex 31.5 -128 0.1
    endloop
  endfacet
  facet normal 0 0 1
    outer loop
      vertex 31.5 -59 0.1
      vertex 29.5 -59 0.1
      vertex 31.5 -128 0.1
    endloop
  endfacet
  facet normal 0 0 1
    outer loop
      vertex 31.5 -51 0.1
      vertex 31.5 2 0.1
      vertex 29.5 -51 0.1
    endloop
  endfacet
  facet normal 0 0 1
    outer loop
      vertex 31.5 2 0.1
      vertex 15 2 0.1
      vertex 15 0 0.1
    endloop
  endfacet
  facet normal 0 0 1
    outer loop
      vertex -29.5 -51 0.1
      vertex -15 0 0.1
      vertex -15 2 0.1
    endloop
  endfacet
  facet normal 0 0 1
    outer loop
      vertex 5 2 0.1
      vertex -5 2 0.1
      vertex -5 0 0.1
    endloop
  endfacet
  facet normal 0 0 1
    outer loop
      vertex -15 2 0.1
      vertex -31.5 2 0.1
      vertex -31.5 -51 0.1
    endloop
  endfacet
  facet normal 0 0 1
    outer loop
      vertex -15 2 0.1
      vertex -31.5 -51 0.1
      vertex -29.5 -51 0.1
    endloop
  endfacet
  facet normal 0 0 1
    outer loop
      vertex 29.5 -51 0.1
      vertex -29.5 -59 0.1
      vertex 29.5 -59 0.1
    endloop
  endfacet
  facet normal 0 0 1
    outer loop
      vertex -29.5 -51 0.1
      vertex -5 0 0.1
      vertex -15 0 0.1
    endloop
  endfacet
  facet normal 0 0 1
    outer loop
      vertex -29.5 -51 0.1
      vertex 5 2 0.1
      vertex -5 0 0.1
    endloop
  endfacet
  facet normal 0 0 1
    outer loop
      vertex -29.5 -51 0.1
      vertex 5 0 0.1
      vertex 5 2 0.1
    endloop
  endfacet
  facet normal 0 0 1
    outer loop
      vertex -29.5 -51 0.1
      vertex 15 0 0.1
      vertex 5 0 0.1
    endloop
  endfacet
  facet normal 0 0 1
    outer loop
      vertex -29.5 -51 0.1
      vertex 31.5 2 0.1
      vertex 15 0 0.1
    endloop
  endfacet
  facet normal 0 0 1
    outer loop
      vertex -29.5 -51 0.1
      vertex 29.5 -51 0.1
      vertex 31.5 2 0.1
    endloop
  endfacet
  facet normal 0 0 1
    outer loop
      vertex -29.5 -51 0.1
      vertex -29.5 -59 0.1
      vertex 29.5 -51 0.1
    endloop
  endfacet
  facet normal 0 1 0
    outer loop
      vertex -31.5 -51 0.1
      vertex -31.5 -51 4
      vertex -29.5 -51 0.1
    endloop
  endfacet
  facet normal 0 1 0
    outer loop
      vertex -29.5 -51 0.1
      vertex -31.5 -51 4
      vertex -29.5 -51 4
    endloop
  endfacet
  facet normal 0 0 1
    outer loop
      vertex -31.5 -51 4
      vertex -31.5 -59 4
      vertex -29.5 -59 4
    endloop
  endfacet
  facet normal 0 0 1
    outer loop
      vertex -29.5 -51 4
      vertex -31.5 -51 4
      vertex -29.5 -59 4
    endloop
  endfacet
  facet normal 0 -1 0
    outer loop
      vertex -31.5 -59 4
      vertex -31.5 -59 0.1
      vertex -29.5 -59 0.1
    endloop
  endfacet
  facet normal 0 -1 0
    outer loop
      vertex -29.5 -59 4
      vertex -31.5 -59 4
      vertex -29.5 -59 0.1
    endloop
  endfacet
  facet normal -1 0 0
    outer loop
      vertex -15 -128 0.1
      vertex -15 -128 8
      vertex -15 -126 0.1
    endloop
  endfacet
  facet normal -1 0 0
    outer loop
      vertex -15 -126 0.1
      vertex -15 -128 8
      vertex -15 -126.072 10.2981
    endloop
  endfacet
  facet normal -1 0 0
    outer loop
      vertex -15 -126 7.27206
      vertex -15 -126.072 10.2981
      vertex -15 -124.54 9.01256
    endloop
  endfacet
  facet normal -1 0 0
    outer loop
      vertex -15 -126 0.1
      vertex -15 -126.072 10.2981
      vertex -15 -126 7.27206
    endloop
  endfacet
  facet normal 0 -0.766044 0.642788
    outer loop
      vertex -15 -126.072 10.2981
      vertex -15 -128 8
      vertex -5 -128 8
    endloop
  endfacet
  facet normal 0 -0.766044 0.642788
    outer loop
      vertex -5 -126.072 10.2981
      vertex -15 -126.072 10.2981
      vertex -5 -128 8
    endloop
  endfacet
  facet normal 1 0 0
    outer loop
      vertex -5 -128 8
      vertex -5 -128 0.1
      vertex -5 -126 0.1
    endloop
  endfacet
  facet normal 1 0 0
    outer loop
      vertex -5 -124.54 9.01256
      vertex -5 -128 8
      vertex -5 -126 7.27206
    endloop
  endfacet
  facet normal 1 0 0
    outer loop
      vertex -5 -126 7.27206
      vertex -5 -128 8
      vertex -5 -126 0.1
    endloop
  endfacet
  facet normal 1 0 0
    outer loop
      vertex -5 -126.072 10.2981
      vertex -5 -128 8
      vertex -5 -124.54 9.01256
    endloop
  endfacet
  facet normal -1 0 0
    outer loop
      vertex 5 -128 0.1
      vertex 5 -128 8
      vertex 5 -126 0.1
    endloop
  endfacet
  facet normal -1 0 0
    outer loop
      vertex 5 -126 0.1
      vertex 5 -128 8
      vertex 5 -126.072 10.2981
    endloop
  endfacet
  facet normal -1 0 0
    outer loop
      vertex 5 -126 7.27206
      vertex 5 -126.072 10.2981
      vertex 5 -124.54 9.01256
    endloop
  endfacet
  facet normal -1 0 0
    outer loop
      vertex 5 -126 0.1
      vertex 5 -126.072 10.2981
      vertex 5 -126 7.27206
    endloop
  endfacet
  facet normal 0 -0.766044 0.642788
    outer loop
      vertex 5 -126.072 10.2981
      vertex 5 -128 8
      vertex 15 -128 8
    endloop
  endfacet
  facet normal 0 -0.766044 0.642788
    outer loop
      vertex 15 -126.072 10.2981
      vertex 5 -126.072 10.2981
      vertex 15 -128 8
    endloop
  endfacet
  facet normal 1 0 0
    outer loop
      vertex 15 -128 8
      vertex 15 -128 0.1
      vertex 15 -126 0.1
    endloop
  endfacet
  facet normal 1 0 0
    outer loop
      vertex 15 -124.54 9.01256
      vertex 15 -128 8
      vertex 15 -126 7.27206
    endloop
  endfacet
  facet normal 1 0 0
    outer loop
      vertex 15 -126 7.27206
      vertex 15 -128 8
      vertex 15 -126 0.1
    endloop
  endfacet
  facet normal 1 0 0
    outer loop
      vertex 15 -126.072 10.2981
      vertex 15 -128 8
      vertex 15 -124.54 9.01256
    endloop
  endfacet
  facet normal 1 0 0
    outer loop
      vertex 31.5 -128 0.1
      vertex 31.5 -128 -1.9
      vertex 31.5 2 -1.9
    endloop
  endfacet
  facet normal 1 0 0
    outer loop
      vertex 31.5 -59 0.1
      vertex 31.5 -128 0.1
      vertex 31.5 2 -1.9
    endloop
  endfacet
  facet normal 1 0 0
    outer loop
      vertex 31.5 -51 0.1
      vertex 31.5 -59 0.1
      vertex 31.5 2 -1.9
    endloop
  endfacet
  facet normal 1 0 0
    outer loop
      vertex 31.5 2 0.1
      vertex 31.5 -51 0.1
      vertex 31.5 2 -1.9
    endloop
  endfacet
  facet normal 1 0 0
    outer loop
      vertex 31.5 -51 4
      vertex 31.5 -59 0.1
      vertex 31.5 -51 0.1
    endloop
  endfacet
  facet normal 1 0 0
    outer loop
      vertex 31.5 -59 4
      vertex 31.5 -59 0.1
      vertex 31.5 -51 4
    endloop
  endfacet
  facet normal 1 0 0
    outer loop
      vertex 15 -1.4641 15.0321
      vertex 15 -2.4641 13.3
      vertex 15 0 11.8774
    endloop
  endfacet
  facet normal 1 0 0
    outer loop
      vertex 15 1.9815 13
      vertex 15 -1.4641 15.0321
      vertex 15 0 11.8774
    endloop
  endfacet
  facet normal 1 0 0
    outer loop
      vertex 15 0 0.1
      vertex 15 2 0.1
      vertex 15 0 11.8774
    endloop
  endfacet
  facet normal 1 0 0
    outer loop
      vertex 15 2 0.1
      vertex 15 2 13
      vertex 15 0 11.8774
    endloop
  endfacet
  facet normal 1 0 0
    outer loop
      vertex 15 2 13
      vertex 15 1.9815 13
      vertex 15 0 11.8774
    endloop
  endfacet
  facet normal 1 0 0
    outer loop
      vertex 15 1.9815 13
      vertex 15 2 13.0321
      vertex 15 -1.4641 15.0321
    endloop
  endfacet
  facet normal 0 0 1
    outer loop
      vertex 5 2 13
      vertex 5 1.9815 13
      vertex 15 1.9815 13
    endloop
  endfacet
  facet normal 0 0 1
    outer loop
      vertex 15 2 13
      vertex 5 2 13
      vertex 15 1.9815 13
    endloop
  endfacet
  facet normal -1 0 0
    outer loop
      vertex 5 -2.4641 13.3
      vertex 5 -1.4641 15.0321
      vertex 5 0 11.8774
    endloop
  endfacet
  facet normal -1 0 0
    outer loop
      vertex 5 0 11.8774
      vertex 5 -1.4641 15.0321
      vertex 5 2 13.0321
    endloop
  endfacet
  facet normal -1 0 0
    outer loop
      vertex 5 0 11.8774
      vertex 5 2 13.0321
      vertex 5 1.9815 13
    endloop
  endfacet
  facet normal -1 0 0
    outer loop
      vertex 5 0 11.8774
      vertex 5 1.9815 13
      vertex 5 2 13
    endloop
  endfacet
  facet normal -1 0 0
    outer loop
      vertex 5 0 11.8774
      vertex 5 2 13
      vertex 5 2 0.1
    endloop
  endfacet
  facet normal -1 0 0
    outer loop
      vertex 5 0 11.8774
      vertex 5 2 0.1
      vertex 5 0 0.1
    endloop
  endfacet
  facet normal 1 0 0
    outer loop
      vertex -5 -1.4641 15.0321
      vertex -5 -2.4641 13.3
      vertex -5 0 11.8774
    endloop
  endfacet
  facet normal 1 0 0
    outer loop
      vertex -5 1.9815 13
      vertex -5 -1.4641 15.0321
      vertex -5 0 11.8774
    endloop
  endfacet
  facet normal 1 0 0
    outer loop
      vertex -5 0 0.1
      vertex -5 2 0.1
      vertex -5 0 11.8774
    endloop
  endfacet
  facet normal 1 0 0
    outer loop
      vertex -5 2 0.1
      vertex -5 2 13
      vertex -5 0 11.8774
    endloop
  endfacet
  facet normal 1 0 0
    outer loop
      vertex -5 2 13
      vertex -5 1.9815 13
      vertex -5 0 11.8774
    endloop
  endfacet
  facet normal 1 0 0
    outer loop
      vertex -5 1.9815 13
      vertex -5 2 13.0321
      vertex -5 -1.4641 15.0321
    endloop
  endfacet
  facet normal 0 0 1
    outer loop
      vertex -15 2 13
      vertex -15 1.9815 13
      vertex -5 1.9815 13
    endloop
  endfacet
  facet normal 0 0 1
    outer loop
      vertex -5 2 13
      vertex -15 2 13
      vertex -5 1.9815 13
    endloop
  endfacet
  facet normal -1 0 0
    outer loop
      vertex -15 -2.4641 13.3
      vertex -15 -1.4641 15.0321
      vertex -15 0 11.8774
    endloop
  endfacet
  facet normal -1 0 0
    outer loop
      vertex -15 0 11.8774
      vertex -15 -1.4641 15.0321
      vertex -15 2 13.0321
    endloop
  endfacet
  facet normal -1 0 0
    outer loop
      vertex -15 0 11.8774
      vertex -15 2 13.0321
      vertex -15 1.9815 13
    endloop
  endfacet
  facet normal -1 0 0
    outer loop
      vertex -15 0 11.8774
      vertex -15 1.9815 13
      vertex -15 2 13
    endloop
  endfacet
  facet normal -1 0 0
    outer loop
      vertex -15 0 11.8774
      vertex -15 2 13
      vertex -15 2 0.1
    endloop
  endfacet
  facet normal -1 0 0
    outer loop
      vertex -15 0 11.8774
      vertex -15 2 0.1
      vertex -15 0 0.1
    endloop
  endfacet
  facet normal 1 0 0
    outer loop
      vertex -29.5 -59 4
      vertex -29.5 -59 0.1
      vertex -29.5 -51 0.1
    endloop
  endfacet
  facet normal 1 0 0
    outer loop
      vertex -29.5 -51 4
      vertex -29.5 -59 4
      vertex -29.5 -51 0.1
    endloop
  endfacet
  facet normal 0 -1 0
    outer loop
      vertex -15 0 11.8774
      vertex -15 0 0.1
      vertex -5 0 0.1
    endloop
  endfacet
  facet normal 0 -1 0
    outer loop
      vertex -5 0 11.8774
      vertex -15 0 11.8774
      vertex -5 0 0.1
    endloop
  endfacet
  facet normal 0 -1 0
    outer loop
      vertex 5 0 11.8774
      vertex 5 0 0.1
      vertex 15 0 0.1
    endloop
  endfacet
  facet normal 0 -1 0
    outer loop
      vertex 15 0 11.8774
      vertex 5 0 11.8774
      vertex 15 0 0.1
    endloop
  endfacet
  facet normal 0 1 0
    outer loop
      vertex 29.5 -51 0.1
      vertex 29.5 -51 4
      vertex 31.5 -51 0.1
    endloop
  endfacet
  facet normal 0 1 0
    outer loop
      vertex 31.5 -51 0.1
      vertex 29.5 -51 4
      vertex 31.5 -51 4
    endloop
  endfacet
  facet normal -1 0 0
    outer loop
      vertex 29.5 -59 0.1
      vertex 29.5 -59 4
      vertex 29.5 -51 0.1
    endloop
  endfacet
  facet normal -1 0 0
    outer loop
      vertex 29.5 -51 0.1
      vertex 29.5 -59 4
      vertex 29.5 -51 4
    endloop
  endfacet
  facet normal 0 -1 0
    outer loop
      vertex 29.5 -59 4
      vertex 29.5 -59 0.1
      vertex 31.5 -59 0.1
    endloop
  endfacet
  facet normal 0 -1 0
    outer loop
      vertex 31.5 -59 4
      vertex 29.5 -59 4
      vertex 31.5 -59 0.1
    endloop
  endfacet
  facet normal 0 1 0
    outer loop
      vertex 5 -126 0.1
      vertex 5 -126 7.27206
      vertex 15 -126 0.1
    endloop
  endfacet
  facet normal 0 1 0
    outer loop
      vertex 15 -126 0.1
      vertex 5 -126 7.27206
      vertex 15 -126 7.27206
    endloop
  endfacet
  facet normal 0 1 0
    outer loop
      vertex -15 -126 0.1
      vertex -15 -126 7.27206
      vertex -5 -126 0.1
    endloop
  endfacet
  facet normal 0 1 0
    outer loop
      vertex -5 -126 0.1
      vertex -15 -126 7.27206
      vertex -5 -126 7.27206
    endloop
  endfacet
  facet normal 0 0.766044 -0.642788
    outer loop
      vertex -15 -126 7.27206
      vertex -15 -124.54 9.01256
      vertex -5 -126 7.27206
    endloop
  endfacet
  facet normal 0 0.766044 -0.642788
    outer loop
      vertex -5 -126 7.27206
      vertex -15 -124.54 9.01256
      vertex -5 -124.54 9.01256
    endloop
  endfacet
  facet normal 0 0.642788 0.766044
    outer loop
      vertex -15 -124.54 9.01256
      vertex -15 -126.072 10.2981
      vertex -5 -126.072 10.2981
    endloop
  endfacet
  facet normal 0 0.642788 0.766044
    outer loop
      vertex -5 -124.54 9.01256
      vertex -15 -124.54 9.01256
      vertex -5 -126.072 10.2981
    endloop
  endfacet
  facet normal 0 0.766044 -0.642788
    outer loop
      vertex 5 -126 7.27206
      vertex 5 -124.54 9.01256
      vertex 15 -126 7.27206
    endloop
  endfacet
  facet normal 0 0.766044 -0.642788
    outer loop
      vertex 15 -126 7.27206
      vertex 5 -124.54 9.01256
      vertex 15 -124.54 9.01256
    endloop
  endfacet
  facet normal 0 0.642788 0.766044
    outer loop
      vertex 5 -124.54 9.01256
      vertex 5 -126.072 10.2981
      vertex 15 -126.072 10.2981
    endloop
  endfacet
  facet normal 0 0.642788 0.766044
    outer loop
      vertex 15 -124.54 9.01256
      vertex 5 -124.54 9.01256
      vertex 15 -126.072 10.2981
    endloop
  endfacet
  facet normal 0 0 1
    outer loop
      vertex 29.5 -51 4
      vertex 29.5 -59 4
      vertex 31.5 -59 4
    endloop
  endfacet
  facet normal 0 0 1
    outer loop
      vertex 31.5 -51 4
      vertex 29.5 -51 4
      vertex 31.5 -59 4
    endloop
  endfacet
  facet normal 0 0.5 0.866025
    outer loop
      vertex 5 2 13.0321
      vertex 5 -1.4641 15.0321
      vertex 15 -1.4641 15.0321
    endloop
  endfacet
  facet normal 0 0.5 0.866025
    outer loop
      vertex 15 2 13.0321
      vertex 5 2 13.0321
      vertex 15 -1.4641 15.0321
    endloop
  endfacet
  facet normal 0 -0.866025 0.5
    outer loop
      vertex 5 -1.4641 15.0321
      vertex 5 -2.4641 13.3
      vertex 15 -2.4641 13.3
    endloop
  endfacet
  facet normal 0 -0.866025 0.5
    outer loop
      vertex 15 -1.4641 15.0321
      vertex 5 -1.4641 15.0321
      vertex 15 -2.4641 13.3
    endloop
  endfacet
  facet normal 0 0.866025 -0.5
    outer loop
      vertex 5 1.9815 13
      vertex 5 2 13.0321
      vertex 15 1.9815 13
    endloop
  endfacet
  facet normal 0 0.866025 -0.5
    outer loop
      vertex 15 1.9815 13
      vertex 5 2 13.0321
      vertex 15 2 13.0321
    endloop
  endfacet
  facet normal 0 -0.5 -0.866025
    outer loop
      vertex 5 -2.4641 13.3
      vertex 5 0 11.8774
      vertex 15 -2.4641 13.3
    endloop
  endfacet
  facet normal 0 -0.5 -0.866025
    outer loop
      vertex 15 -2.4641 13.3
      vertex 5 0 11.8774
      vertex 15 0 11.8774
    endloop
  endfacet
  facet normal 0 0.5 0.866025
    outer loop
      vertex -15 2 13.0321
      vertex -15 -1.4641 15.0321
      vertex -5 -1.4641 15.0321
    endloop
  endfacet
  facet normal 0 0.5 0.866025
    outer loop
      vertex -5 2 13.0321
      vertex -15 2 13.0321
      vertex -5 -1.4641 15.0321
    endloop
  endfacet
  facet normal 0 -0.866025 0.5
    outer loop
      vertex -15 -1.4641 15.0321
      vertex -15 -2.4641 13.3
      vertex -5 -2.4641 13.3
    endloop
  endfacet
  facet normal 0 -0.866025 0.5
    outer loop
      vertex -5 -1.4641 15.0321
      vertex -15 -1.4641 15.0321
      vertex -5 -2.4641 13.3
    endloop
  endfacet
  facet normal 0 0.866025 -0.5
    outer loop
      vertex -15 1.9815 13
      vertex -15 2 13.0321
      vertex -5 1.9815 13
    endloop
  endfacet
  facet normal 0 0.866025 -0.5
    outer loop
      vertex -5 1.9815 13
      vertex -15 2 13.0321
      vertex -5 2 13.0321
    endloop
  endfacet
  facet normal 0 -0.5 -0.866025
    outer loop
      vertex -15 -2.4641 13.3
      vertex -15 0 11.8774
      vertex -5 -2.4641 13.3
    endloop
  endfacet
  facet normal 0 -0.5 -0.866025
    outer loop
      vertex -5 -2.4641 13.3
      vertex -15 0 11.8774
      vertex -5 0 11.8774
    endloop
  endfacet
endsolid OpenSCAD_Model
